<svg version="1.0" xmlns="http://www.w3.org/2000/svg" width="512.000000" height="512.000000" preserveAspectRatio="xMidYMid meet" style=""><rect id="backgroundrect" width="100%" height="100%" x="0" y="0" fill="none" stroke="none"/>


<g class="currentLayer" style=""><title>Layer 1</title><g transform="translate(0, 512) scale(0.1, -0.1)" fill="#ffffff" stroke="none" id="svg_1" class="selected" fill-opacity="1">
<path d="M880 4800 l0 -160 80 0 80 0 0 160 0 160 -80 0 -80 0 0 -160z" id="svg_2" fill="#ffffff" fill-opacity="1"/>
<path d="M1200 4480 l0 -480 80 0 80 0 0 480 0 480 -80 0 -80 0 0 -480z" id="svg_3" fill="#ffffff" fill-opacity="1"/>
<path d="M1520 4720 l0 -240 80 0 80 0 0 240 0 240 -80 0 -80 0 0 -240z" id="svg_4" fill="#ffffff" fill-opacity="1"/>
<path d="M1840 4880 l0 -80 80 0 80 0 0 80 0 80 -80 0 -80 0 0 -80z" id="svg_5" fill="#ffffff" fill-opacity="1"/>
<path d="M2160 4760 l0 -200 80 0 80 0 0 200 0 200 -80 0 -80 0 0 -200z" id="svg_6" fill="#ffffff" fill-opacity="1"/>
<path d="M2480 4680 l0 -280 80 0 80 0 0 280 0 280 -80 0 -80 0 0 -280z" id="svg_7" fill="#ffffff" fill-opacity="1"/>
<path d="M2800 4880 l0 -80 80 0 80 0 0 80 0 80 -80 0 -80 0 0 -80z" id="svg_8" fill="#ffffff" fill-opacity="1"/>
<path d="M3120 4880 l0 -80 80 0 80 0 0 80 0 80 -80 0 -80 0 0 -80z" id="svg_9" fill="#ffffff" fill-opacity="1"/>
<path d="M3440 4800 l0 -160 80 0 80 0 0 160 0 160 -80 0 -80 0 0 -160z" id="svg_10" fill="#ffffff" fill-opacity="1"/>
<path d="M3760 4560 l0 -400 80 0 80 0 0 400 0 400 -80 0 -80 0 0 -400z" id="svg_11" fill="#ffffff" fill-opacity="1"/>
<path d="M4080 4800 l0 -160 80 0 80 0 0 160 0 160 -80 0 -80 0 0 -160z" id="svg_12" fill="#ffffff" fill-opacity="1"/>
<path d="M1840 4560 l0 -80 80 0 80 0 0 80 0 80 -80 0 -80 0 0 -80z" id="svg_13" fill="#ffffff" fill-opacity="1"/>
<path d="M2825 4615 l-25 -24 0 -311 0 -311 25 -24 c24 -25 26 -25 215 -25 189 0 191 0 215 25 l25 24 0 311 0 311 -25 24 c-24 25 -26 25 -215 25 -189 0 -191 0 -215 -25z m295 -335 l0 -200 -80 0 -80 0 0 200 0 200 80 0 80 0 0 -200z" id="svg_14" fill="#ffffff" fill-opacity="1"/>
<path d="M880 4080 l0 -400 80 0 80 0 0 400 0 400 -80 0 -80 0 0 -400z" id="svg_15" fill="#ffffff" fill-opacity="1"/>
<path d="M3440 4120 l0 -360 80 0 80 0 0 360 0 360 -80 0 -80 0 0 -360z" id="svg_16" fill="#ffffff" fill-opacity="1"/>
<path d="M4080 4080 l0 -400 80 0 80 0 0 400 0 400 -80 0 -80 0 0 -400z" id="svg_17" fill="#ffffff" fill-opacity="1"/>
<path d="M2160 4200 l0 -200 80 0 80 0 0 200 0 200 -80 0 -80 0 0 -200z" id="svg_18" fill="#ffffff" fill-opacity="1"/>
<path d="M1545 4295 l-25 -24 0 -311 0 -311 25 -24 c24 -25 26 -25 215 -25 189 0 191 0 215 25 l25 24 0 311 0 311 -25 24 c-24 25 -26 25 -215 25 -189 0 -191 0 -215 -25z m295 -335 l0 -200 -80 0 -80 0 0 200 0 200 80 0 80 0 0 -200z" id="svg_19" fill="#ffffff" fill-opacity="1"/>
<path d="M2480 4120 l0 -120 80 0 80 0 0 120 0 120 -80 0 -80 0 0 -120z" id="svg_20" fill="#ffffff" fill-opacity="1"/>
<path d="M3760 3880 l0 -120 80 0 80 0 0 120 0 120 -80 0 -80 0 0 -120z" id="svg_21" fill="#ffffff" fill-opacity="1"/>
<path d="M1200 3560 l0 -280 -80 0 -80 0 0 120 0 120 -80 0 -80 0 0 -120 0 -120 -55 0 c-46 0 -60 -4 -81 -25 l-24 -24 2 -1383 3 -1383 23 -57 c27 -67 103 -155 167 -192 99 -58 60 -57 1286 -54 l1124 3 70 33 c65 31 100 63 502 465 402 402 434 437 465 502 l33 70 3 998 2 997 -24 25 c-21 21 -35 25 -81 25 l-55 0 0 120 0 120 -80 0 -80 0 0 -120 0 -120 -80 0 -80 0 0 135 c0 131 -1 137 -25 160 -24 25 -26 25 -215 25 -189 0 -191 0 -215 -25 -24 -23 -25 -29 -25 -160 l0 -135 -80 0 -80 0 0 240 0 240 -80 0 -80 0 0 -240 0 -240 -80 0 -80 0 0 240 0 240 -80 0 -80 0 0 -240 0 -240 -80 0 -80 0 0 255 0 256 -25 24 c-24 25 -26 25 -215 25 -189 0 -191 0 -215 -25 l-25 -24 0 -256 0 -255 -80 0 -80 0 0 80 0 80 -80 0 -80 0 0 -80 0 -80 -80 0 -80 0 0 80 0 80 -80 0 -80 0 0 -80 0 -80 -80 0 -80 0 0 280 0 280 -80 0 -80 0 0 -280z m1280 -80 l0 -200 -80 0 -80 0 0 200 0 200 80 0 80 0 0 -200z m1280 -120 l0 -80 -80 0 -80 0 0 80 0 80 80 0 80 0 0 -80z m480 -1157 l0 -918 -24 -50 c-19 -39 -109 -134 -400 -425 l-376 -375 0 239 c0 158 4 253 12 280 16 55 99 138 154 154 24 7 100 12 178 12 l136 0 0 81 0 81 -167 -4 c-164 -3 -169 -4 -235 -35 -93 -44 -151 -100 -196 -191 l-37 -76 -3 -328 -3 -328 -1118 2 -1118 3 -49 30 c-30 19 -60 49 -79 79 l-30 49 -3 1319 -2 1318 1680 0 1680 0 0 -917z" id="svg_22" fill="#ffffff" fill-opacity="1"/>
<path d="M1680 2640 l0 -80 120 0 120 0 0 80 0 80 -120 0 -120 0 0 -80z" id="svg_23" fill="#ffffff" fill-opacity="1"/>
<path d="M2080 2640 l0 -80 560 0 560 0 0 80 0 80 -560 0 -560 0 0 -80z" id="svg_24" fill="#ffffff" fill-opacity="1"/>
<path d="M3360 2640 l0 -80 240 0 240 0 0 80 0 80 -240 0 -240 0 0 -80z" id="svg_25" fill="#ffffff" fill-opacity="1"/>
<path d="M1280 2160 l0 -80 240 0 240 0 0 80 0 80 -240 0 -240 0 0 -80z" id="svg_26" fill="#ffffff" fill-opacity="1"/>
<path d="M1920 2160 l0 -80 640 0 640 0 0 80 0 80 -640 0 -640 0 0 -80z" id="svg_27" fill="#ffffff" fill-opacity="1"/>
<path d="M3360 2160 l0 -80 240 0 240 0 0 80 0 80 -240 0 -240 0 0 -80z" id="svg_28" fill="#ffffff" fill-opacity="1"/>
<path d="M1280 1680 l0 -80 80 0 80 0 0 80 0 80 -80 0 -80 0 0 -80z" id="svg_29" fill="#ffffff" fill-opacity="1"/>
<path d="M1600 1680 l0 -80 560 0 560 0 0 80 0 80 -560 0 -560 0 0 -80z" id="svg_30" fill="#ffffff" fill-opacity="1"/>
<path d="M2880 1680 l0 -80 480 0 480 0 0 80 0 80 -480 0 -480 0 0 -80z" id="svg_31" fill="#ffffff" fill-opacity="1"/>
<path d="M1280 1200 l0 -80 440 0 440 0 0 80 0 80 -440 0 -440 0 0 -80z" id="svg_32" fill="#ffffff" fill-opacity="1"/>
<path d="M2320 1200 l0 -80 400 0 400 0 0 80 0 80 -400 0 -400 0 0 -80z" id="svg_33" fill="#ffffff" fill-opacity="1"/>
<path d="M1280 720 l0 -80 120 0 120 0 0 80 0 80 -120 0 -120 0 0 -80z" id="svg_34" fill="#ffffff" fill-opacity="1"/>
<path d="M1680 720 l0 -80 480 0 480 0 0 80 0 80 -480 0 -480 0 0 -80z" id="svg_35" fill="#ffffff" fill-opacity="1"/>
<path d="M2800 720 l0 -80 160 0 160 0 0 80 0 80 -160 0 -160 0 0 -80z" id="svg_36" fill="#ffffff" fill-opacity="1"/>
</g></g></svg>