<?xml version="1.0" encoding="UTF-8"?>
<!DOCTYPE svg PUBLIC "-//W3C//DTD SVG 1.1//EN" "http://www.w3.org/Graphics/SVG/1.1/DTD/svg11.dtd">
<svg xmlns="http://www.w3.org/2000/svg" version="1.1" width="128px" height="128px" style="shape-rendering:geometricPrecision; text-rendering:geometricPrecision; image-rendering:optimizeQuality; fill-rule:evenodd; clip-rule:evenodd" xmlns:xlink="http://www.w3.org/1999/xlink">
<g><path style="opacity:0.929" fill="#fefffe" d="M 20.5,-0.5 C 39.5,-0.5 58.5,-0.5 77.5,-0.5C 90.4647,12.9652 103.631,26.2985 117,39.5C 117.5,68.8314 117.667,98.1648 117.5,127.5C 81.5,127.5 45.5,127.5 9.5,127.5C 9.33335,88.8319 9.50001,50.1652 10,11.5C 11.9363,6.0678 15.4363,2.0678 20.5,-0.5 Z M 24.5,10.5 C 39.1667,10.5 53.8333,10.5 68.5,10.5C 68.5,22.8333 68.5,35.1667 68.5,47.5C 80.8333,47.5 93.1667,47.5 105.5,47.5C 105.5,70.5 105.5,93.5 105.5,116.5C 77.5,116.5 49.5,116.5 21.5,116.5C 21.3333,82.165 21.5,47.8317 22,13.5C 23.045,12.6266 23.8783,11.6266 24.5,10.5 Z M 79.5,19.5 C 85.2981,24.7971 90.9647,30.2971 96.5,36C 90.8431,36.4994 85.1764,36.6661 79.5,36.5C 79.5,30.8333 79.5,25.1667 79.5,19.5 Z"/></g>
<g><path style="opacity:0.835" fill="#fefffe" d="M 32.5,68.5 C 41.5152,67.1404 46.5152,70.8071 47.5,79.5C 42.7535,79.7133 38.4201,78.8799 34.5,77C 33.3651,81.7477 33.1985,86.581 34,91.5C 34.5,92 35,92.5 35.5,93C 38.8773,90.6277 42.8773,89.461 47.5,89.5C 46.9022,98.2631 42.2355,102.096 33.5,101C 29.6667,99.8333 27.1667,97.3333 26,93.5C 25.1227,86.7506 25.456,80.0839 27,73.5C 28.7297,71.5981 30.563,69.9314 32.5,68.5 Z"/></g>
<g><path style="opacity:0.832" fill="#fefffe" d="M 59.5,68.5 C 66.4864,67.0773 72.1531,69.0773 76.5,74.5C 75.1667,76.5 73.5,78.1667 71.5,79.5C 69.3295,77.9138 66.9962,76.5804 64.5,75.5C 63.3279,75.9186 62.3279,76.5853 61.5,77.5C 64.6059,79.557 67.9393,81.3903 71.5,83C 76.4424,87.2422 77.2757,92.0756 74,97.5C 64.9774,103.455 57.1441,102.122 50.5,93.5C 51.8333,91.5 53.5,89.8333 55.5,88.5C 57.7216,91.2246 60.5549,92.8913 64,93.5C 65.9711,93.5317 67.4711,92.6984 68.5,91C 64.8101,88.4884 60.8101,86.4884 56.5,85C 51.7639,78.3593 52.7639,72.8593 59.5,68.5 Z"/></g>
<g><path style="opacity:0.844" fill="#fefffe" d="M 79.5,68.5 C 82.1194,68.2317 84.6194,68.565 87,69.5C 89.7825,85.2832 91.9492,84.9499 93.5,68.5C 96.1667,68.5 98.8333,68.5 101.5,68.5C 99.4,78.8329 97.2333,89.1662 95,99.5C 92.6236,101.744 89.9569,102.077 87,100.5C 83.8656,89.9636 81.3656,79.2969 79.5,68.5 Z"/></g>
</svg>
