<svg xmlns="http://www.w3.org/2000/svg" xmlns:xlink="http://www.w3.org/1999/xlink" version="1.1" style="" xml:space="preserve" width="60" height="60"><rect id="backgroundrect" width="100%" height="100%" x="0" y="0" fill="none" stroke="none"/>
















<g class="currentLayer" style=""><title>Layer 1</title><g id="svg_1" class="selected" fill="#ffffff" fill-opacity="1">
	<path d="M42.117,43.007c-0.55-0.067-1.046,0.327-1.11,0.876s0.328,1.046,0.876,1.11C52.399,46.231,58,49.567,58,51.5   c0,2.714-10.652,6.5-28,6.5S2,54.214,2,51.5c0-1.933,5.601-5.269,16.117-6.507c0.548-0.064,0.94-0.562,0.876-1.11   c-0.065-0.549-0.561-0.945-1.11-0.876C7.354,44.247,0,47.739,0,51.5C0,55.724,10.305,60,30,60s30-4.276,30-8.5   C60,47.739,52.646,44.247,42.117,43.007z" id="svg_2" fill="#ffffff" fill-opacity="1"/>
	<path d="M29.823,54.757L45.164,32.6c5.754-7.671,4.922-20.28-1.781-26.982C39.761,1.995,34.945,0,29.823,0   s-9.938,1.995-13.56,5.617c-6.703,6.702-7.535,19.311-1.804,26.952L29.823,54.757z M30,12c3.86,0,7,3.141,7,7s-3.14,7-7,7   s-7-3.141-7-7S26.14,12,30,12z" id="svg_3" fill="#ffffff" fill-opacity="1"/>
</g><g id="svg_4" class="selected" fill="#ffffff" fill-opacity="1">
</g><g id="svg_5" class="selected" fill="#ffffff" fill-opacity="1">
</g><g id="svg_6" class="selected" fill="#ffffff" fill-opacity="1">
</g><g id="svg_7" class="selected" fill="#ffffff" fill-opacity="1">
</g><g id="svg_8" class="selected" fill="#ffffff" fill-opacity="1">
</g><g id="svg_9" class="selected" fill="#ffffff" fill-opacity="1">
</g><g id="svg_10" class="selected" fill="#ffffff" fill-opacity="1">
</g><g id="svg_11" class="selected" fill="#ffffff" fill-opacity="1">
</g><g id="svg_12" class="selected" fill="#ffffff" fill-opacity="1">
</g><g id="svg_13" class="selected" fill="#ffffff" fill-opacity="1">
</g><g id="svg_14" class="selected" fill="#ffffff" fill-opacity="1">
</g><g id="svg_15" class="selected" fill="#ffffff" fill-opacity="1">
</g><g id="svg_16" class="selected" fill="#ffffff" fill-opacity="1">
</g><g id="svg_17" class="selected" fill="#ffffff" fill-opacity="1">
</g><g id="svg_18" class="selected" fill="#ffffff" fill-opacity="1">
</g></g></svg>