<svg xmlns:dc="http://purl.org/dc/elements/1.1/" xmlns:cc="http://creativecommons.org/ns#" xmlns:rdf="http://www.w3.org/1999/02/22-rdf-syntax-ns#" xmlns:svg="http://www.w3.org/2000/svg" xmlns="http://www.w3.org/2000/svg" xmlns:sodipodi="http://sodipodi.sourceforge.net/DTD/sodipodi-0.dtd" xmlns:inkscape="http://www.inkscape.org/namespaces/inkscape" sodipodi:docname="Asignar Ean14_2_A_B.svg" inkscape:version="1.0 (4035a4fb49, 2020-05-01)" version="1.1" height="230" width="501"><rect id="backgroundrect" width="100%" height="100%" x="0" y="0" fill="none" stroke="none" class="" style=""/>
  <defs id="defs880"/>
  <sodipodi:namedview inkscape:window-maximized="1" inkscape:window-y="-11" inkscape:window-x="-11" inkscape:window-height="986" inkscape:window-width="1920" showgrid="false" inkscape:document-rotation="0" inkscape:current-layer="layer1" inkscape:document-units="mm" inkscape:cy="622.15886" inkscape:cx="433.53417" inkscape:zoom="2" inkscape:pageshadow="2" inkscape:pageopacity="0.0" borderopacity="1.0" bordercolor="#666666" pagecolor="#ffffff" id="base"/>
  <metadata id="metadata883">
    <rdf:RDF>
      <cc:Work rdf:about="">
        <dc:format>image/svg+xml</dc:format>
        <dc:type rdf:resource="http://purl.org/dc/dcmitype/StillImage"/>
        <dc:title/>
      </cc:Work>
    </rdf:RDF>
  </metadata>
  
<g class="currentLayer" style=""><title>Layer 1</title><g id="layer1" inkscape:groupmode="layer" inkscape:label="Capa 1" class="selected">
    <g id="g2052">
      <path style="fill:#2f5496;fill-opacity:1;stroke-width:0.32;stroke:#2f5496;stroke-opacity:1" d="m99.49255029927073,229.26555737433307 c-1.1954892361495242,-0.28404953996216453 -2.964886603322411,-1.034887297679148 -3.931990404819872,-1.6685540935980059 c-2.0109911264957407,-1.317652022133549 -4.304753296210674,-5.8926272946859575 -4.326612009882093,-8.629558139362176 c-0.013269406063781965,-1.6497031119677121 0.22920055531026817,-1.8535043390679564 2.204416941807067,-1.8535043390679564 c2.0583797561828883,0 2.2775924506114977,0.2182922610238673 3.024830618651814,3.0121130513798904 c1.0020802708776446,3.7466694584821063 3.090661616512687,5.2277036755946344 7.394054272038091,5.243226774434329 c4.033427642285226,0.014743784515313302 6.524996637567466,-0.9782922276896521 7.963113804210846,-3.1731362408364197 c1.2467870749881613,-1.9028538920956404 1.4349493592275204,-6.318132915797897 0.3552325316020973,-8.335609201225443 C111.34341262348073,212.30557142087503 106.82035653497154,210.3739250238757 104.01153499699873,210.3739250238757 C102.22935476865104,210.3739250238757 102.00317247665652,210.1462072720367 102.00317247665652,208.35192029034724 c0,-1.9433550681592069 0.11651802276959032,-2.02200473352868 2.995425193563487,-2.02200473352868 c4.23800607745492,0 6.58017630424349,-2.1032493049728482 6.6823675809740575,-6.000730829007165 C111.78970276824937,196.1822762823667 109.39840625145584,194.19788715564624 104.2924125170351,194.19788715564624 c-3.095291164850496,0 -3.9607239345852863,0.2795884920188169 -5.283532068789334,1.7069216334167123 c-0.8700559993078066,0.9388104790125745 -1.7792230464248782,2.758614739188386 -2.020359748427758,4.044009467057361 C96.58870928260646,202.07999228896549 96.34492291190058,202.28590608976126 94.22161574122218,202.28590608976126 c-2.604335778020148,0 -2.555525426254737,0.12334228874524952 -1.6003030088216892,-4.044009467057361 c0.8715998841720529,-3.8025210204810436 4.054287991119463,-7.197919812885809 7.6560997667386195,-8.167787020852426 c3.0907205916507476,-0.8322445107908207 8.479283168817311,-0.29640483138599705 11.207668937239442,1.1145016278069089 c5.756141975172772,2.9766142307768777 7.032389237877457,10.651752435834624 2.5069341250021258,15.076223156054715 l-2.0735384729195614,2.0272682646006466 l1.7729148129072552,0.8077908910447078 c5.401926764702231,2.4612852618877863 5.843397798189324,12.382082986551792 0.7641682451737576,17.17242282577431 c-3.3357538652755334,3.1460076773282433 -9.299071287947621,4.338927282462241 -14.963009847271485,2.99324100720029 zM163.33731606035974,229.52477416866134 c-5.6651980997724545,-2.074892794840039 -8.104154953139263,-4.355440321119391 -9.128104468962981,-8.535324293760016 c-0.4273296378819795,-1.7444213962039457 -0.32083738858280214,-1.8533990263214182 1.8095194173489157,-1.8516929598275045 c1.925447688737893,0.0013480031556857874 2.4649311891729297,0.3791048249873202 3.611576373478152,2.52750591691085 c1.8882954580142346,3.538023845041117 5.837708803621343,4.937861934572883 9.919550821744998,3.5159081682681452 c3.7801778681755525,-1.316851645259861 5.919486257562995,-4.479119610653563 5.919486257562995,-8.750014858852287 c0,-7.45052086047681 -8.103499907855799,-11.18693496370105 -14.347768569486906,-6.615561387080241 c-1.288231853260707,0.9431009203065306 -2.8699787561424097,1.5000368490978362 -3.9050977418639405,1.3749674313093638 c-1.9427547855039407,-0.23474211203309522 -1.9513483056214376,0.9167895837114882 0.10166892550773897,-13.622667140768867 c1.1540929017403863,-8.17332015255553 0.015375660994541013,-7.414017356271825 11.119604312329475,-7.414017356271825 H178.16535077290348 v2.3382589113821504 v2.3382610176370813 l-8.23590119905824,0.18924700552870002 l-8.23590119905824,0.18924700552870002 l-0.7754388153082491,5.0550118338217 c-0.4264892421646064,2.7802565086019353 -0.7098121241756589,5.134819939403091 -0.6296059364123546,5.232362711501472 c0.08020618776330429,0.09754066584345142 1.244213231462774,-0.28158522169317646 2.5866769366806652,-0.842501972303617 c5.299607006420885,-2.214318446236565 12.694179417171945,-0.2289456984636464 15.70362384355456,4.216284270354004 c4.004816275305795,5.915469629410038 1.6245375780550029,16.219795314415958 -4.47539785819091,19.374185886368615 c-2.082376318609026,1.0768438958998676 -9.057153165365431,1.9064345254779314 -10.766090484750878,1.2805398102535746 zm31.26066498145788,-0.48534432369480623 c-3.121549845072269,-1.1944150461348377 -5.290293147117071,-3.204898565192264 -7.081302796134474,-6.564564742696705 c-1.4488548542803912,-2.71780604990493 -1.5957598169360425,-3.799283706652466 -1.5522319525369759,-11.426938500551183 c0.04022946917749775,-7.055212616307163 0.2937088250746257,-9.052481491929006 1.5588371679998367,-12.284245338763103 c2.6851949048119876,-6.85929931392261 8.106768815508337,-10.052194332264477 15.249892300115517,-8.981022580893145 c4.531757027628161,0.679581047154475 8.418252325943637,4.569547453595841 8.418252325943637,8.425767443536584 c0,1.1294918441491206 -0.43028681980476535,1.3814736527904794 -2.359005522450127,1.3814736527904794 c-1.6070767246790099,0 -2.359005522450127,-0.31027662635997627 -2.359005522450127,-0.9734204600348063 c0,-0.5353784095749876 -0.7319930948514825,-1.8244064271995204 -1.6266480454956231,-2.8645067058322957 C203.5249023585594,194.21521531496163 202.66692573127952,193.86088636672494 200.26761491447428,193.86088636672494 c-1.7167431001588414,0 -3.733686503088908,0.5118494357434783 -4.818936462417437,1.222935844152246 c-2.1609564775657852,1.4159088146534589 -4.3615316103791475,6.106877652497695 -4.939696482617573,10.529954031953622 L190.10701374717863,208.68892107926854 L191.71870106390102,207.25664034503842 c2.652027708417325,-2.3568086985573453 4.731173031962569,-3.1412980913030655 8.32541492736057,-3.1412980913030655 c4.310233771540508,0 8.512458790231696,2.074852775996354 10.405383796583738,5.137684446108924 c2.8568610004336428,4.622483958770607 1.5313737099576687,13.873113489565704 -2.5117405987541193,17.529529924264782 c-3.083643575083398,2.7887025908742795 -9.231542648612555,3.828834463331017 -13.339778147273552,2.2568732208576208 zm8.37752999311234,-4.075308415328439 c2.6856266870727934,-1.49028067625856 4.162606363443609,-4.4754968521726575 4.167465493568868,-8.423081968499867 c0.004001884368442183,-3.2050038779388044 -0.25033050477564295,-3.8606810378840937 -2.2871632730168665,-5.897513806125316 c-1.8698214960165473,-1.8698214960165473 -2.8063867072729316,-2.291605364665838 -5.088482330926391,-2.291605364665838 c-5.2903057846466535,0 -8.79723077563511,3.2789123634591384 -8.794905470191553,8.22305093772568 c0.00337000788921447,6.4738062177302975 6.841575178680272,11.253362031707328 12.003085580565942,8.38915020156534 zm94.0599173887422,4.3532076908927895 c-4.822923603001363,-1.2403945912733076 -8.955121964009603,-6.299471497111371 -8.993013490213956,-11.010237025049815 c-0.023379429731425382,-2.9090961227164653 1.97891075764535,-7.139319588202231 4.203284464921358,-8.880166669788679 l2.0399079004401313,-1.5964675185927772 l-2.2624337338748246,-2.0214781697959903 c-2.037569957466989,-1.8205856807551242 -2.2616544195504438,-2.380763135884868 -2.254809091025477,-5.636782614501586 C289.7822868190117,193.55414824864872 294.0190396747829,189.81687689966742 301.5076395181528,189.81687689966742 c5.125255435762515,0 8.213678103283804,1.4732600301630965 10.673299423776289,5.0914542566336936 c2.286887353620938,3.364091419113964 1.7852406167620565,8.243308897649722 -1.113829732483997,10.833619124085944 l-2.071733412443901,1.85109899593703 l2.571737270456791,2.57173937671172 c5.244743277984475,5.244749596749268 3.8372805456033596,14.717820710781822 -2.688065730282612,18.092209610252265 c-2.3559514528005265,1.2183210395989525 -8.938061299070453,1.8075879815774103 -11.843618913503244,1.0603308572427166 zm8.112788492100446,-4.381178756373267 c2.9315066751797407,-1.2248504298843057 4.4474415364949484,-3.471950627863203 4.4474415364949484,-6.5924515579799525 c0,-5.0949464273088925 -2.9175000798901944,-7.969773782301905 -8.088018934114718,-7.969773782301905 c-5.026092953622378,0 -8.091009816116397,2.8862853818163448 -8.085491428197807,7.614237949989781 c0.006318764792277126,5.838370167669603 5.9514971200006705,9.360765601124484 11.726068825817585,6.947987390292082 zm1.7177351462312291,-20.993036576110573 c2.3667144154967055,-2.3224809556958346 2.2733230718668493,-6.0148764371221395 -0.20599173222823455,-8.147566973517138 c-2.550084969768588,-2.193489691226289 -8.063059813185225,-2.2640113188179636 -10.332317813035708,-0.1321674969051299 c-3.1909340950013325,2.9977378614774604 -1.506056525689945,9.092314985179522 2.8210757291600457,10.204411269855504 c2.4313343167723924,0.6248668628181465 6.035115440751806,-0.27390160370576744 7.717318066301127,-1.924672586923374 zm20.012833975198724,25.283835933404973 c-3.3755262771330563,-1.0115289304970303 -6.499102339448713,-4.8735790340861165 -6.499102339448713,-8.035531061240203 c0,-1.1197483088394304 0.43096082138260794,-1.381471546535548 2.2747553252197648,-1.381471546535548 c1.9809538249281862,0 2.326232195727516,0.25740541508806264 2.673343008316607,1.9929805405828203 c0.2602067341459723,1.3010126081805533 1.096895442840694,2.3540768859121513 2.4097873288307268,3.0330071002930206 c6.031071431284747,3.1187948636228358 11.418681981222607,-0.9923409480778153 12.806619730395584,-9.772412064792032 c0.5707529611370855,-3.610647515053688 0.2345946741879422,-4.053361238949931 -1.5665060422027302,-2.0631609548757113 c-1.6933657766823478,1.8711336928384106 -6.518416697163775,2.9120238170702213 -9.937605639011462,2.1437673310758596 c-3.803096028077141,-0.8544865628596354 -6.002868677761884,-2.5798674144895206 -7.817891739244871,-6.13197789250755 c-1.9866828383398514,-3.888037076924792 -1.9542886375047777,-8.116798801488613 0.09604522484261242,-12.519882609141774 c2.178015036250002,-4.67751618760148 5.392117935489685,-6.6509991262902615 10.854963911554256,-6.665012040344604 c5.8933012962637985,-0.015165035501465111 8.894609259848895,1.7510771617851444 11.459627577076562,6.743735424636654 c1.918503366231181,3.7342720419596573 2.0189296013297726,4.3348495729162915 1.9618922178048175,11.733828268982498 c-0.06424077538815087,8.332011717803708 -1.3499409102220854,13.304100295001422 -4.463912450053483,17.262869625010964 c-2.820738728371125,3.585983269814498 -9.108878573955012,5.200511924438534 -14.25193186388244,3.659259878855605 zm8.519085068243866,-18.422990628363184 c3.156728514925806,-1.3361154528565828 4.641785678956082,-3.3417419480436803 5.030958402512433,-6.794529868546837 c0.6674300624589252,-5.921312380587962 -2.4482475438663878,-9.811542068895674 -7.858036958225138,-9.811542068895674 c-3.7280922899928117,0 -5.912152277894093,1.3477272362898578 -7.207288434817826,4.447445749004809 c-2.0005209332349376,4.787913433542284 -0.47801455653576497,10.44248968969892 3.247465977342906,12.061138178967521 c2.8104602043090194,1.2210907648329008 4.0888305719839115,1.2394573078291193 6.786901013187626,0.09747747819552854 zm24.474071481490142,18.45176207071735 c-1.0773704596325575,-0.3429404278261875 -2.986227178280862,-1.6193098533168593 -4.241934242900785,-2.836367139957355 c-6.89651051978433,-6.684368523158279 -6.410808132751295,-28.444147187967996 0.760821406088782,-34.085350831569244 c6.1972549453216335,-4.874762749357201 15.002727496500805,-2.96327531830038 18.463156909892756,4.007971445192072 c4.820353971985835,9.710959970932207 2.4366631417472133,27.416484344701352 -4.247220942776992,31.547355765103216 c-2.610745111774448,1.6135387148065794 -7.85951133667667,2.2816217162940404 -10.734823130303761,1.366390761231313 zm8.179325085363123,-5.14128403578559 c2.852795928417277,-1.7984257726286081 3.814912118238699,-4.7901924013773645 4.097887468186175,-12.742652768148432 c0.298477386237864,-8.388240299435251 -0.43159269786183546,-12.090261365895127 -2.9819936058700365,-15.121246461454616 c-1.4851203516782003,-1.764974231818293 -2.1827119847455956,-2.052650742771224 -4.977375277073922,-2.052650742771224 c-2.7777079401357163,0 -3.495414307791861,0.2914382822592673 -4.937166870445733,2.0048850934514713 c-2.6840217208155557,3.189767229769692 -3.476057824978184,6.447309530701348 -3.4455803161301026,14.171152774777967 c0.02401130621065311,6.107107234285149 0.2540354071988482,7.538876148567221 1.6778426778426527,10.447024456564844 c2.350875378417398,4.801797866045847 6.247257437377854,6.01628552167082 10.56638592349096,3.2934876475799904 zm85.35252681092369,5.202891992510291 c-8.829757670530823,-2.2708798161471693 -11.927805923085685,-13.979213975447758 -5.172351296014287,-19.547640192426492 l2.295438748639819,-1.8920846106346696 l-2.475607795416948,-2.475593051632433 c-2.3089819678445993,-2.308988286609392 -2.454460995912127,-2.6954671101092993 -2.1616494354380054,-5.742744087558215 c0.6158057541060213,-6.4088451031558265 4.733344580796178,-9.782079774924217 11.986380872710093,-9.819676425438267 c5.125150123015977,-0.02655987467687154 8.200808885656867,1.433702456308511 10.675847992242508,5.068740403460387 c2.2935220566528276,3.368423985506537 1.699263290488473,8.273396749335614 -1.3338491225510865,11.009445073195849 c-2.069058468681838,1.866419894303371 -2.104738427208895,1.983506605904266 -0.8636066467098229,2.8335300145656235 c2.406059257603284,1.6478538201385051 3.6096575752362305,3.154097802517288 4.376123744539446,5.476538739369437 c1.5898012217369253,4.817131401941773 -0.8239669289129368,11.265093871671656 -5.166453782208161,13.801235433798619 c-2.377077189756039,1.3882958125112075 -9.030589078178698,2.0931540250897203 -12.160273279793559,1.2882487033001528 zm9.24348932657982,-4.817889653716847 c4.563117057292233,-2.4420972794685705 4.552627907737055,-10.286527830841006 -0.016850039446072346,-12.986072650496256 c-3.967320725028424,-2.3435456112583566 -10.47093045002896,-0.8878580659825819 -12.110544600878336,2.7106658456896575 c-1.1861164017076473,2.6032468442209447 -0.8798037471273593,6.563511615231325 0.658983980186582,8.519738007272398 c2.2587477877459965,2.8715415973010323 7.7991460703611155,3.7196672702697753 11.468895098771904,1.7556687975341996 zM463.09951780598664,204.13584453923136 c2.266730493933573,-2.1088961744422137 2.1284127326306272,-6.662781516372927 -0.25940635727228367,-8.541034350877306 c-2.597538893358588,-2.043229464465939 -8.244808551160421,-1.9593162680244984 -10.22826881945621,0.15198735580357253 c-2.386997650479914,2.540844829387347 -2.5642390029032884,5.269224279044688 -0.5015624866616508,7.720580655188877 c0.9722472760383742,1.1554472236608642 2.439801461594044,2.2398631060368115 3.2612198220407627,2.4098062851251045 c2.5739067130354725,0.5325012653395705 6.150138022520554,-0.2733160648350167 7.728017841349383,-1.7413315202205226 zM60.21883431544853,227.39246486440888 c0.006950641271504844,-2.203037344827419 1.453343283537839,-6.563343114836865 2.9179718809946844,-8.79700540635752 c0.894448537660927,-1.3640949433567862 4.397778151482579,-4.058016062346908 9.051085044909913,-6.9599509182987935 c7.824753917809284,-4.879725085974072 9.59762028685313,-6.819461608162235 9.592712712864461,-10.495634714111834 c-0.00337000788921447,-2.7577785559808756 -2.321160333854248,-6.159268637645397 -4.5260827768446985,-6.643195451771801 c-1.03092543215439,-0.22625601091706707 -2.230911522581084,-0.5194993536519948 -2.6666324801072094,-0.6516373629880937 c-1.5922065648678512,-0.4828757929159571 -5.584197853900254,1.1174124721212175 -6.872248569236916,2.7549077305102503 c-0.7275236218884118,0.9248986651949107 -1.5262281291618243,2.8859062559288096 -1.7749010113069614,4.357797220386911 C65.51706804365446,203.46541516975103 65.34380330054036,203.6339092454468 63.18883911825269,203.6339092454468 c-2.6027813618812483,0 -2.725032610572365,-0.41018472274560086 -1.533088201471307,-5.143824179232088 c1.7747956985604232,-7.04835254399768 9.791412590522409,-10.824492721470966 17.499294634733733,-8.242845521564956 c7.841785095179403,2.626504111166387 10.379070353733766,12.946007469203357 4.603186451094995,18.721885053077337 c-1.119798858957768,1.1198051777225602 -4.866788468189349,3.7020084289302915 -8.326628130200687,5.7382303832415955 C69.30496322989639,218.3130738594845 65.60708727314025,221.6419676524507 65.60708727314025,223.55156156032456 c0,0.7588836515524832 2.053661745137989,0.9782711651403441 10.557318496014044,1.1277942026749284 l10.557310070994319,0.18556105939987172 l0.0804589383549955,1.8535043390679564 l0.0804589383549955,1.8535043390679564 h-13.333787958250474 c-12.250941235797939,0 -13.333480445030583,-0.09583459934953645 -13.330026186944137,-1.1795027612250635 zM139.7472608358585,223.8539565807335 V219.13594553583334 h-8.762020511957612 h-8.762020511957612 l0.03862871543012086,-2.52750591691085 c0.03289970201845626,-2.152613601785048 1.3575676593263641,-4.326942691906223 8.931167526682078,-14.65953431808293 c8.065528343964074,-11.00370974101939 9.096224194331011,-12.151669228401405 11.082426806546652,-12.34323311435394 L144.46527188075876,189.39446747330402 V202.2432017710398 V215.0919360687761 h2.6960063113715744 c2.5462305232452986,0 2.6960063113715744,0.11226338780945702 2.6960063113715744,2.02200473352868 c0,1.9096781580713005 -0.14977578812627554,2.02200473352868 -2.6960063113715744,2.02200473352868 h-2.6960063113715744 v4.718011044900254 v4.718011044900254 H142.1062663583087 H139.7472608358585 zm0,-17.524041023915224 c0,-4.819111281576687 -0.2323346626472377,-8.762020511957612 -0.5162978461572413,-8.762020511957612 c-0.2839716085297263,0 -1.4923953562090424,1.440678372639185 -2.6853907865205486,3.2015074947537436 c-1.1929975365664367,1.760829122114559 -3.842019619197568,5.574066767683304 -5.8867171433502445,8.473857456115674 c-2.044691205387886,2.8997927946873028 -3.717624202986939,5.402023652429044 -3.717624202986939,5.560519335968661 c0,0.15839037079308 2.8813567452783695,0.28815673707714456 6.403014989507486,0.28815673707714456 h6.403014989507486 zm83.22493551771608,19.714546151904628 c1.3580710542548158,-7.260555622016721 6.537541491935067,-18.58257313944707 11.877445367691234,-25.963376961715763 c1.8160130013004459,-2.5101103574377115 3.3018494796551043,-4.709040505150149 3.3018494796551043,-4.8865114393609765 c0,-0.17747304046575696 -4.852811360468833,-0.3226845741570779 -10.784025245486294,-0.3226845741570779 h-10.784025245486294 v-2.359005522450127 v-2.359005522450127 h13.480031556857863 h13.480031556857863 v2.2037618965236003 c0,1.5660700474320637 -0.8783083061265207,3.3701300520004516 -3.035260793068932,6.234514595046761 c-5.6654045127556705,7.523576312750189 -12.466775497317611,22.979022244068343 -12.466775497317611,28.329604832323458 c0,1.4833510975363626 -0.28017403088956794,1.6502086131510942 -2.771010049455903,1.6502086131510942 h-2.7710311120052107 zM394.5198572604721,214.75493527985452 v-13.817032345779314 h-4.381010255978805 c-4.214784616843302,0 -4.381010255978805,-0.06341933596515481 -4.381010255978805,-1.6721642145493267 c0,-1.2753584231239077 0.43984921719041087,-1.7695448050180396 1.8535043390679564,-2.082536393983765 c4.9384516859534955,-1.0933990596556338 6.1362578025268535,-1.7539416684909772 7.183866879987784,-3.9616064554012747 c0.5899620061056079,-1.2432359291749016 1.0726524485876576,-2.6138729003466246 1.0726524485876576,-3.045846830350928 c0,-0.45917621243505585 0.7698783022910457,-0.6968228500176686 1.8535043390679564,-0.5721388768815245 l1.8535043390679564,0.21326673675907606 l0.17882104362144283,19.37754536298318 l0.17882104362144283,19.37754536298318 h-2.7063269605322917 h-2.706348023081601 zm19.185307475452802,10.615524851025569 c0.2564786629185289,-1.760829122114559 1.1877382180043319,-4.446388409029568 2.0694375945693744,-5.967883783361977 c1.5350385935371897,-2.648910451119802 2.9237135319359333,-3.7050287985009995 13.457642066943897,-10.234798209741566 c3.7078090550096015,-2.298398036817536 5.727707533607525,-5.090464316816236 5.727707533607525,-7.9173132907414905 c0,-2.3923496442589727 -2.363660345847105,-6.182260516469562 -4.223946825792105,-6.772685898659937 c-2.584290549844113,-0.8202177951361864 -6.4670662019518685,-0.4958692795838093 -8.279414319672794,0.6916267191034849 c-1.8407404341875575,1.2061005484906888 -3.672676722764541,4.74502587064217 -3.672676722764541,7.094852334104049 c0,1.115984431278163 -0.4369004602873484,1.369651243864128 -2.359005522450127,1.369651243864128 c-2.0269965577145785,0 -2.359005522450127,-0.22298710326452903 -2.359005522450127,-1.5844302716634897 c0,-2.1853679722132813 1.2906287713719107,-5.788494050909227 2.90092385358512,-8.098634458965744 c3.6518037364007183,-5.238932120630511 14.385721177084253,-5.92255296474218 19.55396527598356,-1.2453442903605914 c3.673729850229921,3.324687601869323 4.540685442279649,10.449638318933916 1.7517090382643734,14.396153457756304 c-2.156552298505568,3.0515905875471074 -3.399032082160327,4.017127335376083 -9.853966255711024,7.657662607897241 c-5.479843453355798,3.090592110099973 -9.634620867221777,6.8772804122665 -9.634620867221777,8.78110318163029 c0,0.8249147436317794 1.7203890274439857,0.9875386868356838 10.447024456564844,0.9875386868356838 h10.447024456564844 v2.02200473352868 v2.02200473352868 h-13.219551009570894 h-13.219572072120203 zM8.990954734337262,214.0809337020116 V200.2639013562325 H4.6885176866739835 C0.6937699418136527,200.2639013562325 0.3641768514836012,200.14932108799925 0.07979896744030396,198.6616921866985 C-0.19732735468947227,197.2120011492105 0.10729957981946836,196.98478889855485 3.2799683373739756,196.2747766801609 C6.890470520837483,195.4667835886429 9.156410747921008,193.67893964078635 9.969910432330122,190.99637966089276 C10.310580317340897,189.87300016855252 10.942186564060954,189.47987611074612 12.4063823261296,189.47987611074612 H14.382967357080318 v19.209044968522456 v19.209044968522456 H11.686961045708719 H8.990954734337262 zM30.559005225309836,102.5336725690129 V0.08543273689315356 h2.359005522450127 h2.359005522450127 v102.44823983211978 v102.44823983211978 h-2.359005522450127 h-2.359005522450127 zm10.110023667643398,0 V0.08543273689315356 h2.359005522450127 h2.359005522450127 v102.44823983211978 v102.44823983211978 h-2.359005522450127 h-2.359005522450127 zm217.70250964325453,0 V0.08543273689315356 h2.359005522450127 h2.359005522450127 v102.44823983211978 v102.44823983211978 h-2.359005522450127 h-2.359005522450127 zm10.110023667643398,0 V0.08543273689315356 h2.359005522450127 h2.359005522450127 v102.44823983211978 v102.44823983211978 h-2.359005522450127 h-2.359005522450127 zm218.37651122109742,0 V0.08543273689315356 h2.359005522450127 h2.359005522450127 V102.5336725690129 V204.98191240113263 H489.21707894739876 H486.85807342494843 zm9.945820033241423,0.00002106254930759045 L496.97669061270955,0.08543273689315356 h2.017707973469932 h2.017707973469932 v102.44823983211978 v102.44823983211978 l-2.190505127989404,0.00002106254930759045 l-2.190505127989404,0.000018956294376831406 zM85.15208200937371,90.90714535122292 L85.15313303058416,0.08543273689315356 h9.773022878721953 h9.773022878721953 v90.61858117629761 v90.61858328255254 l-9.7740738999324,0.20312722552240228 l-9.774067581167609,0.20312722552240228 l0.0013480031556857874,-90.82171261432985 zM110.09119141077124,90.9403062288528 V0.08543273689315356 h2.359005522450127 h2.359005522450127 v90.57947012848834 v90.57947644725313 l-2.359005522450127,0.27539704470660625 l-2.359005522450127,0.2754033634713987 zm34.374080469987554,0 V0.08543273689315356 h2.359005522450127 h2.359005522450127 v90.57947012848834 v90.57947644725313 l-2.359005522450127,0.27539704470660625 l-2.359005522450127,0.2754033634713987 zm35.04808204783045,-0.042735912545100986 V-0.0000016600469905370119 L181.6367621995044,0.2112024633835219 L183.76016415165475,0.42243352581474625 l0.06712634464329076,90.43065689886542 l0.06712634464329076,90.43065689886542 l-2.190505127989404,0.25571619863359374 l-2.190505127989404,0.25571619863359374 V90.89760191013175 zm99.0782319429053,0.061334143583703364 V0.08543273689315356 h2.02200473352868 h2.02200473352868 v90.57671304078399 v90.57671304078399 l-2.02200473352868,0.29676921348901836 l-2.02200473352868,0.2967628947242261 V90.95891499116597 zm41.788097826259374,90.60593732794825 l-7.0770165673503795,-0.21471584015143835 l0.12763904880399798,-6.550655035133973 c0.07013828919427613,-3.602862796829602 0.14596346670160174,-44.38741861128939 0.1685003944607234,-90.6323518710349 L313.6396679193249,0.08543273689315356 h7.0770165673503795 h7.0770165673503795 v90.99021300879058 c0,50.04461715483483 -0.07582517750732556,90.92579952049812 -0.1685003944607234,90.84706771118634 c-0.09267521695339793,-0.078731809311773 -3.3531578497683947,-0.23976763629788642 -7.245516961811102,-0.3578611377556846 zm14.996535107004377,0.013480031556857886 l-2.190505127989404,-0.2718100925595238 V90.69594063804108 V0.08543273689315356 h2.359005522450127 h2.359005522450127 v90.99021300879058 c0,50.04461715483483 -0.07582517750732556,90.94167225765632 -0.1685003944607234,90.88234537502163 c-0.09267521695339793,-0.05931213885017464 -1.1542277020559553,-0.23019049512772496 -2.359005522450127,-0.3797051076425865 zM348.01231613595957,90.90714535122292 L348.0137483893125,0.08543273689315356 h7.0770165673503795 h7.0770165673503795 v90.60984653709973 v90.60984653709973 l-7.078448820703296,0.21186607723012132 l-7.078427758153989,0.21186607723012132 l0.0013480031556857874,-90.82171261432985 zM422.3224223464915,181.5654062641612 L417.43591090713045,181.3328020008829 V90.70911736888789 V0.08543273689315356 h5.0550118338217 h5.0550118338217 v90.99021300879058 c0,50.04461715483483 -0.07582517750732556,90.92995094896662 -0.1685003944607234,90.85628889527321 c-0.09267521695339793,-0.07365573492864377 -2.367430542173163,-0.23859023979159216 -5.0550118338217,-0.36652837679575817 zm46.843109660081076,0.017692541418375948 l-1.8535043390679564,-0.2808101198786572 V90.69387861446396 V0.08543273689315356 h2.02200473352868 h2.02200473352868 v90.99021300879058 c0,50.04461715483483 -0.07582517750732556,90.94477266491441 -0.1685003944607234,90.88922650988042 c-0.09267521695339793,-0.05554194252411602 -1.0025773470413037,-0.22734073220640805 -2.02200473352868,-0.3817671312197996 zM55.995904810787934,145.16440716789148 C56.08491935667162,125.2391618039883 56.160744534179074,84.44515522365438 56.16440520524873,54.51106014770667 L56.17106518333971,0.08543273689315356 h2.02200473352868 h2.02200473352868 v90.65321221986913 v90.65321221986913 l-2.190505127989404,0.00013480031556857886 l-2.190505127989404,0.00012848155077630177 zM70.33690598318232,90.73864495676241 L70.30251926518284,0.08543273689315356 H75.03181983651197 H79.76112040784095 V90.73864495676241 V181.3918571766314 H75.06620655451144 H70.37129480743694 L70.33692072696675,90.73864495676241 zM124.91922612331486,90.71584264088193 V0.03982749431842336 L132.10851029098455,0.23113049953516196 L139.29779656490922,0.42243352581474625 l0.05621594410195886,90.48470550664364 l0.05621594410195886,90.48470550664364 l-7.245516961811102,0.000006318764792277133 L124.91922612331486,181.3918571766314 zM154.5752955484021,90.73864495676241 V0.08543273689315356 h4.718011044900254 h4.718011044900254 v90.65321221986913 v90.65321221986913 h-4.718011044900254 h-4.718011044900254 zm49.87611676037409,0 V0.08543273689315356 h2.359005522450127 h2.359005522450127 v90.65321221986913 v90.65321221986913 h-2.359005522450127 h-2.359005522450127 zm9.436022089800506,0 V0.08543273689315356 h2.359005522450127 h2.359005522450127 v90.65321221986913 v90.65321221986913 h-2.359005522450127 h-2.359005522450127 zm15.502036290386545,0 V0.08543273689315356 h2.02200473352868 h2.02200473352868 v90.65321221986913 v90.65321221986913 h-2.02200473352868 h-2.02200473352868 zm19.5460457574439,0 V0.08543273689315356 h2.359005522450127 h2.359005522450127 v90.65321221986913 v90.65321221986913 h-2.359005522450127 h-2.359005522450127 zm44.48410413763096,0 V0.08543273689315356 h2.0171603471879345 h2.0171603471879345 l0.17334478080146926,90.65323960118323 l0.17334478080146926,90.65323960118323 l-2.190505127989404,-0.000027381314099867587 l-2.190505127989404,-0.000027381314099867587 zm79.36853017734143,0.000027381314099867587 L372.96149554218107,0.08543273689315356 h2.354161136109382 h2.354161136109382 v90.65321221986913 v90.65321221986913 l-2.52750591691085,0.000027381314099867587 l-2.52750591691085,0.000027381314099867587 zM382.38782885930004,90.73864495676241 V0.08543273689315356 h5.0550118338217 h5.0550118338217 v90.65321221986913 v90.65321221986913 h-5.0550118338217 h-5.0550118338217 zm20.220047335286797,0 V0.08543273689315356 h5.059582407021447 h5.0595613444721375 l-0.014743784515313302,90.65321221986913 l-0.014743784515313302,90.65321221986913 h-5.045596874281206 h-5.045596874281206 V90.73864495676241 zm29.656069425087303,0 V0.08543273689315356 h5.0550118338217 h5.0550118338217 v90.65321221986913 v90.65321221986913 h-5.0550118338217 h-5.0550118338217 zm19.5460457574439,0 V0.08543273689315356 h2.359005522450127 h2.359005522450127 v90.65321221986913 v90.65321221986913 h-2.359005522450127 h-2.359005522450127 z" id="path2054" stroke-width="0"/>
    </g>
  </g></g></svg>