<?xml version="1.0" encoding="iso-8859-1"?>
<!-- Generator: Adobe Illustrator 16.0.0, SVG Export Plug-In . SVG Version: 6.00 Build 0)  -->
<!DOCTYPE svg PUBLIC "-//W3C//DTD SVG 1.1//EN" "http://www.w3.org/Graphics/SVG/1.1/DTD/svg11.dtd">
<svg version="1.1" id="Capa_1" xmlns="http://www.w3.org/2000/svg" xmlns:xlink="http://www.w3.org/1999/xlink" x="0px" y="0px"
	 width="441.104px" height="441.105px" viewBox="0 0 441.104 441.105" style="enable-background:new 0 0 441.104 441.105;"
	 xml:space="preserve">
<g>
	<path d="M309.379,46.08H131.725C59.092,46.08,0,105.172,0,177.806c0,72.633,59.092,131.726,131.725,131.726h62.956v70.157
		c0,6.227,3.717,11.787,9.469,14.17c1.87,0.771,3.847,1.166,5.862,1.166c4.099,0,7.937-1.582,10.808-4.457l81.601-81.036h6.959
		c72.634,0,131.725-59.092,131.725-131.726C441.104,105.172,382.013,46.08,309.379,46.08z M301.548,237.312H139.556
		c-11.028,0-20-8.973-20-20c0-11.027,8.972-20,20-20h161.992c11.028,0,20,8.973,20,20
		C321.548,228.339,312.576,237.312,301.548,237.312z M301.548,157.65H139.556c-11.028,0-20-8.973-20-20c0-11.029,8.972-20,20-20
		h161.992c11.028,0,20,8.971,20,20C321.548,148.677,312.576,157.65,301.548,157.65z"/>
</g>
<g>
</g>
<g>
</g>
<g>
</g>
<g>
</g>
<g>
</g>
<g>
</g>
<g>
</g>
<g>
</g>
<g>
</g>
<g>
</g>
<g>
</g>
<g>
</g>
<g>
</g>
<g>
</g>
<g>
</g>
</svg>
