<svg xmlns:dc="http://purl.org/dc/elements/1.1/" xmlns:cc="http://creativecommons.org/ns#" xmlns:rdf="http://www.w3.org/1999/02/22-rdf-syntax-ns#" xmlns:svg="http://www.w3.org/2000/svg" xmlns="http://www.w3.org/2000/svg" xmlns:sodipodi="http://sodipodi.sourceforge.net/DTD/sodipodi-0.dtd" xmlns:inkscape="http://www.inkscape.org/namespaces/inkscape" inkscape:version="1.0 (4035a4fb49, 2020-05-01)" sodipodi:docname="Buscar_descripcion.svg" height="683" width="683" version="1.1" style=""><rect id="backgroundrect" width="100%" height="100%" x="0" y="0" fill="none" stroke="none"/>
  <metadata id="metadata16">
    <rdf:RDF>
      <cc:Work rdf:about="">
        <dc:format>image/svg+xml</dc:format>
        <dc:type rdf:resource="http://purl.org/dc/dcmitype/StillImage"/>
        <dc:title/>
      </cc:Work>
    </rdf:RDF>
  </metadata>
  <defs id="defs14"/>
  <sodipodi:namedview inkscape:current-layer="g18" inkscape:window-maximized="1" inkscape:window-y="-11" inkscape:window-x="-11" inkscape:cy="661.65827" inkscape:cx="646.11045" inkscape:zoom="1" showgrid="false" id="namedview12" inkscape:window-height="986" inkscape:window-width="1920" inkscape:pageshadow="2" inkscape:pageopacity="0" guidetolerance="10" gridtolerance="10" objecttolerance="10" borderopacity="1" bordercolor="#666666" pagecolor="#ffffff" inkscape:document-rotation="0"/>
  
<g class="currentLayer" style=""><title>Layer 1</title><g id="g18" inkscape:label="Image" inkscape:groupmode="layer" class="">
    <g id="g22">
      <path sodipodi:nodetypes="ssssscccssssssssssssscccssssssssssssssssssss" id="path24" d="m38.52780020236969,682.0526921972656 c-3.8795200000000003,-1.80768 -37.04248,-35.38852 -37.97759,-38.45613 c-1.96741,-6.45409 -5.2293,-2.9684 119.23687,-127.41817 C235.85848020236972,400.1222821972656 238.6337902023697,397.4335021972656 242.3534502023697,397.4335021972656 c4.60357,0 7.06804,1.18034 11.70307,5.60511 l3.52872,3.36864 l11.83594,-11.86685 l11.83593,-11.86685 l-2.86465,-3.20032 c-5.47082,-6.1118500000000004 -16.9167,-21.9277 -21.86323,-30.21046 C215.84598020236967,281.1402321972656 212.33700020236972,199.43349219726565 247.0240102023697,127.93350219726562 c22.16427,-45.68701 61.1449,-84.18954 107.27239,-105.95672 c22.26819,-10.50817 41.95959,-16.39133 69.2314,-20.68412 c12.22064,-1.9236300000000002 49.51491,-1.6454400000000002 62.95808,0.46961 c76.65937,12.06103 139.31374,57.3466 173.33887000000001,125.28652 c16.25185,32.45101 23.51595,63.94891 23.61215,102.38471 c0.056000000000000015,22.42341 -0.8031,31.11587 -4.948,50.06134 c-12.66045,57.86782 -47.75782,109.17501 -97.05577,141.88125 c-34.41874,22.83478 -69.93822,34.84695 -113.03255,38.22597 c-38.30429,3.00344 -81.1426,-5.5517400000000015 -116.87278,-23.340510000000002 c-17.42569,-8.67562 -29.69359,-16.56493 -44.02322,-28.31069 l-6.84946,-5.61439 l-11.80054,11.76979 l-11.80053,11.7698 l3.36864,3.52872 c4.42498,4.63526 5.60511,7.0995 5.60511,11.70413 c0,3.7211 -2.67707,6.48425 -118.77232,122.59167 C38.349180202369666,692.6203921972656 46.037420202369674,685.5518321972656 38.52780020236969,682.0526921972656 zM486.93705020236973,398.4881421972656 C552.0457902023697,384.90750219726567 603.2221402023697,336.61019219726563 619.9760802023696,272.9335021972656 c6.43998,-24.4764 6.8607200000000015,-55.83149 1.10033,-82 c-5.5436,-25.18366 -20.59425,-54.19627 -38.88424,-74.95577 C562.7440802023697,93.90376219726562 534.8915102023697,75.59323219726565 507.0278002023697,66.56400219726561 c-18.73928,-6.07246 -31.98991,-8.09088 -53.26077,-8.11304 c-29.00267,-0.030200000000000008 -49.98452,4.71809 -75.23923,17.02701 c-41.46842,20.21136 -73.83514,57.14417 -88.01509,100.43171 c-6.61067,20.18059 -7.9622,29.37054 -7.94506,54.02382 c0.011800000000000007,16.90706 0.41721,23.96773 1.75148,30.5 c5.58297,27.33294 15.697140000000001,50.41676 31.54677,72 c8.65713,11.78885 28.09488,30.45535 40.41527,38.81166 c21.61978,14.663640000000001 45.87062,24.51135 69.24663,28.11947 c3.85,0.59426 8.125,1.2692700000000001 9.5,1.50003 c1.375,0.23077 11.275,0.2789700000000001 22,0.10713000000000003 c15.22616,-0.24397000000000005 21.78141,-0.78831 29.90925,-2.48365 z" style="fill:#2f5496;fill-opacity:1"/>
    </g>
    <g id="g2034">
      <path sodipodi:nodetypes="cc" style="fill:#8c8c8c;fill-opacity:1;stroke-width:0.581818" d="m352.2968328574219,281.6196587304687 c-449.960049,-371.45743 -224.980029,-185.728717 0,0 z" id="path2044"/>
      <path style="fill:#333333;fill-opacity:1;stroke-width:0.581818" d="m522.3401538574219,374.7298387304688 c-10.96153,-1.28986 -21.17987,-6.80854 -28.13984,-15.19766 c-3.20148,-3.85887 -6.83223,-11.20459 -8.00409,-16.19383 c-1.2793,-5.44671 -1.1600000000000001,-14.90423 0.26289,-20.8395 c3.6979900000000008,-15.4254 15.91818,-30.14643 30.54074,-36.79084 c11.85329,-5.38608 24.19928,-6.37005 34.90909,-2.78224 c15.14458,5.07347 27.18746,22.71391 24.15008,35.37511 c-1.55612,6.48668 -7.37349,9.6226 -15.27024,8.23162 c-5.53416,-0.97483 -7.35257,-3.32788 -7.35257,-9.51436 c0,-9.64401 -3.0157,-14.63411 -9.7814,-16.18532 c-6.77626,-1.5536400000000001 -17.74246,3.07126 -25.25335,10.65039 c-11.99285,12.1018 -13.51652,27.60441 -3.6844400000000004,37.48726 c4.2199100000000005,4.2417 8.35831,5.45736 19.07954,5.6046700000000005 l7.90946,0.10867000000000003 l1.8502800000000001,1.85091 c1.5220500000000001,1.52258 1.89757,2.42121 2.11688,5.06585 c0.22348000000000007,2.6948600000000003 0.02550000000000001,3.6264000000000003 -1.22396,5.75839 c-3.38973,5.78415 -11.79101,8.58502 -22.10907,7.37088 zm-68.77868,-63.96866 c-2.54093,-0.97937 -2.87943,-2.13032 -3.08869,-10.50193 l-0.19981000000000007,-7.99326 l-7.18014,0.3100800000000002 l-7.18013,0.3100900000000001 l-1.78369,-1.78369 c-0.98104,-0.98104 -1.7837,-2.207 -1.7837,-2.72436 c0,-1.5100500000000001 2.2307,-5.45622 3.45456,-6.11121 c0.6179200000000002,-0.3307000000000001 4.1265,-0.6012700000000002 7.79685,-0.6012700000000002 h6.67337 l0.20124000000000006,-8.05709 c0.23943000000000006,-9.58569 0.4324800000000002,-9.97928 4.89459,-9.97928 c2.42991,0 3.44587,0.3006700000000001 4.72042,1.3969900000000002 c1.6198800000000002,1.3933600000000004 1.62412,1.41641 1.6324400000000003,8.87273 l0.008000000000000004,7.47574 h7.64747 c6.70365,0 7.79868,0.13678 8.872720000000001,1.10835 c1.57153,1.4215900000000001 1.5529000000000002,3.32819 -0.059900000000000016,6.13051 c-1.94297,3.37598 -2.89823,3.7480200000000004 -10.28596,4.00595 l-6.62567,0.23132 l0.3109100000000002,6.09197 c0.3495000000000002,6.84794 -0.19517,9.70925 -2.07025,10.8756 c-1.70985,1.06357 -4.49681,1.50479 -5.95497,0.94276 zm-51.1798,-29.62708 c-4.26766,-1.06955 -7.90597,-4.2251900000000004 -11.042812,-9.57779 c-0.867264,-1.47988 -1.67033,-2.6906800000000004 -1.784593,-2.6906800000000004 c-0.11426300000000006,0 -1.8982400000000004,1.18173 -3.9643990000000002,2.62608 c-9.526463,6.65948 -22.616761,10.05854 -36.368108,9.44344 c-8.561502,-0.3829500000000001 -14.182776,-1.6587800000000001 -20.440082,-4.63917 c-6.954184,-3.31232 -13.393956,-9.74094 -16.768486,-16.739440000000002 c-4.491964,-9.31598 -6.180309,-21.28081 -4.797114,-33.99581 c1.394935,-12.82293 5.66291,-21.70172 14.480876,-30.12499 c7.447645,-7.11428 16.650672,-11.19515 29.191507,-12.94429 c10.37342,-1.4468400000000001 20.794237,-0.93757 30.740645,1.50234 c2.6660890000000004,0.6540000000000002 4.956306,1.08023 5.089367,0.94716 c0.480745,-0.48074 -1.046859,-7.12447 -2.2043340000000002,-9.586891 c-3.474257,-7.391167 -14.00434,-10.833675 -27.301078,-8.925294000000001 c-9.254268,1.328192 -13.125941,3.043695 -21.763504,9.643217 c-2.2526669999999998,1.7211480000000003 -4.822438,3.405638 -5.710604,3.743318 c-2.205962,0.8387100000000002 -9.065966,0.75948 -10.848184,-0.12528 c-2.1624820000000002,-1.07355 -6.427479,-9.568455 -6.495088,-12.936752 c-0.10727500000000004,-5.344436 5.397844,-13.509218 12.510359,-18.554425 c9.782833,-6.939386 20.530077,-10.539433 36.03061,-12.069324 c12.982551,-1.2813700000000001 24.635997,0.5576910000000004 34.749622,5.483928 c3.94393,1.9210530000000001 5.96619,3.420351 9.95018,7.377082 c5.48495,5.447412 8.11132,10.033337 10.73106,18.737646 c2.3197200000000002,7.70742 2.62385,13.378785 2.45956,45.864725 c-0.16266000000000005,32.16122 -0.03720000000000001,34.2729 2.73541,46.03473 c1.1979,5.08174 1.11069,6.7073 -0.55142,10.27751 c-3.4138100000000002,7.33283 -12.44787,12.77816 -18.62939,11.22896 zM367.1717118574219,251.60224873046877 c4.2288120000000005,-1.17221 9.627317,-3.6954700000000003 12.595154,-5.8869500000000015 c5.134178,-3.7911200000000003 8.174492,-12.79044 7.656977,-22.66461 c-0.3073980000000001,-5.86507 -0.999494,-6.76992 -7.728518,-10.10428 c-5.753274,-2.85087 -10.608901,-3.65519 -17.404485,-2.88302 c-11.146903,1.2666 -20.041473,6.81384 -23.928118,14.92316 c-1.411748,2.94556 -1.650369,4.15688 -1.652403,8.38817 c-0.0026000000000000016,5.47826 1.092545,8.76346 4.250789,12.75107 c4.6664650000000005,5.89189 16.096464,8.28008 26.210604,5.47646 zM488.8820238574219,235.65108873046876 c-5.57977,-0.6655300000000002 -10.94222,-2.29843 -16.68217,-5.07983 c-9.09071,-4.40508 -14.15299,-8.213940000000001 -17.17395,-12.921710000000001 c-1.02104,-1.59115 -1.94843,-2.8930100000000003 -2.06086,-2.8930100000000003 c-0.11243000000000003,0 -1.14896,0.6409800000000002 -2.30341,1.42441 c-2.3752,1.61186 -6.52197,2.4325200000000002 -8.5432,1.6907400000000008 c-3.4248600000000002,-1.2569 -8.0664,-4.63982 -8.96537,-6.53426 c-2.15479,-4.54089 0.7350700000000002,-12.06422 16.90095,-43.999074 c4.85966,-9.599999 11.80204,-23.999999 15.42751,-31.999999 c13.18139,-29.08614 23.71623,-50.1641343 26.71821,-53.457453 c2.38028,-2.6112934 6.12262,-4.02275883 10.6659,-4.02275883 c6.83823,0 13.78409,4.38410303 14.77204,9.32385233 c0.28909,1.4454275 -0.13779000000000005,2.5971935 -2.25564,6.0860035 c-1.4367100000000002,2.366749 -3.70798,6.482575 -5.04727,9.146281 c-2.81361,5.595994 -12.244,26.577012 -12.244,27.240827 c0,0.24578600000000006 4.12364,0.447533 9.163640000000001,0.4483250000000002 c8.79318,0.0014000000000000009 9.36971,0.07511000000000002 14.26107,1.823846 c6.60785,2.362401 10.76307,4.868817 15.667670000000001,9.450682 c12.89036,12.042152 17.40464,30.325299 12.01245,48.651298 c-1.7021000000000002,5.78478 -6.2251,15.64617 -9.49553,20.702840000000002 c-3.35143,5.18191 -9.76722,11.95506 -14.55475,15.36546 c-10.46825,7.45706 -23.985,11.01803 -36.26329,9.55353 zm13.40825,-25.30292 c10.90134,-3.84621 20.439,-17.20695 22.18849,-31.08254 c1.36964,-10.86289 0.3725900000000001,-14.990791 -4.93774,-20.442706 c-6.19427,-6.359424 -15.06919,-8.089268 -24.70964,-4.81625 c-6.7197000000000005,2.281396 -7.4079,2.782854 -10.81207,7.8782250000000005 c-5.32733,7.973952 -9.7443,18.100971 -11.69169,26.806141 l-0.8720300000000002,3.89814 l3.12396,5.70186 c3.86119,7.04745 6.99035,10.10052 12.02646,11.73403 c1.99661,0.6476200000000004 4.28475,1.29577 5.08475,1.44033 c2.16077,0.3904400000000001 8.10089,-0.23566 10.59951,-1.11723 z" id="path2036"/>
    </g>
    <path sodipodi:nodetypes="cssssssssssssssssssssssssssssssssssssssssssssssssssssssssssssssssssssssssssscscsssssssssssssssssssssssssssssccscsssssssscc" id="path3331" d="m519.1641410058594,374.2026021972656 c-0.27158000000000004,-0.05730000000000001 -0.54315,-0.11032000000000002 -0.81448,-0.16327000000000003 c-0.47542000000000006,-0.09280000000000002 -0.95013,-0.18522000000000002 -1.4229800000000001,-0.2994200000000001 c-1.59236,-0.3845700000000001 -3.16364,-0.87531 -4.66969,-1.46718 c-2.7636700000000003,-1.08609 -5.49042,-2.32429 -7.9115,-3.90836 c-0.9699400000000001,-0.6346200000000002 -1.95776,-1.24903 -2.8685,-1.92635 c-2.12205,-1.57816 -4.28517,-3.4174800000000003 -6.10196,-5.54469 c-0.4430800000000001,-0.51878 -0.92991,-1.06498 -1.3697,-1.6068900000000002 c-0.81258,-1.00125 -1.5588700000000002,-2.02556 -2.23718,-3.10124 c-2.07795,-3.29531 -3.77691,-6.85231 -4.83983,-10.36926 c-0.18640000000000004,-0.6167500000000001 -0.41321,-1.23937 -0.57153,-1.85034 c-0.22243000000000004,-0.8583900000000001 -0.45575,-1.92808 -0.6056900000000002,-3.05317 c-0.18620000000000003,-1.39723 -0.35184000000000004,-2.95968 -0.39653000000000005,-4.57674 c-0.04500000000000001,-1.62839 -0.07830000000000001,-3.33123 0.011000000000000003,-4.97266 c0.04900000000000001,-0.90215 0.0714,-1.8006900000000001 0.16254000000000005,-2.65573 c0.11499000000000002,-1.07862 0.17718,-2.1381 0.35143,-3.07934 c0.04130000000000001,-0.22310000000000002 0.060800000000000014,-0.43763 0.09360000000000003,-0.6510200000000002 c0.07400000000000001,-0.48117000000000004 0.15192000000000003,-0.94056 0.24725000000000003,-1.3659700000000001 c0.18905000000000002,-0.84355 0.36490000000000006,-1.70523 0.6047400000000002,-2.54477 c0.46135000000000004,-1.6149200000000001 0.9687300000000001,-3.23551 1.60898,-4.8221 c0.5966100000000001,-1.47844 1.21415,-2.96795 1.95613,-4.40712 c0.6147500000000001,-1.19241 1.25108,-2.38414 1.96005,-3.54028 c0.52918,-0.8629600000000001 1.0254,-1.74581 1.60424,-2.58459 c0.7063,-1.02349 1.38355,-2.05437 2.16116,-3.03556 c0.6788300000000002,-0.85656 1.35423,-1.72653 2.08577,-2.54608 c0.8707100000000001,-0.9754799999999999 1.6848200000000002,-1.9570500000000002 2.62391,-2.87312 c0.5338,-0.52071 1.03017,-1.06555 1.58837,-1.56443 c0.78944,-0.7055400000000001 1.51257,-1.46779 2.3469100000000003,-2.12572 c0.63621,-0.50168 1.21699,-1.06535 1.8850000000000002,-1.5285099999999998 c0.5631,-0.39043000000000005 1.03787,-0.87126 1.62473,-1.2257 c0.22341000000000005,-0.13494000000000003 0.41304,-0.31357000000000007 0.6216700000000002,-0.46528 c0.36968000000000006,-0.26882000000000006 0.7488400000000002,-0.51996 1.12338,-0.7706400000000001 c1.7166400000000002,-1.14894 3.51998,-2.21271 5.44769,-3.13429 c1.24653,-0.5959300000000001 2.4983400000000002,-1.22471 3.81504,-1.72543 c1.07096,-0.40727 2.12676,-0.8562700000000001 3.23682,-1.1914500000000001 c1.02388,-0.30916000000000005 1.9802,-0.6966600000000002 3.03269,-0.93838 c0.6671000000000001,-0.15320000000000003 1.3562400000000001,-0.38176000000000004 2.04584,-0.49546000000000007 c0.17046000000000003,-0.028100000000000003 0.30524,-0.0763 0.46932000000000007,-0.11575000000000002 c0.26619,-0.06410000000000002 0.55848,-0.12443000000000001 0.82493,-0.18201000000000003 c1.28993,-0.27875 2.77879,-0.56653 4.39114,-0.6896500000000002 c0.6329000000000001,-0.04830000000000001 1.25869,-0.14620000000000002 1.91724,-0.16934000000000005 c0.51098,-0.017900000000000006 1.00052,-0.09420000000000003 1.5199799999999999,-0.09630000000000002 c0.8577100000000001,-0.004000000000000001 1.72361,-0.06940000000000002 2.58218,-0.029100000000000004 c0.8983300000000001,0.04220000000000001 1.8238,0.023100000000000006 2.6883,0.11495000000000001 c0.9427700000000001,0.10012000000000001 1.86054,0.14690000000000003 2.71181,0.30517000000000005 c0.3323600000000001,0.061800000000000015 0.6726900000000002,0.09900000000000003 1.00576,0.15428000000000003 c0.39420000000000005,0.06540000000000001 0.77823,0.14822000000000002 1.12686,0.21526000000000003 c0.41137000000000007,0.07910000000000002 0.8440300000000001,0.14685 1.21425,0.23832 c0.73418,0.18141000000000004 1.47553,0.35024 2.18511,0.56886 c0.7308400000000002,0.22517 1.46808,0.43114 2.17284,0.6958500000000002 c0.98673,0.37062000000000006 1.96337,0.74136 2.8991700000000002,1.18963 c1.30671,0.6259500000000001 2.58316,1.3050700000000002 3.79192,2.08164 c1.23007,0.79026 2.47538,1.66655 3.6055200000000003,2.60968 c0.82471,0.6882300000000001 1.6816600000000002,1.38057 2.44898,2.14619 c0.7157900000000001,0.7142200000000001 1.4875800000000001,1.4183000000000001 2.1500500000000002,2.20283 c0.42045000000000005,0.4979100000000001 0.8903500000000001,0.9626800000000001 1.2830300000000001,1.49261 c0.41414,0.55888 0.9398900000000001,1.0929900000000001 1.3226200000000001,1.6911900000000002 c0.21872000000000003,0.3418400000000001 0.48840000000000006,0.6538800000000001 0.7259500000000001,0.98614 c0.28346000000000005,0.3964700000000001 0.53607,0.81345 0.80645,1.23052 c1.19365,1.8412700000000002 2.18329,3.66982 2.9099,5.50681 c0.25528999999999996,0.6454300000000001 0.55201,1.2908300000000001 0.7508000000000001,1.9359600000000001 c0.20424000000000003,0.6628400000000002 0.47349,1.3215000000000001 0.6153700000000001,1.98354 c0.1416,0.6607500000000002 0.35107000000000005,1.31738 0.42496000000000006,1.97728 c0.024900000000000005,0.22221000000000005 0.09240000000000002,0.4547 0.13779000000000002,0.6895700000000001 c0.07320000000000002,0.37924 0.12628,0.7646900000000002 0.13029000000000002,1.12307 c0.005000000000000001,0.46134000000000003 0.15607000000000001,0.92852 0.10473000000000002,1.37369 c-0.03780000000000001,0.32814000000000004 0.04520000000000001,0.7483400000000001 0.006000000000000002,1.08256 c-0.008000000000000002,0.06900000000000002 -0.006000000000000002,0.13029000000000002 -0.005000000000000001,0.19206000000000004 c0.00073,0.05780000000000001 0.000019999999999999998,0.11649000000000002 0.003000000000000001,0.16853000000000004 c0.007000000000000002,0.12112000000000002 -0.005000000000000001,0.24116 -0.011200000000000003,0.37803000000000003 c-0.0723,1.60513 -0.30969,3.00835 -0.7536100000000001,4.23955 c-0.19287,0.53491 -0.3703700000000001,1.0647 -0.63331,1.5371299999999999 c-0.25767,0.46297000000000005 -0.47316,0.9308400000000001 -0.80078,1.33626 c-0.50963,0.6306300000000001 -0.9463400000000001,1.30882 -1.63125,1.81045 c-0.44479,0.32577000000000006 -0.87741,0.7898400000000001 -1.42763,1.0405 c-0.19852000000000003,0.09040000000000002 -0.36716000000000004,0.21450000000000002 -0.54937,0.31661000000000006 c-0.21981000000000003,0.12317000000000002 -0.45225,0.22506000000000004 -0.6874900000000002,0.33723000000000003 c-0.7987500000000001,0.3269000000000001 -1.52156,0.57016 -2.22886,0.7308400000000002 c-0.3653200000000001,0.08300000000000002 -0.7408300000000001,0.1325 -1.09039,0.18422000000000002 c-0.03370000000000001,-0.001 -0.06520000000000002,0.021200000000000004 -0.09550000000000003,0.026400000000000007 c-0.08330000000000001,0.014200000000000003 -0.15673000000000004,0.026400000000000007 -0.23719,0.04170000000000001 c-0.10707000000000001,0.020400000000000005 -0.22738000000000003,0.010100000000000001 -0.34063000000000004,0.024600000000000004 c-0.37634000000000006,0.04810000000000001 -0.7919400000000001,0.08750000000000002 -1.4260000000000002,0.08750000000000002 c-2.36235,0 -4.34012,-0.23313 -5.84605,-0.7970700000000001 c-0.6580200000000002,-0.24642000000000003 -1.41941,-0.44094000000000005 -1.91403,-0.7966200000000001 c-0.10499000000000001,-0.07550000000000001 -0.24229000000000003,-0.13331 -0.3629200000000001,-0.20839000000000002 c-0.13246000000000002,-0.08240000000000001 -0.24885000000000002,-0.18248000000000003 -0.37510000000000004,-0.27377 c-0.27703,-0.20032 -0.51619,-0.42750000000000005 -0.7163200000000001,-0.6349800000000001 c-0.79138,-0.82047 -1.22333,-1.52629 -1.43894,-2.67646 c-0.016800000000000002,-0.08970000000000003 -0.06380000000000001,-0.17479000000000003 -0.09320000000000003,-0.2757 c-0.04900000000000001,-0.16773000000000005 -0.08410000000000002,-0.3584800000000001 -0.10500000000000001,-0.5348400000000001 c-0.0359,-0.30263 -0.16140000000000004,-0.6774500000000001 -0.17439000000000002,-1.03843 c-0.015400000000000002,-0.42741000000000007 -0.12051,-0.93848 -0.10708000000000001,-1.4608400000000001 c0.008000000000000002,-0.31106000000000006 -0.026600000000000006,-0.6390200000000001 -0.03430000000000001,-0.99205 c-0.008000000000000002,-0.36877000000000004 0.010200000000000002,-0.7649100000000001 -0.016500000000000004,-1.19771 c-0.55371,-8.95928 -2.71075,-12.70256 -8.20287,-14.63289 c-4.50448,-1.58319 -10.3454,-0.45638000000000006 -16.10781,2.40731 c-4.03672,2.00609 -7.89712,4.8802200000000004 -11.26169,8.28751 c-1.69056,1.71204 -3.09847,3.60212 -4.43973,5.5462 c-1.02833,1.49051 -1.89796,3.04977 -2.60107,4.63963 c-1.8999300000000001,4.29608 -2.76081,8.88092 -2.50164,13.09036 c0.06550000000000002,1.06382 0.3173700000000001,2.08157 0.5199400000000001,3.08671 c0.12389000000000001,0.6147100000000001 0.30102000000000007,1.23853 0.49394000000000005,1.82483 c0.80966,2.46058 2.04878,4.69222 3.5083,6.628 c0.6922400000000002,0.91815 1.49963,1.7569700000000001 2.30593,2.52867 c2.25578,2.15896 4.93545,3.56241 7.91333,4.2808 c1.4558900000000001,0.35122000000000003 5.89321,0.6717500000000002 10.18798,0.91642 c0.6488100000000001,0.037000000000000005 1.2928700000000002,-0.012300000000000002 1.92252,-0.005000000000000001 c1.08566,0.012000000000000002 2.12846,0.06020000000000001 3.07877,0.06220000000000001 l2.42509,0.07420000000000002 c0,0 0.7549800000000001,-0.10663000000000002 1.06944,0.04520000000000001 c0.1039,0.05020000000000001 0.25398000000000004,0.17588 0.25398000000000004,0.17588 l1.3018800000000001,1.32067 c0.6685700000000001,0.6782200000000002 1.25011,1.27234 1.62149,1.95517 c0.6571300000000001,1.20825 0.8210200000000001,2.57653 0.8210200000000001,4.33968 c0,0.7778200000000001 0.054800000000000015,1.57541 -0.14018,2.3090100000000002 c-0.71447,2.6874700000000002 -2.57031,5.1902 -5.46064,6.91942 c-1.9065400000000001,1.14064 -4.17279,2.0708 -6.700670000000001,2.6062700000000003 c-1.42816,0.30252000000000007 -3.3813400000000002,0.6387000000000002 -5.54484,0.62326 c-1.25003,-0.009000000000000003 -2.57181,0.029000000000000005 -3.84259,-0.06680000000000001 c-1.82081,-0.13717 -3.54516,-0.44995000000000007 -4.87357,-0.7300500000000001 z" style="opacity:0.997;fill:#2f5496;fill-opacity:1;stroke:#ff0000;stroke-width:0;stroke-linejoin:bevel"/>
    <path sodipodi:nodetypes="ssssscsscsssssscsssscssssssscssssssssssssssss" id="path3335" d="m454.1423910058594,310.9178321972656 c-0.3898200000000001,-0.06600000000000002 -0.94332,-0.27911 -1.40162,-0.5341 c-0.28737000000000007,-0.15989000000000003 -0.5254599999999999,-0.34099000000000007 -0.6991400000000002,-0.49790000000000006 c-0.21743000000000004,-0.19642000000000004 -0.48090000000000005,-0.59728 -0.6619900000000002,-0.97 c-0.6696600000000001,-1.37832 -0.8516400000000002,-3.3004100000000003 -0.99339,-12.29738 l-0.11325000000000002,-4.35247 l-1.46435,0.05680000000000001 c-0.8297300000000001,0.032200000000000006 -4.02083,0.16473000000000004 -7.1282,0.30430000000000007 l-5.767720000000001,0.25907 l-1.11011,-1.10293 c-0.4298600000000001,-0.42707000000000006 -0.8190900000000001,-0.8128400000000001 -1.13167,-1.1685400000000001 c-0.92849,-1.05656 -1.3334700000000002,-1.81725 -1.3334700000000002,-2.364 c0,-1.01896 1.35721,-3.71265 2.58178,-5.18154 c0.54878,-0.6582700000000001 0.78107,-0.8819700000000001 1.5828900000000001,-1.00289 c1.6276400000000002,-0.24544000000000005 2.87688,-0.42865000000000003 8.17114,-0.39125000000000004 l5.59683,-0.009000000000000003 l0.017100000000000004,-0.23314000000000001 c0.011300000000000003,-0.15424000000000004 0.054100000000000016,-2.3464400000000003 0.10779000000000002,-4.87434 c0.15788000000000002,-7.42726 0.31560000000000005,-9.72643 0.7240000000000001,-10.95486 c0.3569800000000001,-1.07379 0.8001400000000001,-1.6250400000000003 1.95301,-1.8478 c0.5384599999999999,-0.10404000000000001 1.247,-0.11200000000000002 2.14613,-0.11250000000000002 c1.79325,-0.0010000000000000002 2.8132900000000003,0.10947000000000001 3.70474,0.5879800000000001 c0.50217,0.26955 1.00572,0.6231900000000001 1.5524900000000001,1.13899 c0.3478500000000001,0.32815000000000005 0.6039500000000001,0.6108700000000001 0.7672200000000001,0.9436100000000001 c0.14777,0.30117000000000005 0.21450000000000002,0.64531 0.29559,1.06472 c0.04100000000000001,0.21216000000000002 0.13419,1.17866 0.15102000000000002,2.91391 c0.007000000000000002,0.6833100000000001 0.024600000000000004,1.49686 0.010000000000000002,2.41945 c-0.009000000000000003,0.59235 0.024200000000000003,1.22867 0.021200000000000004,1.9202599999999999 l0.007000000000000002,6.7427600000000005 l6.37596,0.004000000000000001 c6.11888,0.004000000000000001 7.56365,0.08530000000000001 8.56617,0.31533000000000005 c0.4284200000000001,0.09830000000000003 0.8677200000000002,0.26118 1.23647,0.51244 c0.5205099999999999,0.35466000000000003 0.92783,0.8634700000000001 1.20351,1.42487 c0.22151000000000004,0.45111 0.28901000000000004,0.5512400000000001 0.28901000000000004,1.29426 c0,0.99968 -0.23935,1.81321 -0.8869500000000001,3.07371 c-0.9582,1.8650000000000002 -1.89213,3.03947 -2.92853,3.56266 c-0.8259900000000001,0.41696000000000005 -1.7230500000000002,0.6802800000000001 -3.85368,0.84631 c-1.6018000000000001,0.12483000000000001 -3.9049,0.21653000000000003 -7.35134,0.33193000000000006 c-1.70148,0.05700000000000001 -3.08339,0.09390000000000003 -3.09759,0.10563000000000002 c-0.014200000000000003,0.011600000000000003 0.06510000000000002,1.5755599999999998 0.16185000000000002,3.4897 c0.27632000000000007,5.46583 0.29456000000000004,6.02751 0.19709000000000004,7.6709000000000005 c-0.21898000000000004,3.69206 -0.8271900000000001,5.19858 -2.60347,6.09254 c-0.79376,0.39949000000000007 -1.6675900000000001,0.6554000000000001 -2.70407,0.81256 c-0.9265599999999999,0.14049000000000003 -1.3743800000000002,0.14433 -2.07555,0.025600000000000005 z" style="opacity:0.997;fill:#2f5496;fill-opacity:1;stroke:#ff0000;stroke-width:0;stroke-linejoin:bevel"/>
    <path sodipodi:nodetypes="ssssssssssssssssssssssssssssssssssssssssssssssssssssssssssssssssssssssssssscssss" id="path3337" d="m488.3891810058594,235.58928219726562 c-2.7956000000000003,-0.35755000000000003 -5.80023,-0.99935 -8.79597,-2.00565 c-5.15613,-1.73201 -10.394,-4.09038 -14.88103,-7.03098 c-0.35180000000000006,-0.23056000000000001 -0.7284200000000001,-0.47002000000000005 -1.0796700000000001,-0.6930800000000001 c-0.6162000000000001,-0.3913100000000001 -1.19522,-0.8193 -1.78174,-1.23796 c-0.8219400000000001,-0.5866900000000002 -1.7503000000000002,-1.10385 -2.47702,-1.70722 c-1.4909400000000002,-1.23787 -4.97615,-5.86287 -6.06092,-7.77986 c-0.11329000000000003,-0.20021000000000003 -0.2073,-0.25646 -0.26647000000000004,-0.30750000000000005 c-0.10276000000000002,-0.08860000000000003 -0.19495000000000004,-0.0198 -0.77988,0.35712000000000005 c-0.9479500000000001,0.6108100000000001 -1.97773,1.3278400000000001 -3.12834,1.83337 c-1.1517600000000001,0.50603 -2.42433,0.80034 -3.3248,0.97112 c-1.03268,0.19585000000000002 -2.02178,0.28783000000000003 -3.09285,0.05750000000000001 c-0.7683200000000001,-0.16522000000000003 -1.5864,-0.5266400000000001 -2.4578100000000003,-0.99376 c-0.7655000000000001,-0.41034000000000004 -1.58226,-0.8429000000000001 -2.51516,-1.45569 c-2.25047,-1.47825 -3.76024,-2.73201 -4.54556,-4.12932 c-0.8621300000000001,-1.53396 -0.8672300000000001,-3.23774 -0.3998100000000001,-5.52569 c0.88948,-4.35387 2.51993,-8.68352 9.09854,-22.24399 c1.8737300000000001,-3.86232 3.96475,-8.56786 6.72712,-14.14331 c9.7727,-19.72488 12.9303,-25.77793 20.30727,-41.87312 c3.5223,-7.68502 8.7068,-18.60086 13.00443,-27.28832 c2.92294,-5.90857 5.46082,-10.77376 6.68846,-12.93969 c1.2711299999999999,-2.24266 2.29617,-4.07039 3.45649,-5.41508 c2.54577,-2.95029 5.29589,-3.9031599999999997 9.56873,-4.12665 c2.8429200000000003,-0.14870000000000003 3.8660300000000003,-0.05010000000000001 6.42006,0.76046 c2.1388,0.6787400000000002 4.12805,1.69238 5.70493,2.91615 c2.22103,1.72368 3.66241,3.8412 3.88614,5.82611 c0.14612,1.29638 -0.10394,2.05417 -1.0701,3.76311 c-4.652950000000001,8.23024 -6.29138,11.19075 -8.54122,16.00021 c-4.13268,8.83442 -9.93414,21.8573 -9.93414,22.409 c0,0.18423000000000003 0.23407,0.17175 0.5858200000000001,0.25026 c0.20686000000000002,0.04620000000000001 0.45941000000000004,0.03480000000000001 0.8226800000000001,0.06040000000000001 c0.37103,0.026200000000000005 0.85755,0.08880000000000002 1.52885,0.09500000000000003 c1.70147,0.015700000000000002 6.08378,-0.009000000000000003 9.6812,0.13636 c1.08558,0.04380000000000001 2.0525700000000002,0.022300000000000007 2.9404500000000002,0.06030000000000001 c1.07715,0.046100000000000016 2.03418,0.15773000000000004 2.8981000000000003,0.29665 c3.36381,0.5409200000000001 5.7807,1.4140000000000001 10.4122,3.69158 c7.13806,3.51019 13.03351,8.90135 17.17846,15.56568 c0.91411,1.4697200000000001 1.86734,2.97819 2.60845,4.56425 c0.6820400000000002,1.45964 1.3690200000000001,2.94367 1.89228,4.49155 c0.48910000000000003,1.44686 1.0093,2.94025 1.3426200000000001,4.4559 c0.34076000000000006,1.54948 0.7420900000000001,3.09606 0.92031,4.69689 c0.10535,0.9462700000000001 0.24241000000000004,1.96307 0.33305000000000007,2.92431 c0.29817000000000005,3.16183 0.27401000000000003,6.6797200000000005 -0.21656000000000003,10.19551 c-0.28693,2.05638 -0.5626900000000001,4.11251 -1.10383,6.14935 c-0.31744000000000006,1.19485 -0.6259700000000001,2.37435 -0.98803,3.5532500000000002 c-0.36853,1.1999300000000002 -0.79166,2.39866 -1.23895,3.54755 c-1.6638300000000001,4.27368 -3.33778,8.1654 -5.20536,11.52833 c-1.03578,1.86511 -1.9409100000000001,3.6394 -3.04083,5.20269 c-0.50365,0.7158200000000001 -0.9511400000000001,1.4064800000000002 -1.4428400000000001,2.06937 c-0.44270000000000004,0.5968300000000001 -0.8910500000000001,1.18678 -1.33427,1.7367000000000001 c-1.11004,1.3773 -2.5056700000000003,3.08622 -4.16504,4.69899 c-1.66857,1.6217200000000003 -3.3505000000000003,3.3461600000000002 -4.99899,4.66314 c-0.6006300000000001,0.47984000000000004 -1.1143,0.9625900000000001 -1.6397700000000002,1.36794 c-0.5783,0.44610000000000005 -1.1593200000000001,0.80505 -1.6195300000000001,1.11559 c-1.97718,1.3342 -4.05376,2.64045 -6.35427,3.71366 c-2.38614,1.11316 -4.78969,2.18728 -7.34756,2.95511 c-1.04692,0.31427000000000005 -2.05706,0.6517400000000002 -3.0986700000000003,0.93 c-0.92652,0.24752000000000002 -1.8860800000000002,0.4416800000000001 -2.79361,0.6309900000000002 c-1.53464,0.32012000000000007 -3.71416,0.7227500000000001 -6.0608,0.8479000000000001 c-0.3885800000000001,0.020700000000000003 -0.7639700000000001,0.08190000000000001 -1.1951800000000001,0.11217000000000002 c-0.86826,0.06100000000000001 -1.84353,0.09250000000000003 -2.7732799999999997,0.08560000000000002 c-3.0733800000000002,-0.022900000000000007 -5.74481,-0.32474000000000003 -5.95209,-0.35126 zm12.05222,-24.75584 c2.24874,-0.4783200000000001 6.06145,-2.31036 8.35954,-4.0016 c1.5069,-1.10898 3.02175,-2.42424 4.4600100000000005,-3.93938 c0.30306000000000005,-0.31926000000000004 0.5892200000000001,-0.6633000000000001 0.8881900000000001,-0.99815 c0.20382,-0.22827000000000003 0.42404000000000003,-0.44183000000000006 0.6186300000000001,-0.6813300000000001 c3.78703,-4.661020000000001 6.96403,-10.52185 8.51534,-16.10133 c1.47568,-5.30752 2.15043,-13.34974 1.42427,-17.24064 c-0.57191,-3.06442 -2.33895,-6.07743 -4.76571,-8.62792 c-2.8246200000000004,-2.96863 -6.55409,-5.30235 -10.50518,-6.23207 c-3.91255,-0.9206500000000001 -10.06981,-0.44305000000000005 -14.56111,1.0052 c-6.83586,2.20427 -7.87946,3.10222 -11.979800000000001,9.626100000000001 c-4.5663,7.26525 -8.15659,17.42185 -10.46789,25.53477 l-0.97207,3.41208 l2.5009,4.55146 c5.09727,9.27667 7.4507,11.25356 14.95043,13.565290000000001 c2.24181,0.6910200000000002 3.09262,0.9570400000000001 6.08171,0.8237700000000001 c1.94454,-0.08670000000000003 4.38324,-0.46876 5.45274,-0.6962500000000001 z" style="opacity:0.997;fill:#2f5496;fill-opacity:1;stroke:#ff0000;stroke-width:0;stroke-linejoin:bevel"/>
    <path sodipodi:nodetypes="ssssssssssssssssssssssssssssssssssssssssssssssssssssssssssssssssccccccccscsssssssssssssssssssssssssssssccssssssssssssssssssssssssssssssssssssssscsssssssssssss" id="path3339" d="m401.89160100585934,281.0112921972657 c-1.43965,-0.3899800000000001 -3.00637,-1.02804 -4.42424,-2.24653 c-0.03360000000000001,-0.028900000000000006 -0.08810000000000003,-0.04900000000000001 -0.12394000000000001,-0.07640000000000001 c-0.04190000000000001,-0.03200000000000001 -0.06550000000000002,-0.07100000000000001 -0.10934,-0.10186 c-0.13375,-0.09430000000000002 -0.27352000000000004,-0.18581000000000003 -0.40134000000000003,-0.28895000000000004 c-0.46069,-0.37171000000000004 -0.9076500000000001,-0.78423 -1.36192,-1.23978 c-0.49701000000000006,-0.4984200000000001 -1.00615,-1.02778 -1.4769100000000002,-1.6082200000000002 c-0.5913400000000001,-0.7291000000000001 -1.13567,-1.5274999999999999 -1.6727100000000001,-2.31865 c-1.5143499999999999,-2.23091 -2.54097,-4.25351 -2.80176,-4.26551 c-0.025400000000000006,-0.001 -0.03180000000000001,0.03150000000000001 -0.0753,0.05600000000000001 c-0.09350000000000003,0.052600000000000015 -0.25893,0.13812 -0.45366,0.26542000000000004 c-0.6440300000000001,0.42102000000000006 -1.77936,1.21391 -3.05848,2.07211 c-1.10364,0.74046 -2.18816,1.52105 -3.3654,2.1774 c-1.6013600000000001,0.8928200000000002 -3.23129,1.7926700000000002 -4.9465,2.5270799999999998 c-2.41446,1.03382 -4.90177,1.9666100000000002 -7.47844,2.6802 c-6.22999,1.72536 -12.81241,2.51967 -19.2342,2.34043 c-1.6188600000000002,-0.04520000000000001 -3.2467,-0.07760000000000002 -4.83547,-0.24538000000000001 c-0.35569,-0.03760000000000001 -0.6603000000000001,-0.040400000000000005 -1.015,-0.07360000000000001 c-1.46712,-0.13724000000000003 -2.9733099999999997,-0.29065 -4.38999,-0.58323 c-0.13977,-0.028900000000000006 -0.27188000000000007,-0.03460000000000001 -0.41243,-0.05860000000000001 c-0.23674000000000003,-0.04050000000000001 -0.48309,-0.09700000000000003 -0.7257100000000001,-0.1416 c-0.9640000000000001,-0.17735 -1.95182,-0.37410000000000004 -2.8497700000000004,-0.6489100000000001 c-0.39124000000000003,-0.11973000000000003 -0.7698500000000001,-0.20114 -1.15766,-0.3129800000000001 c-1.13227,-0.32654000000000005 -2.25427,-0.6760000000000002 -3.30384,-1.14568 c-0.023900000000000008,-0.010700000000000003 -0.04780000000000001,-0.021500000000000005 -0.07160000000000001,-0.03230000000000001 c-0.016800000000000002,-0.008000000000000002 -0.029200000000000004,-0.003000000000000001 -0.04500000000000001,-0.009000000000000003 c-0.06250000000000001,-0.024200000000000003 -0.12329000000000002,-0.05080000000000001 -0.19037,-0.07690000000000001 c-0.35181000000000007,-0.13677 -0.72638,-0.25822 -1.08896,-0.40792000000000006 c-0.7314900000000001,-0.30202000000000007 -1.4908800000000002,-0.6720800000000001 -2.16898,-1.00737 c-1.7667400000000002,-0.8735900000000001 -3.4725800000000002,-1.86306 -5.02486,-2.99398 c-2.15594,-1.57071 -4.20342,-3.33866 -5.94475,-5.3815100000000005 c-0.79095,-0.9279000000000001 -1.66867,-1.8577500000000002 -2.36952,-2.88108 c-0.24061000000000002,-0.3513200000000001 -0.50234,-0.6861700000000002 -0.7527700000000002,-1.0451 c-0.5928300000000001,-0.8496800000000001 -1.17633,-1.74441 -1.65484,-2.6649700000000003 c-0.43376000000000003,-0.83447 -0.9260900000000001,-1.6876000000000002 -1.29704,-2.57267 c-0.12425000000000001,-0.29646000000000006 -0.28007000000000004,-0.5971500000000001 -0.40943,-0.8952800000000001 c-0.43366000000000005,-0.9995299999999999 -0.8498200000000001,-2.01039 -1.17675,-3.07915 c-0.05300000000000001,-0.17337 -0.13892000000000002,-0.3496100000000001 -0.19962000000000002,-0.5220400000000001 c-0.10951000000000001,-0.31106000000000006 -0.19870000000000004,-0.6185200000000001 -0.30261000000000005,-0.9367700000000001 c-0.28761000000000003,-0.8808800000000001 -0.54631,-1.7890700000000002 -0.7746700000000001,-2.7084099999999998 c-0.04520000000000001,-0.18197000000000002 -0.10378000000000001,-0.41480000000000006 -0.15285,-0.5967700000000001 c-1.25556,-4.65638 -1.8426500000000001,-5.56127 -1.8426500000000001,-16.17418 c0,-10.59498 0.5691700000000001,-11.61745 1.81446,-16.23381 c0.44903000000000004,-1.66458 0.90133,-3.24855 1.44926,-4.75521 c2.46936,-6.79 6.1269,-12.160590000000001 12.19919,-17.85864 c7.07763,-6.64143 15.34873,-10.38551 27.16994,-12.22845 c1.29803,-0.20237 2.65526,-0.3888500000000001 4.05126,-0.53745 c0.90734,-0.09660000000000003 1.81317,-0.19324000000000005 2.7530900000000003,-0.27901000000000004 c5.3595,-0.48908000000000007 11.14442,-0.3439100000000001 17.25577,0.51773 c1.3979000000000001,0.19709000000000004 2.8291,0.42311000000000004 4.25818,0.70636 c1.03899,0.20594000000000004 2.06765,0.45502000000000004 3.12645,0.6824100000000001 c3.32764,0.7146500000000001 5.73797,1.27573 5.90057,1.11313 c0.15683000000000002,-0.15683000000000002 0.06790000000000002,-0.9650200000000001 -0.12538,-2.08194 c-0.46954,-2.7131600000000002 -1.8839200000000003,-7.22422 -2.82353,-8.82754 c-0.19130000000000003,-0.32644000000000006 -0.42225,-0.6240300000000001 -0.6448100000000001,-0.9198700000000001 c-0.6090800000000001,-0.8096200000000001 -1.30741,-1.5300500000000001 -2.1181,-2.2126 c-0.8421900000000001,-0.70908 -1.7877200000000002,-1.3461500000000002 -2.84342,-1.92407 c-0.8429900000000001,-0.46148000000000006 -1.75623,-0.89231 -2.7431900000000002,-1.2401 c-2.61891,-0.92286 -5.71896,-1.5776700000000001 -9.27571,-1.74167 c-2.06731,-0.09530000000000002 -4.04316,0.020800000000000003 -6.0404,0.14253000000000002 c-1.9395099999999998,0.11820000000000003 -3.79175,0.4678800000000001 -5.67155,0.77423 c-1.93555,0.31544000000000005 -3.76351,0.7581700000000001 -5.59706,1.33739 c-3.49189,1.1031 -5.43692,2.8507700000000002 -14.29699,8.55111 c-0.37755000000000005,0.24291000000000004 -0.7188000000000001,0.5896900000000002 -1.13495,0.82541 l-2.05338,1.32592 l-1.21898,0.7337300000000001 l-0.3958800000000001,0.15873000000000004 l-0.56428,0.17090000000000002 l-0.51693,0.11478000000000002 l-0.7370700000000001,0.12613 l-1.4881,0.12634 l-1.96129,0.05070000000000001 c-2.17578,0.07470000000000002 -4.20057,0.04820000000000001 -5.67044,-0.7632800000000001 c-0.36234000000000005,-0.20006000000000002 -0.63226,-0.51019 -0.93058,-0.8058500000000001 c-0.82455,-0.7899700000000001 -2.30725,-3.24621 -3.34262,-5.34375 c-1.09344,-2.21516 -1.91893,-4.279 -2.10899,-6.2705400000000004 c-0.022800000000000004,-0.23927 -0.05700000000000001,-0.49704000000000004 -0.04330000000000001,-0.73436 c0.008000000000000002,-0.13787 0.013400000000000002,-0.28264 0.030600000000000006,-0.41485000000000005 c0.004000000000000001,-0.03420000000000001 0.011500000000000003,-0.049400000000000006 0.012500000000000002,-0.08500000000000002 c0.00073,-0.026200000000000005 -0.0020000000000000005,-0.05230000000000001 -0.001,-0.07840000000000001 c0.12797,-3.6263300000000003 2.13606,-7.14325 5.79039,-11.54584 c2.26717,-2.73139 5.16055,-5.2601700000000005 8.56842,-7.45085 c1.9688400000000001,-1.2656399999999999 4.03904,-2.5592 6.31512,-3.6169700000000002 c0.6340700000000001,-0.29468000000000005 1.25767,-0.6196300000000001 1.9005,-0.91685 c1.24773,-0.5768900000000001 2.53551,-1.11415 3.88577,-1.57715 c2.44118,-0.8370700000000001 4.92111,-1.72784 7.58263,-2.30676 c0.8686700000000002,-0.18895000000000003 1.75272,-0.41994000000000004 2.6521600000000003,-0.6141300000000001 c1.14684,-0.24761000000000002 2.3138,-0.45495 3.45283,-0.6506200000000002 c4.60478,-0.79105 8.95932,-1.30727 13.09417,-1.43256 c1.58867,-0.04810000000000001 3.1415,-0.08950000000000002 4.66851,-0.03900000000000001 c0.6286600000000001,0.020800000000000003 1.2577099999999999,0.007000000000000002 1.8784,0.030200000000000005 c1.11359,0.04110000000000001 2.20898,0.12992 3.28863,0.25108 c1.87193,0.21008000000000002 3.7415000000000003,0.4123800000000001 5.52777,0.78847 c0.39293000000000006,0.08270000000000002 0.81111,0.1366 1.20633,0.21825000000000003 c1.84268,0.38071000000000005 3.67228,0.79828 5.40137,1.39606 c0.3053600000000001,0.10556000000000001 0.6124400000000001,0.18723000000000004 0.9198400000000001,0.28715 c1.21347,0.3944700000000001 2.4671,0.77312 3.60407,1.3193300000000001 c0.15255000000000002,0.0733 0.35027,0.12808 0.51171,0.19203000000000003 c0.28468000000000004,0.11276000000000003 0.5389700000000001,0.22929000000000005 0.8228500000000001,0.3492700000000001 c0.6515000000000001,0.27535000000000004 1.28435,0.5858700000000001 1.90533,0.8875500000000001 c1.42395,0.6917700000000002 2.5716400000000004,1.25329 3.5023999999999997,1.8787900000000002 c1.13983,0.7660100000000001 2.3227700000000002,1.43364 3.39537,2.49854 c0.12979000000000002,0.12886 0.3038600000000001,0.25865 0.45936000000000005,0.3918800000000001 c0.44622000000000006,0.38229 0.9608400000000001,0.77723 1.35904,1.27519 c0.15286000000000002,0.12969 0.31377000000000005,0.27985000000000004 0.44969000000000003,0.40108000000000005 c0.25084,0.21610000000000001 0.48734000000000005,0.47222000000000003 0.7631200000000001,0.7462700000000001 c1.27947,1.27141 2.45853,2.51816 3.5024699999999998,3.78147 c0.7242500000000001,0.8764400000000001 1.3733300000000002,1.76288 1.98776,2.6626600000000002 c2.93604,4.29954 4.7454,8.98169 6.25051,15.19685 c0.46281000000000005,1.9111099999999999 0.94226,4.15226 1.1905000000000001,7.12296 c0.07450000000000001,0.8912400000000001 0.15867,1.84917 0.22847000000000003,2.8863700000000003 c0.05970000000000001,0.8872700000000001 0.08330000000000001,1.83254 0.12811,2.84369 c0.07780000000000001,1.75723 0.13747,3.71341 0.17126000000000002,5.90983 c0.048400000000000006,3.1429 0.07570000000000002,6.76846 0.07210000000000001,11.00764 c-0.003000000000000001,3.04182 -0.00098,6.43782 -0.017000000000000005,10.14838 c-0.006000000000000002,1.46188 0.030600000000000006,2.95948 -0.013900000000000003,4.51971 c-0.018900000000000004,0.6640700000000002 -0.012500000000000002,1.37534 -0.012000000000000002,2.06619 c0.005000000000000001,7.11869 -0.061300000000000014,12.73337 -0.014500000000000002,17.30089 c0.04520000000000001,4.41248 0.17364000000000002,7.84114 0.32074,10.68334 c0.13928000000000001,2.6911 0.49796000000000007,4.85643 0.7569400000000002,6.83329 c0.04060000000000001,0.31020000000000003 0.10898000000000001,0.6185200000000001 0.16301000000000004,0.9189200000000001 c0.20994000000000004,1.16706 0.4793700000000001,2.26962 0.6756400000000002,3.41943 c0.03260000000000001,0.19077000000000002 0.09610000000000003,0.37779 0.13994000000000004,0.5694 c0.07160000000000001,0.3128500000000001 0.13,0.6314500000000001 0.20595000000000002,0.95035 c0.15034000000000003,0.6312700000000001 0.29159,1.27902 0.45532000000000006,1.96158 c0.43416000000000005,1.80993 0.78893,3.26364 0.8191400000000001,4.53102 c0.009000000000000003,0.37606000000000006 0.04730000000000001,0.7587100000000001 0.04150000000000001,1.1171900000000001 c-0.012200000000000003,0.7568100000000001 -0.11282000000000002,1.45991 -0.3421600000000001,2.14516 c-0.2705,0.80822 -0.46075,1.67941 -0.9825799999999999,2.53602 c-0.0198,0.03250000000000001 -0.017100000000000004,0.06660000000000002 -0.032200000000000006,0.10182000000000001 c-0.040400000000000005,0.09400000000000003 -0.08880000000000002,0.19584000000000004 -0.13289,0.29633000000000004 c-0.10709000000000002,0.24406000000000003 -0.23794000000000004,0.4968000000000001 -0.37052000000000007,0.7289400000000001 c-0.6140800000000001,1.0752 -1.35476,2.12411 -2.18711,3.11874 c-4.52022,5.40154 -11.34185,8.36416 -16.06691,7.08423 zm-31.54042,-30.5008 c2.85823,-1.0927 5.03063,-2.17861 6.8783900000000004,-3.24842 c3.6826700000000003,-2.13216 5.79721,-4.43252 7.5314,-8.22048 c1.6038100000000002,-3.50319 2.65015,-8.87965 2.71909,-13.51437 c0.016500000000000004,-1.10646 -2.02609,-2.15928 -2.09454,-3.13679 c-0.15489000000000003,-2.21191 1.4771100000000001,-4.00604 0.78791,-4.9348 c-1.48196,-1.99708 -4.21082,-3.60971 -8.67592,-5.40216 c-3.50972,-1.40893 -4.73603,-1.98922 -9.78125,-2.16175 c-3.3307,-0.11390000000000002 -5.88711,0.21137 -8.43656,0.6882300000000001 c-2.88852,0.54028 -5.7148200000000005,1.32217 -8.67294,2.74097 c-3.3568000000000002,1.61002 -6.27684,3.72951 -8.52662,6.20697 c-0.7693200000000001,0.8471900000000001 -1.3903400000000001,1.73533 -2.03254,2.63086 c-0.36546000000000006,0.50961 -0.6617100000000001,1.02819 -0.9845799999999999,1.56824 c-0.17225000000000001,0.28811000000000003 -0.3688600000000001,0.5421900000000001 -0.49590000000000006,0.85316 l-1.47445,3.68194 l-0.31539000000000006,5.8298000000000005 c-0.046600000000000016,0.86146 0.010700000000000003,1.6078800000000002 0.0753,2.26313 c0.14472000000000002,1.46833 0.45902000000000004,2.48006 0.6805700000000001,3.31167 c0.28240000000000004,1.06 0.5418000000000001,1.84084 1.1121,2.94002 c1.69409,3.26513 3.9105,5.40264 6.70472,7.01057 c3.5409,2.03759 7.81031,3.14526 14.11633,2.99234 c3.00656,-0.0729 4.585,-0.3468000000000001 6.01811,-0.6482000000000001 c1.4406,-0.3029700000000001 2.73351,-0.6353800000000001 4.86681,-1.45093 z" style="opacity:0.997;fill:#2f5496;fill-opacity:1;stroke:#ff0000;stroke-width:0;stroke-linejoin:bevel"/>
  </g></g></svg>