<svg xmlns:dc="http://purl.org/dc/elements/1.1/" xmlns:cc="http://creativecommons.org/ns#" xmlns:rdf="http://www.w3.org/1999/02/22-rdf-syntax-ns#" xmlns:svg="http://www.w3.org/2000/svg" xmlns="http://www.w3.org/2000/svg" xmlns:sodipodi="http://sodipodi.sourceforge.net/DTD/sodipodi-0.dtd" xmlns:inkscape="http://www.inkscape.org/namespaces/inkscape" inkscape:version="1.0 (4035a4fb49, 2020-05-01)" sodipodi:docname="lupa.svg" height="683" width="683" version="1.1" style=""><rect id="backgroundrect" width="100%" height="100%" x="0" y="0" fill="none" stroke="none"/>
  <metadata id="metadata16">
    <rdf:RDF>
      <cc:Work rdf:about="">
        <dc:format>image/svg+xml</dc:format>
        <dc:type rdf:resource="http://purl.org/dc/dcmitype/StillImage"/>
        <dc:title/>
      </cc:Work>
    </rdf:RDF>
  </metadata>
  <defs id="defs14"/>
  <sodipodi:namedview inkscape:current-layer="g18" inkscape:window-maximized="1" inkscape:window-y="-11" inkscape:window-x="-11" inkscape:cy="590.26706" inkscape:cx="633.67381" inkscape:zoom="1" showgrid="false" id="namedview12" inkscape:window-height="986" inkscape:window-width="1920" inkscape:pageshadow="2" inkscape:pageopacity="0" guidetolerance="10" gridtolerance="10" objecttolerance="10" borderopacity="1" bordercolor="#666666" pagecolor="#ffffff"/>
  
<g class="currentLayer" style=""><title>Layer 1</title><g id="g18" inkscape:label="Image" inkscape:groupmode="layer" class="" fill="#ffffff" fill-opacity="1">
    <g id="g22" fill="#ffffff" fill-opacity="1">
      <path sodipodi:nodetypes="ssssscccssssssssssssscccssssssssssssssssssss" id="path24" d="m38.5264892578125,682.0527954101562 c-3.8795199394226074,-1.8076800107955933 -37.04248046875,-35.388519287109375 -37.97758865356445,-38.45613098144531 c-1.9674099683761597,-6.454090118408203 -5.229300022125244,-2.968400001525879 119.23686981201172,-127.41816711425781 C235.857177734375,400.12237548828125 238.63250732421875,397.43359375 242.35211181640625,397.43359375 c4.603569984436035,0 7.068039894104004,1.180340051651001 11.703069686889648,5.605110168457031 l3.528719902038574,3.3686399459838867 l11.83594036102295,-11.866849899291992 l11.835929870605469,-11.866849899291992 l-2.864650011062622,-3.20032000541687 c-5.47081995010376,-6.111849784851074 -16.91670036315918,-21.92770004272461 -21.863229751586914,-30.210460662841797 C215.84466552734375,281.14031982421875 212.335693359375,199.43359375 247.022705078125,127.93359375 c22.164270401000977,-45.68701171875 61.144901275634766,-84.18953704833984 107.27239227294922,-105.95671844482422 c22.268190383911133,-10.508170127868652 41.959590911865234,-16.39133071899414 69.23139953613281,-20.684120178222656 c12.220640182495117,-1.9236299991607666 49.51491165161133,-1.6454399824142456 62.95808029174805,0.4696100056171417 c76.65937042236328,12.061030387878418 139.31373596191406,57.34659957885742 173.3388671875,125.2865219116211 c16.251850128173828,32.451011657714844 23.515949249267578,63.948909759521484 23.612150192260742,102.38471221923828 c0.0560000017285347,22.423410415649414 -0.8030999898910522,31.115869522094727 -4.947999954223633,50.06134033203125 c-12.660449981689453,57.867820739746094 -47.75782012939453,109.17501068115234 -97.05577087402344,141.88125610351562 c-34.418739318847656,22.834779739379883 -69.93821716308594,34.84695053100586 -113.03254699707031,38.22597122192383 c-38.304290771484375,3.0034399032592773 -81.1426010131836,-5.5517401695251465 -116.8727798461914,-23.34050941467285 c-17.425689697265625,-8.675620079040527 -29.69359016418457,-16.564929962158203 -44.02322006225586,-28.31068992614746 l-6.849460124969482,-5.614389896392822 l-11.80053997039795,11.769789695739746 l-11.800530433654785,11.769800186157227 l3.3686399459838867,3.528719902038574 c4.424980163574219,4.635260105133057 5.605110168457031,7.0995001792907715 5.605110168457031,11.704130172729492 c0,3.721100091934204 -2.677069902420044,6.484250068664551 -118.77232360839844,122.59166717529297 C38.347869873046875,692.6204833984375 46.036102294921875,685.5519409179688 38.5264892578125,682.0527954101562 zM486.93572998046875,398.48822021484375 C552.0444946289062,384.9075927734375 603.2208251953125,336.61029052734375 619.9747924804688,272.93359375 c6.4399800300598145,-24.47640037536621 6.860720157623291,-55.83148956298828 1.1003299951553345,-82 c-5.543600082397461,-25.18366050720215 -20.594249725341797,-54.19626998901367 -38.884239196777344,-74.95577239990234 C562.7427978515625,93.90383911132812 534.8901977539062,75.59332275390625 507.0264892578125,66.5640869140625 c-18.739280700683594,-6.072460174560547 -31.989910125732422,-8.090880393981934 -53.26076889038086,-8.11303997039795 c-29.002670288085938,-0.03020000085234642 -49.984519958496094,4.718090057373047 -75.23922729492188,17.027009963989258 c-41.46841812133789,20.211360931396484 -73.83513641357422,57.144168853759766 -88.01509094238281,100.43170928955078 c-6.61067008972168,20.18058967590332 -7.962200164794922,29.370540618896484 -7.945059776306152,54.02381896972656 c0.011800000444054604,16.907060623168945 0.41721001267433167,23.967729568481445 1.751479983329773,30.5 c5.582970142364502,27.33293914794922 15.697139739990234,50.4167594909668 31.546770095825195,72 c8.657130241394043,11.788849830627441 28.094879150390625,30.455350875854492 40.4152717590332,38.81166076660156 c21.619779586791992,14.663640022277832 45.87062072753906,24.511350631713867 69.24662780761719,28.119470596313477 c3.8499999046325684,0.5942599773406982 8.125,1.2692699432373047 9.5,1.5000300407409668 c1.375,0.23077000677585602 11.274999618530273,0.27897000312805176 22,0.10712999850511551 c15.226160049438477,-0.24397000670433044 21.781410217285156,-0.7883099913597107 29.909250259399414,-2.483649969100952 z" style="" fill="#ffffff" fill-opacity="1"/>
    </g>
  </g><path fill="#ffffff" stroke-dashoffset="" fill-rule="nonzero" marker-start="" marker-mid="" marker-end="" id="svg_1" d="M455.843302066283,85.48570442047411 C412.4859537100724,85.48570442047411 377.33530769825927,124.53195738042655 377.33530769825927,172.6944290183785 C377.33530769825927,220.86852848630002 455.843302066283,383.4023354769791 455.843302066283,383.4023354769791 S534.351296434292,220.86852848630002 534.351296434292,172.6944290183785 C534.351296434292,124.53195738042655 499.211118155257,85.48570442047411 455.843302066283,85.48570442047411 zM455.843302066283,214.3685715462912 C435.12765928571304,214.3685715462912 418.3269484908915,195.71753231224432 418.3269484908915,172.6944290183785 S435.12765928571304,131.02028649053275 455.843302066283,131.02028649053275 S493.3596556416604,149.68295355448222 493.3596556416604,172.6944290183785 S476.5589448469589,214.3685715462912 455.843302066283,214.3685715462912 z" style="color: rgb(0, 0, 0);" class=""/></g></svg>