<svg version="1.0" xmlns="http://www.w3.org/2000/svg" width="1580.000000" height="1021.000000" preserveAspectRatio="xMidYMid meet" style=""><rect id="backgroundrect" width="100%" height="100%" x="0" y="0" fill="none" stroke="none"/>


<g class="currentLayer" style=""><title>Layer 1</title><g transform="translate(0, 1021) scale(0.1, -0.1)" fill="#ffffff" stroke="none" id="svg_1" class="" opacity="1" fill-opacity="1">
<path d="M7625.77294921875,9376.384765624998 c-30.311647415161133,-13.282026290893555 -60.623294830322266,-37.80268478393555 -78.58574676513672,-65.388427734375 c-47.151458740234375,-66.41011810302734 -752.1781005859375,-1548.8883056640625 -763.4044799804688,-1603.0380859375 c-5.613269329071045,-26.56405258178711 -6.735921859741211,-66.41011810302734 -4.490614891052246,-87.8656997680664 c8.981229782104492,-60.27996063232422 68.48187255859375,-143.03717041015625 121.24658966064453,-168.5795440673828 c77.4631118774414,-38.82438278198242 2817.86083984375,-852.0928955078125 2868.379638671875,-852.0928955078125 c51.64207077026367,0 116.75598907470703,26.56405258178711 153.80357360839844,63.34504318237305 c23.575729370117188,22.47727394104004 1322.486083984375,2265.095703125 1314.6278076171875,2271.22607421875 c-8.981229782104492,6.130165100097656 -3476.85888671875,464.8708190917969 -3517.27392578125,464.8708190917969 c-24.698379516601562,0 -67.35923767089844,-10.216941833496094 -94.30291748046875,-22.47727394104004 z" id="svg_2" opacity="1" fill="#ffffff" fill-opacity="1"/>
<path d="M13411.9296875,9225.175781249998 c-703.9039306640625,-95.01756286621094 -1478.534912109375,-198.20864868164062 -1719.905517578125,-230.9029083251953 c-242.49317932128906,-32.6942138671875 -441.2029113769531,-63.34504318237305 -441.2029113769531,-68.45350646972656 c0,-14.303718566894531 1269.7215576171875,-2216.054443359375 1298.910400390625,-2252.835205078125 c35.92491912841797,-43.9328498840332 102.16146087646484,-73.5619888305664 166.1527557373047,-73.5619888305664 c46.028812408447266,0 813.9240112304688,224.77276611328125 2652.830810546875,778.5310668945312 c223.40805053710938,66.41011810302734 264.9462585449219,88.88739013671875 307.6071472167969,164.49278259277344 c37.047576904296875,66.41011810302734 39.29287338256836,143.03717041015625 5.613269329071045,221.70761108398438 c-77.4631118774414,185.94834899902344 -730.847412109375,1532.541015625 -757.791259765625,1562.1705322265625 c-44.90615463256836,51.08469772338867 -97.67086791992188,72.54027557373047 -170.64337158203125,71.51858520507812 c-33.67961883544922,0 -637.6671752929688,-78.67044830322266 -1341.5711669921875,-172.66632080078125 z" id="svg_3" opacity="1" fill="#ffffff" fill-opacity="1"/>
<path d="M3351.830810546875,8601.940429687498 c-127.98252868652344,-17.36880111694336 -229.02134704589844,-84.80060577392578 -287.39935302734375,-192.07850646972656 l-37.047576904296875,-68.45350646972656 l-3.3679609298706055,-819.398681640625 l-2.245307445526123,-820.4203491210938 l-867.8112182617188,0 c-579.2893676757812,0 -890.2644653320312,-4.0867767333984375 -934.0479125976562,-11.23863697052002 c-86.44434356689453,-14.303718566894531 -142.57701110839844,-40.867767333984375 -202.0776824951172,-96.03925323486328 c-60.623294830322266,-54.14979553222656 -89.81230926513672,-105.23448944091797 -105.5294418334961,-183.90493774414062 c-15.71715259552002,-75.6053695678711 -15.71715259552002,-393.3522033691406 -1.1226537227630615,-465.8924865722656 c22.45307731628418,-109.3212890625 98.79351806640625,-198.20864868164062 211.0588836669922,-250.31503295898438 l63.99126434326172,-29.629131317138672 l917.2081909179688,-3.065082550048828 l918.330810546875,-2.0433883666992188 l2.245307445526123,-825.5289306640625 l3.3679609298706055,-824.507080078125 l29.188997268676758,-56.19319152832031 c52.76472091674805,-99.10432434082031 151.5582275390625,-170.6229248046875 268.3142395019531,-194.1219024658203 c41.53818893432617,-8.173553466796875 143.69967651367188,-11.23863697052002 308.7298278808594,-8.173553466796875 c243.61587524414062,3.065082550048828 248.10646057128906,3.065082550048828 314.3429870605469,31.672521591186523 c113.38802337646484,48.01962661743164 182.99256896972656,123.625 213.30421447753906,228.8594970703125 c14.594498634338379,49.04132080078125 16.83980941772461,182.88327026367188 16.83980941772461,853.1146240234375 l0,794.878173828125 l918.330810546875,2.0433883666992188 l917.2081909179688,3.065082550048828 l56.13268280029297,25.542348861694336 c84.19902801513672,38.82438278198242 166.1527557373047,116.4731216430664 196.46438598632812,189.013427734375 c22.45307731628418,53.12810516357422 26.943687438964844,84.80060577392578 31.43430519104004,245.2065887451172 c7.85857629776001,283.00927734375 -15.71715259552002,374.9617614746094 -117.8786392211914,469.979248046875 c-57.25533676147461,52.106407165527344 -121.24658966064453,82.75720977783203 -204.3229217529297,97.06095123291016 c-38.17022705078125,6.130165100097656 -388.4381408691406,10.216941833496094 -928.4345092773438,10.216941833496094 l-868.9340209960938,0 l0,786.7044067382812 c0,542.51953125 -3.3679609298706055,802.0299072265625 -12.349189758300781,839.8327026367188 c-17.962459564208984,73.5619888305664 -44.90615463256836,120.55992126464844 -103.28414154052734,172.66632080078125 c-62.86861038208008,57.214874267578125 -135.84112548828125,89.90909576416016 -224.53073120117188,102.16939544677734 c-81.95370483398438,10.216941833496094 -403.03271484375,10.216941833496094 -486.10906982421875,-1.0216941833496094 z" id="svg_4" opacity="1" fill="#ffffff" fill-opacity="1"/>
<path d="M10798.3916015625,7260.457519531248 c-239.12521362304688,-416.85125732421875 -451.3067932128906,-784.6611328125 -471.5145568847656,-816.33349609375 c-80.83106994628906,-128.73345947265625 -214.4268798828125,-233.96795654296875 -361.4944763183594,-284.03094482421875 c-83.07637786865234,-27.58574104309082 -239.12521362304688,-38.82438278198242 -316.5882873535156,-21.455577850341797 c-29.188997268676758,7.151859283447266 -482.7410888671875,140.9937744140625 -1008.14306640625,298.3346862792969 c-524.279296875,156.31924438476562 -957.62353515625,285.0526123046875 -962.1141357421875,285.0526123046875 c-5.613269329071045,0 -8.981229782104492,-597.6911010742188 -8.981229782104492,-1329.2242431640625 c0,-1180.0567626953125 2.245307445526123,-1336.3759765625 17.962459564208984,-1392.56884765625 c39.29287338256836,-136.90701293945312 134.71847534179688,-249.29335021972656 257.087646484375,-301.3997497558594 c57.25533676147461,-24.520660400390625 2920.0224609375,-781.59619140625 3120.97705078125,-825.5289306640625 c79.7083969116211,-17.36880111694336 258.2103576660156,-19.41219139099121 336.7961120605469,-3.065082550048828 c133.59580993652344,26.56405258178711 3070.45849609375,801.00830078125 3124.345703125,823.4854736328125 c33.67961883544922,13.282026290893555 79.7083969116211,37.80268478393555 103.28414154052734,55.17148208618164 c59.50065231323242,42.911155700683594 130.22784423828125,142.01547241210938 157.17149353027344,221.70761108398438 c22.45307731628418,65.388427734375 22.45307731628418,92.97417449951172 22.45307731628418,1408.9161376953125 c0,738.684814453125 -3.3679609298706055,1342.506103515625 -6.735921859741211,1342.506103515625 c-4.490614891052246,0 -436.71234130859375,-128.73345947265625 -963.2368774414062,-285.0526123046875 c-525.4019165039062,-157.3408966064453 -975.5860595703125,-290.1611022949219 -1000.2844848632812,-296.2912902832031 c-58.377994537353516,-14.303718566894531 -168.39805603027344,-14.303718566894531 -243.61587524414062,0 c-167.27540588378906,31.672521591186523 -339.04144287109375,151.2107391357422 -436.71234130859375,301.3997497558594 c-28.066341400146484,44.95454788208008 -244.73854064941406,417.8729248046875 -481.6184387207031,829.61572265625 c-236.8799285888672,410.7210388183594 -433.3443603515625,747.8800659179688 -436.71234130859375,747.8800659179688 c-3.3679609298706055,0 -202.0776824951172,-342.267578125 -442.3255615234375,-759.1187744140625 z" id="svg_5" opacity="1" fill="#ffffff" fill-opacity="1"/>
</g></g></svg>