<svg xmlns="http://www.w3.org/2000/svg" version="1.0" width="512.000000" height="512.000000" preserveAspectRatio="xMidYMid meet" style=""><rect id="backgroundrect" width="100%" height="100%" x="0" y="0" fill="none" stroke="none"/>


<g class="currentLayer" style=""><title>Layer 1</title><g transform="translate(0,512) scale(0.10000000149011612,-0.10000000149011612) " fill="#ffffff" stroke="none" id="svg_1" class="selected" fill-opacity="1">
<path d="M4214 5111 c-229 -37 -425 -183 -599 -445 -40 -61 -128 -216 -195 -345 -136 -262 -197 -364 -314 -531 -130 -184 -182 -225 -286 -224 -93 1 -142 34 -350 239 -202 199 -219 210 -325 209 -42 -1 -73 -8 -105 -24 -45 -22 -320 -284 -320 -305 0 -13 1952 -1965 1965 -1965 20 0 283 275 306 320 28 56 30 155 4 215 -11 25 -82 106 -195 220 -180 183 -219 236 -234 318 -11 60 16 137 67 189 103 105 399 291 757 477 437 226 626 408 702 678 32 112 31 296 0 408 -77 270 -276 470 -542 545 -84 23 -254 34 -336 21z m403 -341 c62 -26 135 -101 166 -168 32 -71 30 -179 -5 -254 -70 -152 -244 -226 -402 -172 -58 20 -147 100 -175 157 -88 182 1 391 192 453 58 19 160 12 224 -16z" id="svg_2" fill="#ffffff" fill-opacity="1"/>
<path d="M865 2871 c-402 -314 -749 -588 -773 -611 -74 -70 -107 -177 -81 -267 9 -35 30 -65 79 -117 l67 -70 417 332 c229 182 416 330 416 327 0 -2 -153 -186 -340 -407 l-340 -402 77 -78 c66 -67 79 -76 93 -64 8 7 215 190 460 407 245 217 452 399 460 404 8 5 3 -7 -11 -26 -86 -115 -709 -998 -709 -1005 0 -5 24 -32 52 -61 l53 -53 324 322 c179 178 320 316 314 308 -5 -8 -123 -178 -261 -376 -139 -199 -252 -366 -252 -371 0 -5 24 -32 53 -60 l52 -52 500 375 c275 207 505 378 510 382 6 3 1 -6 -11 -19 -33 -38 -767 -903 -783 -922 -13 -17 -6 -26 75 -108 49 -49 91 -89 94 -89 3 0 164 167 359 370 195 204 356 370 357 370 4 0 -31 -55 -353 -559 l-214 -335 75 -74 75 -75 143 116 c79 64 231 188 338 275 107 88 196 158 198 157 2 -2 -125 -151 -282 -332 l-287 -328 69 -66 c50 -48 80 -69 115 -78 90 -26 199 8 270 83 52 56 1149 1487 1154 1506 2 9 -343 362 -909 928 l-914 913 -729 -570z" id="svg_3" fill="#ffffff" fill-opacity="1"/>
</g></g></svg>