<svg version="1.0" xmlns="http://www.w3.org/2000/svg" width="512.000000" height="512.000000" preserveAspectRatio="xMidYMid meet" style=""><rect id="backgroundrect" width="100%" height="100%" x="0" y="0" fill="none" stroke="none"/>


<g class="currentLayer" style=""><title>Layer 1</title><g transform="translate(0, 512) scale(0.1, -0.1)" fill="#2f5496" stroke="none" id="svg_1" class="selected" fill-opacity="1">
<path d="M190 5111 c-69 -21 -130 -73 -166 -141 -18 -34 -19 -85 -19 -1300 l0 -1265 22 -40 c25 -47 74 -95 123 -121 33 -18 73 -19 666 -22 l631 -3 6 -137 c17 -397 166 -745 438 -1021 228 -231 496 -372 834 -437 121 -24 385 -24 510 -1 199 36 381 104 547 205 l91 54 91 -91 c85 -85 92 -94 88 -126 -8 -65 26 -109 281 -362 286 -285 305 -298 447 -298 72 0 93 4 141 27 70 35 132 97 167 168 23 47 27 68 27 140 0 142 -13 161 -298 447 -253 255 -297 289 -362 281 -32 -4 -41 3 -126 88 l-92 92 40 64 c147 232 227 491 240 775 l6 133 97 0 c165 0 243 39 297 148 l28 57 0 1250 0 1250 -30 55 c-33 60 -96 114 -153 130 -44 12 -4532 13 -4572 1z m4555 -186 l25 -24 0 -1231 c0 -1211 0 -1230 -20 -1250 -27 -27 -51 -31 -158 -28 l-94 3 -28 110 c-33 131 -62 210 -120 325 -200 402 -589 705 -1030 804 -186 41 -440 46 -620 11 -292 -57 -579 -208 -790 -415 -222 -218 -359 -474 -434 -812 l-6 -28 -621 0 -621 0 -29 29 -29 29 0 1222 0 1222 29 29 29 29 2247 0 2246 0 24 -25z m-1463 -1459 c254 -59 463 -173 650 -354 201 -195 328 -426 390 -710 31 -140 30 -386 0 -529 -62 -289 -192 -525 -398 -723 -186 -179 -414 -299 -676 -357 -116 -25 -409 -25 -525 0 -279 60 -492 176 -694 376 -205 203 -324 421 -380 694 -152 742 332 1466 1076 1611 120 23 137 25 300 20 114 -2 176 -9 257 -28z m928 -2431 l75 -75 -63 -62 -62 -63 -77 77 -78 78 60 60 c33 33 62 60 65 60 3 0 39 -34 80 -75z m716 -613 c37 -78 6 -180 -66 -221 -46 -25 -118 -28 -163 -5 -18 9 -132 116 -255 237 l-222 222 122 122 123 123 222 -222 c123 -123 230 -238 239 -256z" id="svg_2" fill="#2f5496" fill-opacity="1"/>
<path d="M369 4751 l-29 -29 0 -796 0 -795 24 -27 c18 -21 32 -28 61 -28 29 0 43 7 61 28 l24 27 0 797 c-1 843 1 815 -47 840 -35 19 -63 14 -94 -17z" id="svg_3" fill="#2f5496" fill-opacity="1"/>
<path d="M713 4756 l-28 -24 -3 -779 c-2 -428 0 -793 3 -811 4 -23 16 -39 38 -53 37 -22 71 -18 105 13 l22 21 0 801 c-1 847 1 819 -47 844 -33 18 -59 14 -90 -12z" id="svg_4" fill="#2f5496" fill-opacity="1"/>
<path d="M1053 4756 l-28 -24 -3 -789 c-2 -592 1 -795 10 -817 13 -32 66 -60 95 -49 10 3 28 15 41 26 l22 20 0 798 c0 439 -3 805 -6 814 -8 19 -55 45 -83 45 -11 0 -33 -11 -48 -24z" id="svg_5" fill="#2f5496" fill-opacity="1"/>
<path d="M1412 4770 c-52 -22 -52 -19 -52 -845 0 -843 -1 -822 59 -843 36 -13 76 -2 97 26 11 14 13 177 14 818 0 749 -1 803 -17 823 -21 25 -68 35 -101 21z" id="svg_6" fill="#2f5496" fill-opacity="1"/>
<path d="M1753 4770 c-12 -5 -26 -18 -32 -29 -8 -13 -11 -223 -11 -649 l0 -629 23 -21 c25 -23 75 -29 107 -12 38 20 40 54 40 667 0 647 0 652 -55 673 -31 12 -43 12 -72 0z" id="svg_7" fill="#2f5496" fill-opacity="1"/>
<path d="M2095 4768 c-46 -25 -45 -13 -45 -588 l0 -547 23 -21 c46 -44 127 -21 142 40 3 13 4 261 3 551 l-3 529 -28 24 c-30 26 -60 30 -92 12z" id="svg_8" fill="#2f5496" fill-opacity="1"/>
<path d="M2435 4768 c-46 -24 -45 -18 -45 -499 0 -446 0 -457 21 -483 39 -50 128 -28 144 36 3 13 4 223 3 466 l-3 444 -28 24 c-30 26 -60 30 -92 12z" id="svg_9" fill="#2f5496" fill-opacity="1"/>
<path d="M2775 4768 c-45 -26 -44 -23 -44 -458 0 -437 -1 -434 46 -458 35 -19 63 -14 94 17 l29 29 0 412 0 412 -29 29 c-31 30 -63 36 -96 17z" id="svg_10" fill="#2f5496" fill-opacity="1"/>
<path d="M3099 4751 l-29 -29 0 -412 0 -412 29 -29 c18 -17 40 -29 56 -29 16 0 38 12 56 29 l29 29 0 412 0 412 -29 29 c-18 17 -40 29 -56 29 -16 0 -38 -12 -56 -29z" id="svg_11" fill="#2f5496" fill-opacity="1"/>
<path d="M3439 4750 l-30 -29 3 -461 3 -462 24 -19 c33 -27 86 -25 116 6 l25 24 0 456 0 457 -29 29 c-38 38 -74 38 -112 -1z" id="svg_12" fill="#2f5496" fill-opacity="1"/>
<path d="M3779 4751 l-29 -29 0 -532 c0 -560 1 -577 45 -594 39 -15 83 -6 104 20 21 26 21 35 21 568 -1 571 0 559 -47 584 -35 19 -63 14 -94 -17z" id="svg_13" fill="#2f5496" fill-opacity="1"/>
<path d="M4123 4756 l-28 -24 0 -677 0 -677 28 -24 c37 -31 81 -31 112 1 l25 24 0 670 c0 368 -3 677 -6 686 -8 19 -55 45 -83 45 -11 0 -33 -11 -48 -24z" id="svg_14" fill="#2f5496" fill-opacity="1"/>
<path d="M4464 4757 l-29 -25 -3 -779 c-2 -550 0 -789 8 -816 9 -29 19 -42 45 -53 38 -15 59 -11 93 19 l22 20 0 803 c0 897 5 838 -71 850 -29 5 -41 1 -65 -19z" id="svg_15" fill="#2f5496" fill-opacity="1"/>
<path d="M382 2893 c-29 -12 -42 -62 -42 -167 0 -95 2 -107 23 -130 12 -15 36 -29 54 -32 27 -5 37 -1 63 24 30 30 30 31 30 147 0 110 -1 117 -25 140 -23 24 -69 32 -103 18z" id="svg_16" fill="#2f5496" fill-opacity="1"/>
<path d="M712 2880 c-30 -28 -34 -53 -30 -169 3 -112 15 -135 74 -147 24 -4 37 0 62 21 l32 27 0 119 c0 114 -1 121 -25 144 -30 31 -82 33 -113 5z" id="svg_17" fill="#2f5496" fill-opacity="1"/>
<path d="M1049 2874 c-22 -23 -24 -35 -27 -132 -3 -119 6 -149 52 -170 32 -16 69 -9 96 18 18 18 20 34 20 140 0 115 -1 122 -25 145 -33 34 -83 34 -116 -1z" id="svg_18" fill="#2f5496" fill-opacity="1"/>
<path d="M2800 3315 c-249 -41 -466 -151 -648 -329 -486 -474 -479 -1248 14 -1716 301 -286 731 -394 1134 -284 320 87 602 319 752 619 99 198 143 436 119 651 -59 525 -433 939 -951 1050 -104 22 -314 27 -420 9z m395 -179 c318 -69 578 -276 716 -570 212 -454 59 -1002 -360 -1280 -398 -265 -917 -221 -1267 107 -283 264 -392 673 -277 1042 117 372 425 642 811 711 94 16 279 12 377 -10z" id="svg_19" fill="#2f5496" fill-opacity="1"/>
<path d="M2855 2979 c-157 -23 -328 -106 -447 -217 -39 -36 -48 -51 -48 -78 0 -47 8 -63 42 -80 42 -22 72 -11 137 47 59 54 204 129 281 147 25 6 77 14 115 17 83 8 109 19 124 52 18 39 13 63 -18 94 -32 32 -66 35 -186 18z" id="svg_20" fill="#2f5496" fill-opacity="1"/>
</g></g></svg>