<svg version="1.0" xmlns="http://www.w3.org/2000/svg" width="512.000000" height="512.000000" preserveAspectRatio="xMidYMid meet" style=""><rect id="backgroundrect" width="100%" height="100%" x="0" y="0" fill="none" stroke="none"/>


<g class="currentLayer" style=""><title>Layer 1</title><g transform="translate(0, 512) scale(0.1, -0.1)" fill="#2f5496" stroke="none" id="svg_1" class="selected" fill-opacity="1">
<path d="M647 5025 c-110 -30 -214 -120 -259 -225 -14 -31 -65 -340 -164 -980 l-144 -935 2 -691 3 -690 37 -76 c45 -91 103 -147 196 -191 l67 -32 888 -3 887 -3 0 -559 0 -560 1040 0 1040 0 0 559 0 559 248 4 248 3 76 37 c91 45 147 103 191 196 l32 67 3 686 3 685 -145 941 c-160 1044 -152 1006 -245 1102 -53 54 -110 87 -186 107 -73 20 -3746 19 -3818 -1z m110 -1507 c44 -93 100 -151 191 -196 l76 -37 1536 0 1536 0 76 37 c91 45 147 103 191 196 l32 67 5 647 5 646 39 -13 c55 -19 107 -65 133 -116 18 -35 49 -217 156 -914 l133 -870 -1153 -3 c-634 -1 -1672 -1 -2306 0 l-1153 3 132 855 c72 470 134 869 138 887 9 39 56 106 91 129 14 9 42 22 63 29 l37 13 5 -646 5 -647 32 -67z m3483 746 c0 -455 -3 -627 -12 -658 -16 -55 -99 -138 -154 -154 -60 -17 -2968 -17 -3028 0 -55 16 -138 99 -154 154 -9 31 -12 203 -12 658 l0 616 1680 0 1680 0 0 -616z m640 -1544 l0 -80 -2320 0 -2320 0 0 80 0 80 2320 0 2320 0 0 -80z m0 -696 c0 -329 -3 -468 -12 -498 -16 -55 -99 -138 -154 -154 -27 -8 -117 -12 -258 -12 l-216 0 0 80 0 80 160 0 160 0 0 320 0 320 -1360 0 -1360 0 0 -320 0 -320 160 0 160 0 0 -80 0 -80 -856 0 c-643 0 -867 3 -898 12 -55 16 -138 99 -154 154 -9 30 -12 169 -12 498 l0 456 2320 0 2320 0 0 -456z m-2720 -184 l0 -160 -80 0 -80 0 0 160 0 160 80 0 80 0 0 -160z m1920 -720 l0 -880 -880 0 -880 0 0 880 0 880 880 0 880 0 0 -880z m320 720 l0 -160 -80 0 -80 0 0 160 0 160 80 0 80 0 0 -160z" id="svg_2" fill="#2f5496" fill-opacity="1"/>
<path d="M1040 4480 l0 -240 720 0 720 0 0 240 0 240 -720 0 -720 0 0 -240z m1280 0 l0 -80 -560 0 -560 0 0 80 0 80 560 0 560 0 0 -80z" id="svg_3" fill="#2f5496" fill-opacity="1"/>
<path d="M2735 4706 c-41 -18 -83 -69 -91 -110 -3 -19 -4 -84 -2 -144 3 -120 12 -142 72 -186 26 -20 41 -21 246 -21 205 0 220 1 246 21 64 47 69 63 69 214 0 151 -5 167 -69 214 -25 19 -43 21 -234 23 -157 2 -214 0 -237 -11z m385 -226 l0 -80 -160 0 -160 0 0 80 0 80 160 0 160 0 0 -80z" id="svg_4" fill="#2f5496" fill-opacity="1"/>
<path d="M3535 4706 c-41 -18 -83 -69 -91 -110 -3 -19 -4 -84 -2 -144 3 -120 12 -142 72 -186 26 -20 41 -21 246 -21 205 0 220 1 246 21 64 47 69 63 69 214 0 151 -5 167 -69 214 -25 19 -43 21 -234 23 -157 2 -214 0 -237 -11z m385 -226 l0 -80 -160 0 -160 0 0 80 0 80 160 0 160 0 0 -80z" id="svg_5" fill="#2f5496" fill-opacity="1"/>
<path d="M1040 4000 l0 -80 80 0 80 0 0 80 0 80 -80 0 -80 0 0 -80z" id="svg_6" fill="#2f5496" fill-opacity="1"/>
<path d="M1360 4000 l0 -80 80 0 80 0 0 80 0 80 -80 0 -80 0 0 -80z" id="svg_7" fill="#2f5496" fill-opacity="1"/>
<path d="M1680 4000 l0 -80 80 0 80 0 0 80 0 80 -80 0 -80 0 0 -80z" id="svg_8" fill="#2f5496" fill-opacity="1"/>
<path d="M2000 4000 l0 -80 80 0 80 0 0 80 0 80 -80 0 -80 0 0 -80z" id="svg_9" fill="#2f5496" fill-opacity="1"/>
<path d="M2320 4000 l0 -80 80 0 80 0 0 80 0 80 -80 0 -80 0 0 -80z" id="svg_10" fill="#2f5496" fill-opacity="1"/>
<path d="M2735 4066 c-41 -18 -83 -69 -91 -110 -3 -19 -4 -84 -2 -144 3 -120 12 -142 72 -186 26 -20 41 -21 246 -21 205 0 220 1 246 21 64 47 69 63 69 214 0 151 -5 167 -69 214 -25 19 -43 21 -234 23 -157 2 -214 0 -237 -11z m385 -226 l0 -80 -160 0 -160 0 0 80 0 80 160 0 160 0 0 -80z" id="svg_11" fill="#2f5496" fill-opacity="1"/>
<path d="M3760 4067 c-49 -16 -133 -102 -148 -153 -28 -94 -8 -169 63 -239 51 -52 102 -75 165 -75 63 0 114 23 165 75 98 97 101 222 8 325 -65 72 -158 97 -253 67z m135 -172 c16 -15 25 -36 25 -55 0 -19 -9 -40 -25 -55 -15 -16 -36 -25 -55 -25 -19 0 -40 9 -55 25 -16 15 -25 36 -25 55 0 19 9 40 25 55 15 16 36 25 55 25 19 0 40 -9 55 -25z" id="svg_12" fill="#2f5496" fill-opacity="1"/>
<path d="M1040 3680 l0 -80 80 0 80 0 0 80 0 80 -80 0 -80 0 0 -80z" id="svg_13" fill="#2f5496" fill-opacity="1"/>
<path d="M1360 3680 l0 -80 80 0 80 0 0 80 0 80 -80 0 -80 0 0 -80z" id="svg_14" fill="#2f5496" fill-opacity="1"/>
<path d="M1680 3680 l0 -80 80 0 80 0 0 80 0 80 -80 0 -80 0 0 -80z" id="svg_15" fill="#2f5496" fill-opacity="1"/>
<path d="M2000 3680 l0 -80 80 0 80 0 0 80 0 80 -80 0 -80 0 0 -80z" id="svg_16" fill="#2f5496" fill-opacity="1"/>
<path d="M2320 3680 l0 -80 80 0 80 0 0 80 0 80 -80 0 -80 0 0 -80z" id="svg_17" fill="#2f5496" fill-opacity="1"/>
<path d="M866 2310 c-63 -16 -153 -70 -197 -117 -22 -24 -55 -74 -72 -111 -29 -61 -32 -76 -32 -163 0 -90 2 -99 37 -171 45 -91 103 -147 196 -191 61 -29 76 -32 162 -32 86 0 101 3 162 32 93 44 151 100 196 191 35 72 37 81 37 172 0 91 -2 100 -37 172 -68 136 -188 217 -336 224 -42 2 -94 -1 -116 -6z m14 -320 l0 -150 80 0 80 0 0 150 c0 83 2 150 5 150 19 0 68 -35 97 -70 84 -97 77 -222 -17 -315 -101 -102 -229 -102 -330 0 -92 91 -101 215 -22 311 28 34 82 74 100 74 4 0 7 -67 7 -150z" id="svg_18" fill="#2f5496" fill-opacity="1"/>
<path d="M2480 1120 l0 -720 80 0 80 0 0 720 0 720 -80 0 -80 0 0 -720z" id="svg_19" fill="#2f5496" fill-opacity="1"/>
<path d="M2800 1280 l0 -560 80 0 80 0 0 560 0 560 -80 0 -80 0 0 -560z" id="svg_20" fill="#2f5496" fill-opacity="1"/>
<path d="M3120 1280 l0 -560 80 0 80 0 0 560 0 560 -80 0 -80 0 0 -560z" id="svg_21" fill="#2f5496" fill-opacity="1"/>
<path d="M3440 1280 l0 -560 80 0 80 0 0 560 0 560 -80 0 -80 0 0 -560z" id="svg_22" fill="#2f5496" fill-opacity="1"/>
<path d="M3760 1120 l0 -720 80 0 80 0 0 720 0 720 -80 0 -80 0 0 -720z" id="svg_23" fill="#2f5496" fill-opacity="1"/>
<path d="M2800 480 l0 -80 80 0 80 0 0 80 0 80 -80 0 -80 0 0 -80z" id="svg_24" fill="#2f5496" fill-opacity="1"/>
<path d="M3120 480 l0 -80 80 0 80 0 0 80 0 80 -80 0 -80 0 0 -80z" id="svg_25" fill="#2f5496" fill-opacity="1"/>
<path d="M3440 480 l0 -80 80 0 80 0 0 80 0 80 -80 0 -80 0 0 -80z" id="svg_26" fill="#2f5496" fill-opacity="1"/>
</g></g></svg>