<svg xmlns:dc="http://purl.org/dc/elements/1.1/" xmlns:cc="http://creativecommons.org/ns#" xmlns:rdf="http://www.w3.org/1999/02/22-rdf-syntax-ns#" xmlns:svg="http://www.w3.org/2000/svg" xmlns="http://www.w3.org/2000/svg" xmlns:sodipodi="http://sodipodi.sourceforge.net/DTD/sodipodi-0.dtd" xmlns:inkscape="http://www.inkscape.org/namespaces/inkscape" width="153" height="111" version="1.1" inkscape:version="1.0 (4035a4fb49, 2020-05-01)" sodipodi:docname="Imprimir_Docume A_B.svg" style=""><rect id="backgroundrect" width="100%" height="100%" x="0" y="0" fill="none" stroke="none" style="" class=""/>
  <defs id="defs2282"/>
  <sodipodi:namedview id="base" pagecolor="#ffffff" bordercolor="#666666" borderopacity="1.0" inkscape:pageopacity="0.0" inkscape:pageshadow="2" inkscape:zoom="0.49497475" inkscape:cx="242.56468" inkscape:cy="632.88253" inkscape:document-units="mm" inkscape:current-layer="layer1" inkscape:document-rotation="0" showgrid="false" inkscape:window-width="1920" inkscape:window-height="986" inkscape:window-x="-11" inkscape:window-y="-11" inkscape:window-maximized="1"/>
  <metadata id="metadata2285">
    <rdf:RDF>
      <cc:Work rdf:about="">
        <dc:format>image/svg+xml</dc:format>
        <dc:type rdf:resource="http://purl.org/dc/dcmitype/StillImage"/>
        <dc:title/>
      </cc:Work>
    </rdf:RDF>
  </metadata>
  
<g class="currentLayer" style=""><title>Layer 1</title>
    
    
    
    
    
  <g class=""><path transform="translate(-9.7561, -50.4065) scale(0.264583)" id="path2919" d="m36.875765800476074,305.83278369903564 c0,-98.82245635986328 0.018200000748038292,-99.44783782958984 3.0106699466705322,-103.65042877197266 c1.655869960784912,-2.3254499435424805 5.664259910583496,-5.9032301902771 8.907529830932617,-7.950620174407959 l5.896860122680664,-3.722520112991333 l183.5189666748047,1.003159999847412 c181.36285400390625,0.991379976272583 183.5743865966797,1.0374200344085693 188.23638916015625,3.9186899662017822 c9.583169937133789,5.922729969024658 9.001009941101074,-1.154670000076294 9.001009941101074,109.42762756347656 V405.2551164627075 H236.16164684295654 H36.875765800476074 z" style="fill:#ffffff;fill-opacity:1;stroke:#ffffff;stroke-width:0;stroke-opacity:1" class=""/><path transform="translate(-9.7561, -50.4065) scale(0.264583)" id="path2921" d="m536.3548231124878,538.8174638748169 c-2.2505300045013428,-1.1737300157546997 -5.946959972381592,-2.1340599060058594 -8.214289665222168,-2.1340599060058594 c-3.612799882888794,0 -4.122409820556641,-0.5211099982261658 -4.122409820556641,-4.215400218963623 c0,-8.053629875183105 -3.1465699672698975,-19.41659927368164 -8.318129539489746,-30.038610458374023 c-13.089730262756348,-26.885379791259766 -41.24620819091797,-43.03559875488281 -67.3724594116211,-38.64405822753906 c-30.86935043334961,5.188809871673584 -53.64606857299805,30.652240753173828 -57.90439987182617,64.7347412109375 l-1.0199400186538696,8.163330078125 H318.3239393234253 H247.24401378631592 l-0.9495900273323059,-7.158329963684082 c-6.689459800720215,-50.42757034301758 -52.55733871459961,-79.99600982666016 -93.11813354492188,-60.028011322021484 c-22.27935028076172,10.968099594116211 -37.38190841674805,33.23590850830078 -40.141578674316406,59.186378479003906 l-0.8963299989700317,8.428629875183105 l-21.559799194335938,-0.925059974193573 c-20.214759826660156,-0.8673200011253357 -22.084819793701172,-1.192639946937561 -29.975400924682617,-5.214320182800293 c-4.628580093383789,-2.3591198921203613 -9.771439552307129,-4.291689872741699 -11.428569793701172,-4.29463005065918 c-1.6571400165557861,-0.003000000026077032 -5.102260112762451,-1.2791999578475952 -7.655829906463623,-2.8361499309539795 l-4.642859935760498,-2.8308000564575195 v-45.020999908447266 v-45.020999908447266 H242.59020519256592 H448.3044080734253 v-100 v-100 l51.07143020629883,0.01360000018030405 l51.07143020629883,0.01360000018030405 l8.854229927062988,5.617400169372559 c10.259570121765137,6.5089898109436035 17.919029235839844,16.216779708862305 20.907190322875977,26.498310089111328 c4.529419898986816,15.584639549255371 12.387539863586426,50.80765151977539 14.501239776611328,65 c1.2286800146102905,8.25 2.638469934463501,26.043529510498047 3.1328699588775635,39.54117965698242 l0.8989099860191345,24.541179656982422 l6.228919982910156,4.667129993438721 c8.571240425109863,6.422150135040283 10.726770401000977,10.267829895019531 11.557740211486816,20.62006950378418 c1.2844200134277344,16.001060485839844 -0.20980000495910645,20.80946922302246 -9.73153018951416,31.316329956054688 l-8.492429733276367,9.371049880981445 v18.63888931274414 v18.63888931274414 l5,4.715610027313232 l5,4.71560001373291 v14.281530380249023 c0,12.285079956054688 -0.4138999879360199,14.807700157165527 -2.960819959640503,18.04560089111328 l-2.960829973220825,3.764080047607422 l-30.967750549316406,-0.008999999612569809 c-24.67864990234375,-0.007000000216066837 -31.79874038696289,-0.4422000050544739 -35.059608459472656,-2.142849922180176 zm55.56093978881836,-182.49119567871094 c-1.682170033454895,-18.077510833740234 -4.955039978027344,-38.4322509765625 -8.786109924316406,-54.642860412597656 c-2.0425899028778076,-8.642860412597656 -4.392920017242432,-19.089290618896484 -5.222959995269775,-23.214290618896484 l-1.509160041809082,-7.5 h-54.29151153564453 c-48.514060974121094,0 -54.56949996948242,0.2515999972820282 -56.90399169921875,2.364269971847534 c-2.421149969100952,2.191119909286499 -2.6124799251556396,5.526309967041016 -2.6124799251556396,45.539371490478516 c0,33.02851867675781 0.423909991979599,43.52690887451172 1.8038300275802612,44.67213821411133 c2.850529909133911,2.36572003364563 9.637200355529785,2.643389940261841 70.84114837646484,2.898360013961792 l57.644989013671875,0.24015000462532043 z" style="fill:#ffffff;fill-opacity:1;stroke:#ffffff;stroke-width:0;stroke-opacity:1" class=""/><path transform="translate(-9.7561, -50.4065) scale(0.264583)" id="path2923" d="m169.01877880096436,611.1748247146606 c-22.559410095214844,-4.045060157775879 -42.60456085205078,-26.66259002685547 -46.478790283203125,-52.44337844848633 c-4.186100006103516,-27.856159210205078 10.068940162658691,-56.27555847167969 34.18014907836914,-68.14286804199219 c8.621520042419434,-4.243420124053955 10.500049591064453,-4.617000102996826 23.07659912109375,-4.58912992477417 c12.494290351867676,0.027699999511241913 14.50590991973877,0.4314799904823303 23.012920379638672,4.619460105895996 c30.85610008239746,15.190409660339355 43.562679290771484,54.80596160888672 28.050029754638672,87.45210266113281 c-5.954020023345947,12.530130386352539 -19.367429733276367,25.785839080810547 -30.190080642700195,29.83510971069336 c-8.931139945983887,3.3415699005126953 -23.08970069885254,4.8037800788879395 -31.650829315185547,3.268709897994995 z" style="fill:#ffffff;fill-opacity:1;stroke:#ffffff;stroke-width:0;stroke-opacity:1" class=""/><path transform="translate(-9.7561, -50.4065) scale(0.264583)" id="path2925" d="m444.73305797576904,610.4726152420044 c-27.235219955444336,-7.083449840545654 -45.403648376464844,-31.795249938964844 -45.323219299316406,-61.64638137817383 c0.07119999825954437,-26.415180206298828 13.071189880371094,-47.57617950439453 35.86125183105469,-58.3737907409668 c8.479829788208008,-4.017620086669922 10.796509742736816,-4.476200103759766 22.319110870361328,-4.418000221252441 c16.08102035522461,0.0812000036239624 25.51597023010254,3.9937500953674316 37.733848571777344,15.647629737854004 c38.734928131103516,36.946861267089844 16.76279067993164,106.46314239501953 -34.78242111206055,110.04593658447266 c-4.766139984130859,0.33129000663757324 -11.880000114440918,-0.23364999890327454 -15.80856990814209,-1.2553999423980713 z" style="fill:#ffffff;fill-opacity:1;stroke:#ffffff;stroke-width:0;stroke-opacity:1" class=""/></g></g></svg>