<svg version="1.1" xmlns="http://www.w3.org/2000/svg" xmlns:xlink="http://www.w3.org/1999/xlink" width="688" height="973" style="enable-background:new 0 0 973.1 973.1;" xml:space="preserve"><rect id="backgroundrect" width="100%" height="100%" x="0" y="0" fill="none" stroke="none" style="" class=""/>
















<g class="currentLayer" style=""><title>Layer 1</title>
	
	
<g class="" stroke-width="0" fill="#ffffff" fill-opacity="1" stroke="none" opacity="1"><path d="M359.6806335449219,788.198974609375 h-47 c-33.099998474121094,0 -60,26.899999618530273 -60,60 v64.9000015258789 c0,33.099998474121094 26.899999618530273,60 60,60 h47 c33.10100173950195,0 60,-26.899999618530273 60,-60 v-64.9000015258789 C419.68060302734375,815 392.7816162109375,788.198974609375 359.6806335449219,788.198974609375 z" id="svg_2" class="" stroke-width="0" fill="#ffffff" fill-opacity="1" stroke="none" stroke-opacity="1" opacity="1"/><path d="M28.280624389648438,285.79998779296875 l86.69999694824219,10.800000190734863 c27.5,3.4000000953674316 53.599998474121094,-12.399999618530273 63.5,-38.29999923706055 c12.5,-32.70000076293945 29.899999618530273,-58.5 52.20000076293945,-77.30000305175781 c31.60099983215332,-26.600000381469727 70.9000015258789,-40 117.9000015258789,-40 c48.70000076293945,0 87.5,12.800000190734863 116.30000305175781,38.29999923706055 c28.799999237060547,25.600000381469727 43.099998474121094,56.20000076293945 43.099998474121094,92.0999984741211 c0,25.799999237060547 -8.100000381469727,49.400001525878906 -24.299999237060547,70.80000305175781 c-10.5,13.600000381469727 -42.79999923706055,42.20000076293945 -96.69999694824219,85.9000015258789 c-54,43.70000076293945 -89.89900207519531,83.0989990234375 -107.89900207519531,118.0989990234375 c-18.399999618530273,35.80099868774414 -24.799999237060547,75.5 -26.399999618530273,115.3010025024414 c-1.3990000486373901,34.099998474121094 25.799999237060547,62.5 60,62.5 h49 c31.200000762939453,0 57,-23.899999618530273 59.79999923706055,-54.900001525878906 c2,-22.298999786376953 5.699999809265137,-39.19900131225586 11.300999641418457,-50.69900131225586 c9.39900016784668,-19.701000213623047 33.69900131225586,-45.70100021362305 72.6989974975586,-78.0999984741211 C580.9806518554688,477.79998779296875 630.1806030273438,428.3999938964844 653.2816162109375,392 c23,-36.29999923706055 34.599998474121094,-74.80000305175781 34.599998474121094,-115.5 c0,-73.5 -31.299999237060547,-138 -94,-193.39999389648438 c-62.599998474121094,-55.400001525878906 -147,-83.0999984741211 -253,-83.0999984741211 c-100.80000305175781,0 -182.10000610351562,27.299999237060547 -244.10000610351562,82 c-52.79999923706055,46.599998474121094 -84.9000015258789,101.80000305175781 -96.19999694824219,165.5 C-2.91937255859375,266.1000061035156 9.780624389648438,283.5 28.280624389648438,285.79998779296875 z" id="svg_3" class="" stroke-width="0" fill="#ffffff" fill-opacity="1" stroke="none" stroke-opacity="1" opacity="1"/></g></g></svg>