<svg xmlns:dc="http://purl.org/dc/elements/1.1/" xmlns:cc="http://creativecommons.org/ns#" xmlns:rdf="http://www.w3.org/1999/02/22-rdf-syntax-ns#" xmlns:svg="http://www.w3.org/2000/svg" xmlns="http://www.w3.org/2000/svg" xmlns:xlink="http://www.w3.org/1999/xlink" xmlns:sodipodi="http://sodipodi.sourceforge.net/DTD/sodipodi-0.dtd" xmlns:inkscape="http://www.inkscape.org/namespaces/inkscape" sodipodi:docname="Inventario B_A.svg" inkscape:version="1.0 (4035a4fb49, 2020-05-01)" width="141" height="180" version="1.1" inkscape:export-filename="C:\Users\Vicente\Desktop\dibujo.png" inkscape:export-xdpi="96" inkscape:export-ydpi="96"><rect id="backgroundrect" width="100%" height="100%" x="0" y="0" fill="none" stroke="none" style="" class=""/>
  <defs id="defs2">
    <inkscape:path-effect end_linecap_type="zerowidth" scale_width="1" miter_limit="4" linejoin_type="extrp_arc" start_linecap_type="zerowidth" interpolator_beta="0.2" interpolator_type="CubicBezierJohan" sort_points="true" offset_points="0,0.1322915" lpeversion="1" is_visible="true" id="path-effect1157" effect="powerstroke"/>
    <inkscape:path-effect end_linecap_type="zerowidth" scale_width="1" miter_limit="4" linejoin_type="extrp_arc" start_linecap_type="zerowidth" interpolator_beta="0.2" interpolator_type="CubicBezierJohan" sort_points="true" offset_points="0,0.1322915" lpeversion="1" is_visible="true" id="path-effect1153" effect="powerstroke"/>
    <inkscape:path-effect end_linecap_type="zerowidth" scale_width="1" miter_limit="4" linejoin_type="extrp_arc" start_linecap_type="zerowidth" interpolator_beta="0.2" interpolator_type="CubicBezierJohan" sort_points="true" offset_points="0,0.1322915" lpeversion="1" is_visible="true" id="path-effect1149" effect="powerstroke"/>
    <inkscape:path-effect effect="powerstroke" id="path-effect306" is_visible="true" lpeversion="1" offset_points="0,0.1322915" sort_points="true" interpolator_type="CubicBezierJohan" interpolator_beta="0.2" start_linecap_type="zerowidth" linejoin_type="extrp_arc" miter_limit="4" scale_width="1" end_linecap_type="zerowidth"/>
    <inkscape:path-effect end_linecap_type="zerowidth" scale_width="1" miter_limit="4" linejoin_type="extrp_arc" start_linecap_type="zerowidth" interpolator_beta="0.2" interpolator_type="CubicBezierJohan" sort_points="true" offset_points="0,0.1322915" lpeversion="1" is_visible="true" id="path-effect1502" effect="powerstroke"/>
    <inkscape:path-effect only_selected="false" apply_with_weight="true" apply_no_weight="true" helper_size="0" steps="2" weight="33.333333" lpeversion="1" is_visible="true" id="path-effect1117" effect="bspline"/>
  </defs>
  <sodipodi:namedview inkscape:guide-bbox="true" inkscape:window-maximized="1" inkscape:window-y="-11" inkscape:window-x="-11" inkscape:window-height="986" inkscape:window-width="1920" inkscape:lockguides="true" inkscape:snap-global="true" inkscape:snap-bbox="true" showgrid="false" inkscape:document-rotation="0" inkscape:current-layer="layer1" inkscape:document-units="px" inkscape:cy="739.2682" inkscape:cx="508.42511" inkscape:zoom="4" inkscape:pageshadow="2" inkscape:pageopacity="0.0" borderopacity="1.0" bordercolor="#666666" pagecolor="#ffffff" id="base" inkscape:snap-grids="true" showguides="false" units="mm">
    <inkscape:grid id="grid851" type="xygrid" color="#ff3f5a" opacity="0.1254902" empcolor="#ff3f3f" empopacity="0.25098039"/>
    <sodipodi:guide id="guide169" orientation="0,-1" position="146.84375,182.84998" inkscape:locked="true"/>
  </sodipodi:namedview>
  <metadata id="metadata5">
    <rdf:RDF>
      <cc:Work rdf:about="">
        <dc:format>image/svg+xml</dc:format>
        <dc:type rdf:resource="http://purl.org/dc/dcmitype/StillImage"/>
        <dc:title/>
      </cc:Work>
    </rdf:RDF>
  </metadata>
  
<g class="currentLayer" style=""><title>Layer 1</title>
    
    
    
    
    
    
    
    
    
    
    
    
    
    
    
    
    
    
    
    
    
    
    
    
    
    
    
    
    
    
    
    
    
    
    
    
    
    
    
    
    
    
    
    
    
    
    
    
    
    
    
    
    
    
    
    
    
    
    
    
    
    
    
    
    
    
    
    
    
    
    
    
    
    
    
    
    
    
    
    
    
    
    
    
    
    
    
    
    
    
    
    
    
    
    
    
    
    
    
    
    
    
    
    
    
    
    
    
    
    
    
    
    
    
    
    
    
    
    
    
    
    
    
    
    
    
    
    
    
    
    
    
    
    
    
    
    
    
    
  <g class=""><path transform="translate(-37.8164, -29.3672) scale(0.264583)" id="path940" d="m 217.60418,488.81169 c -0.0887,-0.14359 0.12624,-0.39212 0.47774,-0.55227 0.62567,-0.28507 0.6391,-0.3457 0.6391,-2.88391 0,-1.98237 -0.0818,-2.6241 -0.34737,-2.72602 -0.20084,-0.0771 -0.294,-0.33741 -0.22084,-0.61715 0.14601,-0.55835 0.34588,-0.60618 0.76821,-0.18386 0.23333,0.23334 0.3,0.22654 0.3,-0.0306 0,-0.26553 0.0738,-0.26934 0.375,-0.0194 0.52104,0.43242 0.46811,0.75 -0.125,0.75 -0.275,0 -0.5,0.1176 -0.5,0.26133 0,0.16326 0.32836,0.19973 0.875,0.0972 0.57356,-0.1076 0.875,-0.0684 0.875,0.11367 0,0.1528 -0.0844,0.2645 -0.1875,0.24822 -0.41609,-0.0657 -0.81246,0.0403 -0.81176,0.2171 4e-4,0.10313 0.37706,0.19523 0.83703,0.20468 0.54091,0.0111 1.08828,0.25083 1.54972,0.6787 0.81464,0.75538 0.68417,1.18277 -0.17695,0.57962 -0.6676,-0.4676 -1.19769,-0.53765 -0.76054,-0.1005 0.165,0.165 0.3,0.47129 0.3,0.68063 0,0.26589 -0.11731,0.21314 -0.38917,-0.175 -0.21405,-0.30559 -0.4953,-0.55563 -0.625,-0.55563 -0.38249,0 -0.26927,0.68368 0.13917,0.84041 0.20625,0.0791 0.36612,0.40056 0.35526,0.71425 -0.0109,0.31369 -0.0765,0.42972 -0.14583,0.25784 -0.22272,-0.55195 -0.58333,-0.3338 -0.61991,0.375 -0.0276,0.53584 -0.075,0.46691 -0.21452,-0.3125 l -0.17905,-1 -0.0355,1.05965 c -0.0351,1.04943 -0.67325,2.16422 -1.09102,1.90603 -0.119,-0.0736 -0.37017,-0.006 -0.55815,0.14994 -0.23389,0.19411 -0.39273,0.20124 -0.50315,0.0226 z" style="opacity:1;fill:#000080;fill-opacity:1;fill-rule:nonzero;stroke:#0000ff;stroke-width:0.944882;stroke-miterlimit:4;stroke-dasharray:none;stroke-opacity:0" sodipodi:nodetypes="sssssssssssssssssssssssssscsssss" class=""/><path transform="translate(-37.8164, -29.3672) scale(0.264583)" id="path942" d="m 234.15852,493.62615 c -0.24062,-0.0629 -0.4375,-0.21539 -0.4375,-0.33891 0,-0.12352 -0.83993,-1.06724 -1.86651,-2.09716 -1.02658,-1.02992 -1.77235,-1.93077 -1.65727,-2.0019 0.11508,-0.0711 0.46598,0.0933 0.77976,0.36549 0.98708,0.85609 1.89814,0.51969 1.2714,-0.46944 -0.13486,-0.21285 -0.41288,-0.27643 -0.74617,-0.17065 -0.32177,0.10213 -0.53121,0.0602 -0.53121,-0.1063 0,-0.3679 -1.0596,-0.75353 -1.37571,-0.50068 -0.13789,0.1103 -0.46396,0.0446 -0.72459,-0.14597 -0.38474,-0.28133 -0.41599,-0.41628 -0.16614,-0.71733 0.16926,-0.20395 0.23462,-0.60122 0.14525,-0.88282 -0.11659,-0.36734 -0.0518,-0.512 0.22934,-0.512 0.22518,0 0.39185,0.21267 0.39185,0.5 0,0.27778 0.16667,0.5 0.375,0.5 0.44095,0 0.52012,-1.1308 0.0974,-1.39202 -0.16456,-0.10171 -0.22039,-0.52381 -0.13713,-1.03685 0.1149,-0.7081 0.0708,-0.83858 -0.2429,-0.71822 -0.21082,0.0809 -0.42747,0.14709 -0.48145,0.14709 -0.054,0 -0.27266,0.3375 -0.48597,0.75 -0.21331,0.4125 -0.54317,0.75 -0.73301,0.75 -0.495,0 -0.21342,-0.86038 0.52237,-1.59618 0.74051,-0.7405 0.36637,-1.09928 -0.5323,-0.51045 -0.38389,0.25153 -0.63206,0.30469 -0.63206,0.13539 0,-0.15332 0.1125,-0.27876 0.25,-0.27876 0.1375,0 0.25,-0.16875 0.25,-0.375 0,-0.20625 0.15998,-0.375 0.35552,-0.375 0.19554,0 0.7407,-0.45 1.21148,-1 0.47078,-0.55 0.97147,-1 1.11264,-1 0.14118,0 0.7353,-0.53437 1.32028,-1.1875 2.80544,-3.13226 3.50008,-3.78565 3.50008,-3.29223 0,0.26759 -0.13781,0.70718 -0.30624,0.97689 -0.24165,0.38694 -0.24165,0.55495 0,0.7966 0.22959,0.22959 0.29687,2.15537 0.26878,7.69374 -0.0206,4.06313 -0.0843,7.07813 -0.1416,6.7 -0.0579,-0.38185 -0.26348,-0.6875 -0.46254,-0.6875 -0.19712,0 -0.3584,-0.0913 -0.3584,-0.20286 0,-0.29679 -0.97756,-1.29714 -1.26758,-1.29714 -0.13646,0 -0.31465,0.1734 -0.39598,0.38533 -0.0955,0.2488 0.26164,0.78906 1.00785,1.52472 0.63564,0.62666 1.15571,1.29702 1.15571,1.48967 0,0.19266 -0.0281,0.33723 -0.0625,0.32128 -0.0344,-0.0159 -0.25937,-0.0804 -0.5,-0.14333 z m -3.9375,-10.96742 c 0,-0.36749 -0.53372,-0.49319 -0.83116,-0.19575 -0.22609,0.22608 0.3342,0.86313 0.60949,0.693 0.12192,-0.0754 0.22167,-0.29911 0.22167,-0.49725 z m 3.68229,-0.0113 c -0.0831,-0.0831 -0.2987,-0.0919 -0.47916,-0.0197 -0.19944,0.0798 -0.1402,0.13904 0.15104,0.15104 0.26354,0.0109 0.4112,-0.0482 0.32812,-0.13131 z m -1.18229,-1.07221 c 0,-0.58647 -0.69403,-0.88442 -1.15977,-0.49789 -0.26207,0.2175 -0.27733,0.3707 -0.0627,0.62931 0.42615,0.51348 1.22247,0.42787 1.22247,-0.13142 z m 1.625,-2.03017 c 0,-0.88957 -0.72813,-0.81261 -0.83122,0.0879 -0.0657,0.57364 0.006,0.69262 0.375,0.62158 0.29574,-0.057 0.45622,-0.30651 0.45622,-0.70944 z" style="opacity:1;fill:#000080;fill-opacity:1;fill-rule:nonzero;stroke:#0000ff;stroke-width:0.944882;stroke-miterlimit:4;stroke-dasharray:none;stroke-opacity:0" sodipodi:nodetypes="sssscsssssssssssssssssssssssssssssssssssssssssssssssssssssssss" class=""/><rect style="display:inline;fill:#ff00ff;fill-opacity:0;stroke:#0000ff;stroke-width:1;stroke-opacity:0" id="rect302-4" width="0.11919689178466797" height="0" x="34.944007873535156" y="-13.492189407348633" ry="0" class=""/><path style="fill:#2f5496;stroke:#2f5496;stroke-width:0;stroke-opacity:1;fill-opacity:1" d="M 257.047,263.996 255,264 h -1 l -0.73,-0.32 -0.75,-0.35 -0.743,-0.342 -1.145,-0.56 -0.829,-0.422 -1.129,-0.596 -0.736,-0.463 -1.368,-1.158 -0.819,-0.67 -1.473,-1.451 -0.678,-0.814 -0.635,-0.856 -0.692,-1.037 -0.535,-0.832 -0.689,-1.328 -0.635,-1.604 -0.865,-2.127 L 239,247 v -2 -1 h 6 5 5 5 10 12 10 l 1,-1 v -1 -1 -2 -3 -3 -3 -3 -3 -4 -4 -4 l -1,-1 h -6 -7 -4 -7 -5 -3 l -1,1 v 14 11 5 1 l 1,1 h -5 -5 -11 v -4 -5 -5 -5 -7 -3 -4 l 0.227,-2.459 0.121,-0.877 0.091,-0.559 0.186,-0.712 0.154,-0.561 0.203,-0.625 0.166,-0.559 0.25,-0.72 0.397,-0.901 0.348,-0.763 0.304,-0.717 0.537,-0.779 0.442,-0.729 0.363,-0.365 0.262,-0.418 0.195,-0.293 0.318,-0.383 0.477,-0.49 0.467,-0.533 0.373,-0.442 0.402,-0.547 0.627,-0.47 0.551,-0.442 0.525,-0.508 0.42,-0.377 0.678,-0.496 0.928,-0.507 0.773,-0.473 0.785,-0.379 1.248,-0.543 1.149,-0.555 1.06,-0.371 0.967,-0.209 0.897,-0.119 0.695,-0.18 1.363,0.018 L 260,191 h 5 5 5 5 5 5 3.969 1.031 l 1.012,0.018 0.984,0.017 1.227,0.311 0.783,0.404 0.982,0.383 0.7,0.332 0.783,0.295 0.55,0.31 0.627,0.258 0.43,0.309 0.574,0.273 0.426,0.313 0.522,0.361 0.461,0.439 0.515,0.418 0.463,0.346 0.412,0.242 0.381,0.412 0.326,0.329 0.36,0.449 0.47,0.345 0.432,0.581 0.521,0.587 0.461,0.625 0.465,0.709 0.6,1.036 0.875,1.925 0.474,0.909 0.383,1.158 0.276,1.017 0.32,1.924 0.096,0.783 L 313,210 v 2 5 l 0.007,10.60019 L 313,246 v -1 0 1 l -0.205,0.979 -0.199,0.898 -0.172,1.127 -0.174,0.949 -0.182,0.485 -0.103,0.466 -0.317,0.737 -0.275,0.47 -0.365,0.873 -0.201,0.495 -0.303,0.73 -0.441,0.619 -0.163,0.279 -0.418,0.512 -0.257,0.451 -0.789,0.965 -0.67,0.778 -0.352,0.523 -0.445,0.478 -0.533,0.356 -0.489,0.473 -0.545,0.531 -0.541,0.402 -0.398,0.297 -0.5,0.299 -0.918,0.547 -0.861,0.414 -0.692,0.346 -0.74,0.406 -0.473,0.285 -0.711,0.344 -0.564,0.131 -0.705,0.174 L 297,264 h -2 -2 -3 -15 -12 -4 -1 z" id="path192" transform="translate(-37.8164, -29.3672) scale(0.264583)" sodipodi:nodetypes="cccccccccccccccccccccccccccccccccccccccccccccccccccccccccccccccccccccccccccccccccccccccccccccccccccccccccccccccccccccccccccccccccccccccccccccccccccccccccccccccccccccccccccccccccccccccccccccccc" class=""/><path style="fill:#2f5496;stroke:#2f5496;stroke-width:0;stroke-opacity:1;fill-opacity:1" d="m 260,351 h 5 10 15 2 l 1,-1 v -3 -4 -3 -5 -5 -11 l -1,-1 h -4 -3 -15 -10 l -1,1 v 3 3 2.89625 5.10375 7 5 5 l 1,1 v 4 10 6 h -4 l -0.643,-0.078 -0.709,-0.164 -0.624,-0.179 -0.721,-0.247 -0.627,-0.218 -0.836,-0.324 -0.487,-0.241 -0.676,-0.338 -0.412,-0.221 -0.381,-0.128 -0.488,-0.27 -0.478,-0.27 -0.52,-0.334 -0.41,-0.34 -0.68,-0.511 -0.518,-0.27 -0.381,-0.392 -0.464,-0.455 -0.251,-0.319 -0.344,-0.362 -0.383,-0.368 -0.412,-0.325 -0.395,-0.499 -0.37,-0.386 -0.31,-0.434 -0.28,-0.372 -0.297,-0.368 -0.277,-0.263 -0.348,-0.527 -0.178,-0.49 -0.153,-0.36 -0.292,-0.512 -0.179,-0.43 -0.278,-0.4 -0.24,-0.509 -0.278,-0.768 -0.232,-0.403 -0.12,-0.607 -0.079,-0.434 -0.159,-0.449 -0.104,-0.377 -0.129,-0.42 -0.125,-0.534 -0.152,-0.461 -0.288,-0.656 L 239,353 V 348.75234 343 L 238.9844,338.80469 239,335 v -5 -3 -3.35758 V 320 318 l 0.328,-2.984 0.153,-0.883 0.16,-0.68 0.257,-0.859 0.281,-1.125 0.227,-0.858 0.286,-0.814 0.228,-0.535 0.455,-0.621 0.287,-0.467 0.205,-0.446 0.347,-0.421 0.295,-0.561 0.289,-0.403 0.468,-0.749 0.401,-0.489 0.439,-0.617 0.67,-0.67 0.654,-0.73 0.689,-0.667 0.675,-0.543 0.394,-0.255 0.546,-0.467 0.586,-0.386 1.149,-0.723 1.093,-0.578 1.169,-0.562 1.296,-0.457 1.774,-0.418 L 257,298 h 3 5 5 5 5 5 5 5 l 1.272,-0.011 1.722,-0.014 1.055,0.383 0.904,0.322 0.591,0.356 0.507,0.233 0.493,0.276 0.482,0.321 0.497,0.213 0.391,0.212 0.339,0.283 0.452,0.266 0.224,0.165 0.525,0.228 0.402,0.339 0.437,0.311 0.426,0.31 0.476,0.331 0.402,0.392 0.354,0.328 0.433,0.523 0.729,0.76 0.587,0.556 0.485,0.626 0.476,0.697 0.437,0.598 0.299,0.57 0.455,0.696 0.283,0.833 0.591,1.304 0.203,0.72 0.618,1.865 L 313,315 v 2 5 5 5 4 3 3 3 4 l 0.031,4.094 -0.195,1.131 -0.206,0.958 -0.173,0.807 -0.176,0.589 -0.22,0.834 -0.249,0.619 -0.89,2.093 -0.328,0.781 -0.493,0.585 -0.486,0.808 -0.347,0.522 -0.502,0.632 -0.559,0.641 -0.703,0.656 -0.771,0.802 -0.848,0.775 -1.034,0.878 -0.922,0.616 -0.926,0.56 -0.902,0.562 -0.757,0.364 -0.652,0.258 -0.544,0.201 -0.732,0.316 -0.72,0.263 -0.655,0.201 -0.978,0.253 -0.974,0.135 L 295,371 h -5 -10 -5 -5 -10 z" id="path200" transform="translate(-37.8164, -29.3672) scale(0.264583)" sodipodi:nodetypes="ccccccccccccccccccccccccccccccccccccccccccccccccccccccccccccccccccccccccccccccccccccccccccccccccccccccccccccccccccccccccccccccccccccccccccccccccccccccccccccccccccccccccccccccccccccccccccccccccccccccccc" class=""/><path sodipodi:nodetypes="cccccccccccccccccccccccccccccccccccccccccc" transform="translate(-37.8164, -29.3672) scale(0.264583)" id="path167" d="m 345,238 -1.391,-0.016 -0.998,-0.126 -1.283,-0.514 -1.285,-0.647 -1.169,-0.783 -1.037,-0.851 -0.793,-0.908 -0.632,-0.933 -0.631,-1.535 -0.735,-1.378 -0.147,-2.804 0.327,-2.31 0.523,-1.655 1.232,-2.267 2.467,-2.168 L 342,218 h 3 5 3 1 206 2 1 l 0.92,0.463 1.377,0.66 0.894,0.877 1.033,1.183 1.07,1.882 0.564,1.141 0.403,1.323 0.108,1.502 -0.029,2.014 -0.291,1.188 -0.455,1.501 -1.047,1.375 -1.688,1.875 -1.609,1.735 -1.452,0.852 L 561,238 h -1 z" style="fill:#ffffff;stroke:#008000;stroke-width:0" class=""/><path style="display:inline;fill:#ffffff;stroke:#008000;stroke-width:0" d="m53.75279235839844,33.73065948486328 l-0.368027001619339,-0.00419999985024333 l-0.2640570104122162,-0.03333999961614609 l-0.33945998549461365,-0.1359959989786148 l-0.33998700976371765,-0.17118500173091888 l-0.3093000054359436,-0.20716899633407593 l-0.27436700463294983,-0.22516000270843506 l-0.20981000363826752,-0.24024200439453125 l-0.16721700131893158,-0.24685600399971008 l-0.16695000231266022,-0.40613600611686707 l-0.19447000324726105,-0.3645949959754944 l-0.03889999911189079,-0.7418919801712036 l0.08649999648332596,-0.6111869812011719 l0.1383800059556961,-0.43788599967956543 l0.325967013835907,-0.599810004234314 l0.6527270078659058,-0.5736169815063477 l0.6752070188522339,-0.2923640012741089 h0.7937440276145935 h1.3229140043258667 h0.7937440276145935 h0.26458001136779785 h54.50413513183594 h0.5291600227355957 h0.26458999514579773 l0.24341000616550446,0.12250199913978577 l0.36434000730514526,0.1746249943971634 l0.23653000593185425,0.23203900456428528 l0.2733199894428253,0.31300199031829834 l0.2831000089645386,0.49794599413871765 l0.1492300033569336,0.30188998579978943 l0.10661999881267548,0.35004299879074097 l0.028599999845027924,0.3974049985408783 l-0.00800000037997961,0.5328710079193115 l-0.07699999958276749,0.3143250048160553 l-0.12037999927997589,0.3971390128135681 l-0.27702000737190247,0.3638019859790802 l-0.44661998748779297,0.4960939884185791 l-0.425709992647171,0.4590519964694977 l-0.3841800093650818,0.22542500495910645 l-0.47571998834609985,0.11350599676370621 h-0.26458001136779785 z" id="path167-9" sodipodi:nodetypes="cccccccccccccccccccccccccccccccccccccccccc" class=""/><path sodipodi:nodetypes="cccccccccccccccccccccccccccccccccccccccccccc" id="path360" d="m53.4769287109375,33.790733337402344 l-0.36970001459121704,-0.00430000014603138 l-0.26524800062179565,-0.03452000021934509 l-0.34099701046943665,-0.1408029943704605 l-0.3414349853992462,-0.17719000577926636 l-0.3106989860534668,-0.2144930064678192 l-0.27560898661613464,-0.23312099277973175 l-0.2107589989900589,-0.24873599410057068 l-0.16797299683094025,-0.2555840015411377 l-0.1677049994468689,-0.42049500346183777 l-0.19535000622272491,-0.377485990524292 l-0.039080001413822174,-0.7681220173835754 l0.08688999712467194,-0.6327959895133972 l0.13900600373744965,-0.45336800813674927 l0.3274419903755188,-0.6210160255432129 l0.6556800007820129,-0.5938979983329773 l0.6782609820365906,-0.3027009963989258 h0.7973350286483765 h1.3288979530334473 h0.7973350286483765 h0.26577600836753845 h54.750694274902344 h0.5315499901771545 h0.2657899856567383 l0.24449999630451202,0.12675200402736664 l0.36597999930381775,0.18079900741577148 l0.23760999739170074,0.24024300277233124 l0.2745499908924103,0.32406899333000183 l0.2843799889087677,0.515550971031189 l0.14990000426769257,0.3125639855861664 l0.10711000114679337,0.362419992685318 l0.028699999675154686,0.4114539921283722 l-0.00800000037997961,0.5517110228538513 l-0.07729999721050262,0.3254390060901642 l-0.12088999897241592,0.4111799895763397 l-0.2782599925994873,0.37666401267051697 l-0.4486500024795532,0.5136340260505676 l-0.42763999104499817,0.4752820134162903 l-0.3859100043773651,0.2333959937095642 l-0.47788000106811523,0.11751899868249893 h-0.2658100128173828 h-22.880229949951172 h-17.283950805664062 z" style="display:inline;fill:#2f5496;fill-opacity:1;stroke:#2f5496;stroke-width:0;stroke-opacity:1" class=""/><path style="display:inline;fill:#2f5496;stroke:#2f5496;stroke-width:0;fill-opacity:1;stroke-opacity:0" d="m53.521461486816406,62.326019287109375 l-0.36909300088882446,-0.0044999998062849045 l-0.264847993850708,-0.03438999876379967 l-0.3402549922466278,-0.13996900618076324 l-0.3407829999923706,-0.17647700011730194 l-0.3103559911251068,-0.21378299593925476 l-0.27490198612213135,-0.23204000294208527 l-0.21034400165081024,-0.24764999747276306 l-0.16774600744247437,-0.2545289993286133 l-0.16748100519180298,-0.41857099533081055 l-0.19499799609184265,-0.3759720027446747 l-0.03889000043272972,-0.7649109959602356 l0.08677999675273895,-0.6299729943275452 l0.13864099979400635,-0.4513790011405945 l0.3267579972743988,-0.6186059713363647 l0.6545789837837219,-0.5913439989089966 l0.6770690083503723,-0.30136001110076904 l0.79584801197052,0.000052999999752501026 h1.326475977897644 h0.7958840131759644 h0.26529601216316223 h54.65080642700195 l0.5306599736213684,-0.000052999999752501026 h0.26510998606681824 l0.24421000480651855,0.12647099792957306 l0.36539000272750854,0.17991699278354645 l0.2370699942111969,0.2391829937696457 l0.27410998940467834,0.3227919936180115 l0.2838900089263916,0.5132910013198853 l0.14948999881744385,0.3111500144004822 l0.1068900004029274,0.36089199781417847 l0.02879999950528145,0.409839004278183 l-0.00800000037997961,0.5492749810218811 l-0.07739999890327454,0.32411500811576843 l-0.12066999822854996,0.4093100130558014 l-0.2778100073337555,0.3751800060272217 l-0.44767001271247864,0.5114390254020691 l-0.42677998542785645,0.4730750024318695 l-0.38523000478744507,0.23256899416446686 l-0.47703999280929565,0.11694599688053131 h-0.26537999510765076 h-28.519439697265625 z" id="path167-8" sodipodi:nodetypes="ccccccccccccccccccccccccccccccccccccccccccc" class=""/><path id="path312" style="fill:#2f5496;stroke:#2f5496;stroke-width:0;fill-opacity:1;stroke-opacity:1" d="m 170,111 -2.75781,0.1543 -1.05274,0.32031 -1.23242,0.41406 -1.97851,0.75781 -1.49219,0.4961 -2.27344,1.23047 -1.125,0.76757 -1.07031,0.62696 -0.87891,0.64453 -1.21484,0.80859 -1.36328,1.3086 -0.76758,0.66601 -1.15625,1.26172 -1.19336,1.08399 -1.31445,1.7207 -1.03321,1.36719 -0.86132,1.57421 -0.85743,1.57813 -0.57812,1.16992 -0.52539,1.02149 -0.47266,1.72461 -0.70508,1.99414 -0.61523,2.79492 -0.46289,2.4707 -0.0937,2.04492 L 143,145 v 620 l 0.27734,2.03125 0.53321,2.30859 0.62695,1.80469 0.71875,2.25781 0.7793,1.44727 0.77929,1.30664 0.66211,1.30859 0.60352,1.07813 0.62109,1.05859 0.86914,1.21485 1.09961,1 0.79492,0.93164 1.35938,1.36328 1.35156,1.25976 1.31836,1.1211 1.46875,1.05273 1.54102,1.0957 2.41015,1.16211 1.9336,0.98047 1.96484,0.60352 L 167,792 h 79 404 l 2.36523,-0.18555 2.4668,-0.625 1.58008,-0.625 1.91406,-0.79101 1.75391,-0.98828 2.05273,-1.4375 1.86719,-1.28516 2.05078,-1.69531 1.28906,-1.39649 1.59571,-1.56054 0.67773,-0.84766 0.68164,-1.15625 0.79883,-1.12695 0.81445,-1.18164 0.74805,-1.33985 0.99414,-2.47461 0.68555,-2.15625 0.73242,-2.37109 L 675,135 l -0.13867,-0.87695 -0.38672,-1.21289 -0.41992,-1.30469 -0.45313,-1.19336 -0.43945,-1.01367 -0.69336,-1.17774 -0.99609,-1.94726 -0.71485,-1.30664 -0.62109,-1.08789 -0.60547,-0.80664 -0.85352,-1.04493 -0.94726,-1.02539 -0.96289,-1.04101 -0.96094,-0.92188 -1.14844,-1.00781 -1.57031,-1.12109 -1.7207,-1.32422 -1.50391,-0.84375 -1.2832,-0.58399 -1.32422,-0.69531 -1.28125,-0.53906 -1.39453,-0.62891 -1.85156,-0.74804 -2.67383,-0.51172 L 645,111 Z m 5,20 h 467 3 l 1.021,0.248 1.073,0.359 0.933,0.332 0.307,0.124 0.324,0.121 0.348,0.218 0.955,0.52 0.908,0.553 0.344,0.453 0.451,0.373 0.563,0.594 0.363,0.494 0.224,0.254 0.268,0.334 0.383,0.406 0.193,0.414 0.19,0.377 0.269,0.492 0.115,0.367 0.206,0.756 0.164,0.365 L 655,140 V 761 761.98438 763 l -0.154,1.1 -0.553,1.355 -0.422,0.881 -0.203,0.334 -0.402,0.441 -0.43,0.514 -0.537,0.59 -0.336,0.406 -1.096,1.053 -1.299,0.941 -3.789,1.375 L 645,772 h -1 -1 -399 l -69.031,-0.127 -2.258,-0.254 -1.213,-0.447 -1.125,-0.44 -1.416,-0.65 -1.373,-1.197 -0.928,-1.063 -0.84,-0.908 -0.882,-1.404 -0.66252,-1.87914 -0.67382,-1.65234 L 163,759 v -4 -613 l 0.0332,-0.99414 0.15235,-0.40234 0.18945,-0.4629 0.49219,-0.74218 0.34375,-0.69141 0.41211,-0.71094 0.46289,-0.83984 0.37109,-0.70703 0.43359,-0.57813 0.57422,-0.64062 0.59766,-0.69531 0.69922,-0.59766 0.85156,-0.68164 0.54883,-0.42578 1.07422,-0.49024 0.375,-0.18945 0.46484,-0.23828 0.47852,-0.18359 0.66015,-0.1875 0.36914,-0.10547 0.4043,-0.0684 0.7461,-0.17969 0.52343,-0.15039 z" transform="translate(-37.8164, -29.3672) scale(0.264583)" sodipodi:nodetypes="ccccccccccccccccccccccccccccccccccccccccccccccccccccccccccccccccccccccccccccccccccccccccccccccccccccccccccccccccccccccccccccccccccccccccccccccccccccccccccccccccccccccccccccccccc" class=""/><path style="fill:#2f5496;stroke:#008000;stroke-width:0;fill-opacity:1" d="M 218,667 V 428 l 0.121,-0.979 0.537,-1.134 0.701,-1.379 0.948,-1.252 1.347,-1.408 1.09,-0.686 1.393,-0.662 L 226,420 h 4 252 4 l 113,57 0.488,0.537 0.563,0.809 0.605,1.513 L 601,482 v 12 H 579 L 565,491 545,473.96875 537.757,470.13 510.742,455.812 502.638,451.517 479,440 h -7 -97 -25 -30 -20 -29 l 65.689,33.84 93.307,0.073 L 542,474 c 0,0 1.5,-0.0467 3,-0.031 0.50021,0.005 2,0.031 2,0.031 l 34,20 h -71 l 0.098,81.99 -0.177,2.089 -0.671,1.452 -1.094,1.719 -1.294,1.379 -1.732,0.999 L 502,584 h -67 v -20 h 55 v -70 h -55 v 70 20 h -10 l -2.792,-0.014 -2.318,-0.562 -1.486,-0.988 -1.032,-1.139 -1.229,-1.774 -0.587,-1.687 L 415,576 l 0,-1 v 0 0 -81 h -70 l -20,-4 c 0,0 -20.24589,-9.88455 -42.03466,-20.63885 -13.12145,-6.47636 -26.71793,-13.43715 -37.02784,-18.2674 -0.78148,-0.36613 -5.65588,-2.8125 -6.2605,-3.236 -0.31864,-0.22317 -1.04463,6.6e-4 -1.19706,0.18114 -0.31308,0.37069 -0.34157,0.60905 -0.41994,1.17111 C 238.0247,449.46303 238,450 238,450 v 7 11 135 3 l 6.998,4.888 20.334,14.12 11.67,8.169 44.982,31.485 L 325,666 h 20 V 494 l -20,-4 v 230 -28 l -87,-61 v 29 l 87,60 v -54 h 20 v 10.03827 L 581,676 v 20 H 345 v 34 H 581 V 696 494 h 20 v 248 l -0.289,1.105 -0.362,0.907 -0.296,0.715 -0.583,0.85 -0.539,0.802 -0.481,0.48 -0.353,0.48 -0.467,0.401 -0.343,0.357 -0.533,0.366 -0.58,0.363 -0.524,0.323 -0.535,0.272 -0.905,0.31 -1.116,0.291 L 587,750 H 345 L 332.984,750.063 219,670 218.377,668.979 218,668 Z" id="path438" transform="translate(-37.8164, -29.3672) scale(0.264583)" sodipodi:nodetypes="cccccccccccccccccccccccccccccccccccscccccccccccccccccccccccccccccccssssscccccccccccccccccccccccccccccccccccccccccccccccccccc" class=""/></g></g></svg>