<svg xmlns:dc="http://purl.org/dc/elements/1.1/" xmlns:cc="http://creativecommons.org/ns#" xmlns:rdf="http://www.w3.org/1999/02/22-rdf-syntax-ns#" xmlns:svg="http://www.w3.org/2000/svg" xmlns="http://www.w3.org/2000/svg" xmlns:xlink="http://www.w3.org/1999/xlink" xmlns:sodipodi="http://sodipodi.sourceforge.net/DTD/sodipodi-0.dtd" xmlns:inkscape="http://www.inkscape.org/namespaces/inkscape" sodipodi:docname="Inventario A_B.svg" inkscape:version="1.0 (4035a4fb49, 2020-05-01)" width="141" height="180" version="1.1" inkscape:export-filename="C:\Users\Vicente\Desktop\dibujo.png" inkscape:export-xdpi="96" inkscape:export-ydpi="96"><rect id="backgroundrect" width="100%" height="100%" x="0" y="0" fill="none" stroke="none" style="" class=""/>
  <defs id="defs2">
    <inkscape:path-effect end_linecap_type="zerowidth" scale_width="1" miter_limit="4" linejoin_type="extrp_arc" start_linecap_type="zerowidth" interpolator_beta="0.2" interpolator_type="CubicBezierJohan" sort_points="true" offset_points="0,0.1322915" lpeversion="1" is_visible="true" id="path-effect1157" effect="powerstroke"/>
    <inkscape:path-effect end_linecap_type="zerowidth" scale_width="1" miter_limit="4" linejoin_type="extrp_arc" start_linecap_type="zerowidth" interpolator_beta="0.2" interpolator_type="CubicBezierJohan" sort_points="true" offset_points="0,0.1322915" lpeversion="1" is_visible="true" id="path-effect1153" effect="powerstroke"/>
    <inkscape:path-effect end_linecap_type="zerowidth" scale_width="1" miter_limit="4" linejoin_type="extrp_arc" start_linecap_type="zerowidth" interpolator_beta="0.2" interpolator_type="CubicBezierJohan" sort_points="true" offset_points="0,0.1322915" lpeversion="1" is_visible="true" id="path-effect1149" effect="powerstroke"/>
    <inkscape:path-effect effect="powerstroke" id="path-effect306" is_visible="true" lpeversion="1" offset_points="0,0.1322915" sort_points="true" interpolator_type="CubicBezierJohan" interpolator_beta="0.2" start_linecap_type="zerowidth" linejoin_type="extrp_arc" miter_limit="4" scale_width="1" end_linecap_type="zerowidth"/>
    <inkscape:path-effect end_linecap_type="zerowidth" scale_width="1" miter_limit="4" linejoin_type="extrp_arc" start_linecap_type="zerowidth" interpolator_beta="0.2" interpolator_type="CubicBezierJohan" sort_points="true" offset_points="0,0.1322915" lpeversion="1" is_visible="true" id="path-effect1502" effect="powerstroke"/>
    <inkscape:path-effect only_selected="false" apply_with_weight="true" apply_no_weight="true" helper_size="0" steps="2" weight="33.333333" lpeversion="1" is_visible="true" id="path-effect1117" effect="bspline"/>
  </defs>
  <sodipodi:namedview inkscape:guide-bbox="true" inkscape:window-maximized="1" inkscape:window-y="-11" inkscape:window-x="-11" inkscape:window-height="986" inkscape:window-width="1920" inkscape:lockguides="true" inkscape:snap-global="true" inkscape:snap-bbox="true" showgrid="false" inkscape:document-rotation="0" inkscape:current-layer="layer1" inkscape:document-units="px" inkscape:cy="84.581973" inkscape:cx="317.15417" inkscape:zoom="0.70710678" inkscape:pageshadow="2" inkscape:pageopacity="0.0" borderopacity="1.0" bordercolor="#666666" pagecolor="#ffffff" id="base" inkscape:snap-grids="true" showguides="false" units="mm">
    <inkscape:grid id="grid851" type="xygrid" color="#ff3f5a" opacity="0.1254902" empcolor="#ff3f3f" empopacity="0.25098039"/>
    <sodipodi:guide id="guide169" orientation="0,-1" position="146.84375,182.84998" inkscape:locked="true"/>
  </sodipodi:namedview>
  <metadata id="metadata5">
    <rdf:RDF>
      <cc:Work rdf:about="">
        <dc:format>image/svg+xml</dc:format>
        <dc:type rdf:resource="http://purl.org/dc/dcmitype/StillImage"/>
        <dc:title/>
      </cc:Work>
    </rdf:RDF>
  </metadata>
  
<g class="currentLayer" style=""><title>Layer 1</title>
    
    
    
    
    
    
    
    
    
    
    
    
    
    
    
    
    
    
    
    
    
    
    
    
    
    
    
    
    
    
    
    
    
    
    
    
    
    
    
    
    
    
    
    
    
    
    
    
    
    
    
    
    
    
    
    
    
    
    
    
    
    
    
    
    
    
    
    
    
    
    
    
    
    
    
    
    
    
    
    
    
    
    
    
    
    
    
    
    
    
    
    
    
    
    
    
    
    
    
    
    
    
    
    
    
    
    
    
    
    
    
    
    
    
    
    
    
    
    
    
    
    
    
    
    
    
    
    
    
    
    
    
    
    
    
    
    
    
    
  <g class="" stroke="none" fill="#ffffff" fill-opacity="1"><path transform="translate(-18.5208, -21.4323) scale(0.264583)" id="path940" d="m144.68587493896484,458.811674118042 c-0.08869999647140503,-0.14359000325202942 0.12624000012874603,-0.39212000370025635 0.47773998975753784,-0.5522699952125549 c0.6256700158119202,-0.28507000207901 0.6391000151634216,-0.3456999957561493 0.6391000151634216,-2.8839099407196045 c0,-1.9823700189590454 -0.08179999887943268,-2.6240999698638916 -0.3473699986934662,-2.726020097732544 c-0.20083999633789062,-0.0771000012755394 -0.2939999997615814,-0.33741000294685364 -0.22084000706672668,-0.6171500086784363 c0.14600999653339386,-0.5583500266075134 0.34588000178337097,-0.6061800122261047 0.7682099938392639,-0.18386000394821167 c0.23332999646663666,0.23333999514579773 0.30000001192092896,0.2265399992465973 0.30000001192092896,-0.03060000017285347 c0,-0.265529990196228 0.0737999975681305,-0.26934000849723816 0.375,-0.01940000057220459 c0.5210400223731995,0.4324199855327606 0.46810999512672424,0.75 -0.125,0.75 c-0.2750000059604645,0 -0.5,0.11760000139474869 -0.5,0.2613300085067749 c0,0.16325999796390533 0.328359991312027,0.19972999393939972 0.875,0.09719999879598618 c0.5735599994659424,-0.10760000348091125 0.875,-0.06840000301599503 0.875,0.1136699989438057 c0,0.15279999375343323 -0.0843999981880188,0.2644999921321869 -0.1875,0.24821999669075012 c-0.4160900115966797,-0.065700002014637 -0.8124600052833557,0.040300000458955765 -0.8117600083351135,0.21709999442100525 c0.00039999998989515007,0.10312999784946442 0.3770599961280823,0.19523000717163086 0.8370299935340881,0.20467999577522278 c0.540910005569458,0.011099999770522118 1.0882799625396729,0.2508299946784973 1.549720048904419,0.6786999702453613 c0.8146399855613708,0.7553799748420715 0.6841700077056885,1.182770013809204 -0.17694999277591705,0.5796200037002563 c-0.6675999760627747,-0.4675999879837036 -1.1976900100708008,-0.5376499891281128 -0.7605400085449219,-0.10050000250339508 c0.16500000655651093,0.16500000655651093 0.30000001192092896,0.4712899923324585 0.30000001192092896,0.6806300282478333 c0,0.2658900022506714 -0.11731000244617462,0.21313999593257904 -0.38916999101638794,-0.17499999701976776 c-0.21404999494552612,-0.3055900037288666 -0.4952999949455261,-0.5556300282478333 -0.625,-0.5556300282478333 c-0.38249000906944275,0 -0.26927000284194946,0.68367999792099 0.13917000591754913,0.8404099941253662 c0.20624999701976776,0.07909999787807465 0.36612001061439514,0.4005599915981293 0.3552600145339966,0.7142500281333923 c-0.010900000110268593,0.3136900067329407 -0.07649999856948853,0.429720014333725 -0.14583000540733337,0.25784000754356384 c-0.22271999716758728,-0.5519499778747559 -0.583329975605011,-0.33379998803138733 -0.6199100017547607,0.375 c-0.02759999968111515,0.5358399748802185 -0.07500000298023224,0.4669100046157837 -0.21452000737190247,-0.3125 l-0.1790499985218048,-1 l-0.03550000116229057,1.05964994430542 c-0.035100001841783524,1.049430012702942 -0.6732500195503235,2.164220094680786 -1.0910199880599976,1.9060300588607788 c-0.11900000274181366,-0.07360000163316727 -0.370169997215271,-0.006000000052154064 -0.5581499934196472,0.14993999898433685 c-0.23388999700546265,0.19411000609397888 -0.3927299976348877,0.20124000310897827 -0.5031499862670898,0.022600000724196434 z" style="opacity: 1; fill-rule: nonzero; stroke-width: 0.944882px; stroke-miterlimit: 4; stroke-dasharray: none; stroke-opacity: 0;" sodipodi:nodetypes="sssssssssssssssssssssssssscsssss" class="" fill="#ffffff" fill-opacity="1" stroke="none"/><path transform="translate(-18.5208, -21.4323) scale(0.264583)" id="path942" d="m161.2402114868164,463.6261577606201 c-0.24062000215053558,-0.06289999932050705 -0.4375,-0.21538999676704407 -0.4375,-0.3389100134372711 c0,-0.12352000176906586 -0.83992999792099,-1.0672399997711182 -1.866510033607483,-2.0971601009368896 c-1.0265799760818481,-1.029919981956482 -1.7723499536514282,-1.9307700395584106 -1.6572699546813965,-2.0018999576568604 c0.11507999897003174,-0.07109999656677246 0.46597999334335327,0.093299999833107 0.7797600030899048,0.36548998951911926 c0.9870799779891968,0.8560900092124939 1.8981399536132812,0.5196899771690369 1.271399974822998,-0.4694400131702423 c-0.13485999405384064,-0.21285000443458557 -0.412880003452301,-0.27643001079559326 -0.7461699843406677,-0.17065000534057617 c-0.3217700123786926,0.10213000327348709 -0.5312100052833557,0.06019999831914902 -0.5312100052833557,-0.1062999963760376 c0,-0.367900013923645 -1.0595999956130981,-0.7535300254821777 -1.3757100105285645,-0.5006800293922424 c-0.13788999617099762,0.11029999703168869 -0.4639599919319153,0.044599998742341995 -0.724590003490448,-0.14597000181674957 c-0.3847399950027466,-0.2813299894332886 -0.4159899950027466,-0.41628000140190125 -0.16614000499248505,-0.7173299789428711 c0.16925999522209167,-0.20395000278949738 0.23462000489234924,-0.6012200117111206 0.14524999260902405,-0.8828200101852417 c-0.1165900006890297,-0.36733999848365784 -0.05180000141263008,-0.5120000243186951 0.22934000194072723,-0.5120000243186951 c0.2251800000667572,0 0.39184999465942383,0.2126699984073639 0.39184999465942383,0.5 c0,0.2777799963951111 0.16666999459266663,0.5 0.375,0.5 c0.4409500062465668,0 0.5201200246810913,-1.1308000087738037 0.09740000218153,-1.3920199871063232 c-0.164560005068779,-0.1017099991440773 -0.22039000689983368,-0.5238100290298462 -0.137130007147789,-1.0368499755859375 c0.11490000039339066,-0.7081000208854675 0.07079999893903732,-0.8385800123214722 -0.24289999902248383,-0.7182199954986572 c-0.2108200043439865,0.08089999854564667 -0.42746999859809875,0.14709000289440155 -0.48144999146461487,0.14709000289440155 c-0.05400000140070915,0 -0.2726599872112274,0.3375000059604645 -0.48596999049186707,0.75 c-0.21331000328063965,0.4124999940395355 -0.5431699752807617,0.75 -0.7330099940299988,0.75 c-0.4950000047683716,0 -0.21342000365257263,-0.8603799939155579 0.5223699808120728,-1.5961799621582031 c0.7405099868774414,-0.7404999732971191 0.36636999249458313,-1.0992799997329712 -0.5322999954223633,-0.510450005531311 c-0.3838900029659271,0.2515299916267395 -0.6320599913597107,0.30469000339508057 -0.6320599913597107,0.1353899985551834 c0,-0.15331999957561493 0.11249999701976776,-0.27875998616218567 0.25,-0.27875998616218567 c0.13750000298023224,0 0.25,-0.16875000298023224 0.25,-0.375 c0,-0.20624999701976776 0.15997999906539917,-0.375 0.35552000999450684,-0.375 c0.19553999602794647,0 0.7407000064849854,-0.44999998807907104 1.2114800214767456,-1 c0.47077998518943787,-0.550000011920929 0.9714699983596802,-1 1.1126400232315063,-1 c0.14117999374866486,0 0.7353000044822693,-0.5343700051307678 1.3202799558639526,-1.1875 c2.8054399490356445,-3.1322600841522217 3.500080108642578,-3.7856500148773193 3.500080108642578,-3.2922298908233643 c0,0.2675899863243103 -0.13781000673770905,0.7071800231933594 -0.3062399923801422,0.9768900275230408 c-0.24165000021457672,0.38694000244140625 -0.24165000021457672,0.5549499988555908 0,0.7965999841690063 c0.22958999872207642,0.22958999872207642 0.29686999320983887,2.155369997024536 0.268779993057251,7.693739891052246 c-0.020600000396370888,4.063129901885986 -0.08429999649524689,7.078129768371582 -0.14159999787807465,6.699999809265137 c-0.05790000036358833,-0.381850004196167 -0.263480007648468,-0.6875 -0.46254000067710876,-0.6875 c-0.19711999595165253,0 -0.35839998722076416,-0.09130000323057175 -0.35839998722076416,-0.2028599977493286 c0,-0.2967900037765503 -0.9775599837303162,-1.2971400022506714 -1.2675800323486328,-1.2971400022506714 c-0.13646000623703003,0 -0.3146499991416931,0.17339999973773956 -0.39598000049591064,0.3853299915790558 c-0.09549999982118607,0.24879999458789825 0.2616400122642517,0.7890599966049194 1.0078500509262085,1.5247199535369873 c0.635640025138855,0.6266599893569946 1.155709981918335,1.2970199584960938 1.155709981918335,1.4896700382232666 c0,0.19266000390052795 -0.02810000069439411,0.33722999691963196 -0.0625,0.32128000259399414 c-0.03440000116825104,-0.01590000092983246 -0.25936999917030334,-0.0803999975323677 -0.5,-0.14332999289035797 zm-3.9375,-10.967419624328613 c0,-0.3674899935722351 -0.5337200164794922,-0.4931899905204773 -0.8311600089073181,-0.19574999809265137 c-0.22608999907970428,0.2260800004005432 0.334199994802475,0.8631299734115601 0.6094899773597717,0.6930000185966492 c0.12191999703645706,-0.07540000230073929 0.221670001745224,-0.2991099953651428 0.221670001745224,-0.4972499907016754 zm3.6822900772094727,-0.011300000362098217 c-0.08309999853372574,-0.08309999853372574 -0.2987000048160553,-0.09189999848604202 -0.47916001081466675,-0.019700000062584877 c-0.19944000244140625,0.07980000227689743 -0.14020000398159027,0.1390399932861328 0.1510400027036667,0.1510400027036667 c0.26353999972343445,0.010900000110268593 0.41119998693466187,-0.04820000007748604 0.32811999320983887,-0.13131000101566315 zm-1.182289958000183,-1.0722099542617798 c0,-0.5864700078964233 -0.6940299868583679,-0.8844199776649475 -1.1597700119018555,-0.49788999557495117 c-0.2620700001716614,0.2175000011920929 -0.2773300111293793,0.37070000171661377 -0.06270000338554382,0.6293100118637085 c0.42614999413490295,0.513480007648468 1.2224700450897217,0.4278700053691864 1.2224700450897217,-0.13142000138759613 zm1.625,-2.03016996383667 c0,-0.8895699977874756 -0.7281299829483032,-0.8126099705696106 -0.8312199711799622,0.08789999783039093 c-0.065700002014637,0.573639988899231 0.006000000052154064,0.6926199793815613 0.375,0.6215800046920776 c0.295740008354187,-0.05700000002980232 0.45622000098228455,-0.30651000142097473 0.45622000098228455,-0.7094399929046631 z" style="opacity: 1; fill-rule: nonzero; stroke-width: 0.944882px; stroke-miterlimit: 4; stroke-dasharray: none; stroke-opacity: 0;" sodipodi:nodetypes="sssscsssssssssssssssssssssssssssssssssssssssssssssssssssssssss" class="" fill="#ffffff" fill-opacity="1" stroke="none"/><rect style="display: inline; stroke-width: 1px; stroke-opacity: 0;" id="rect302-4" width="0.11919689178466797" height="0" x="34.94660949707031" y="-13.494783401489258" ry="0" class="" fill="#ffffff" fill-opacity="1" stroke="none"/><path style="stroke-width: 0px;" d="M184.1286849975586,233.996000289917 L182.0816879272461,233.99999809265137 h-1 l-0.7300000190734863,-0.3199999928474426 l-0.75,-0.3499999940395355 l-0.7429999709129333,-0.34200000762939453 l-1.1449999809265137,-0.5600000023841858 l-0.8289999961853027,-0.421999990940094 l-1.128999948501587,-0.5960000157356262 l-0.7360000014305115,-0.46299999952316284 l-1.3680000305175781,-1.1579999923706055 l-0.8190000057220459,-0.6700000166893005 l-1.4730000495910645,-1.4509999752044678 l-0.6779999732971191,-0.8140000104904175 l-0.6349999904632568,-0.8560000061988831 l-0.6919999718666077,-1.0369999408721924 l-0.5350000262260437,-0.8320000171661377 l-0.6890000104904175,-1.3279999494552612 l-0.6349999904632568,-1.6039999723434448 l-0.8650000095367432,-2.127000093460083 L166.0816879272461,216.99999809265137 v-2 v-1 h6 h5 h5 h5 h10 h12 h10 l1,-1 v-1 v-1 v-2 v-3 v-3 v-3 v-3 v-3 v-4 v-4 v-4 l-1,-1 h-6 h-7 h-4 h-7 h-5 h-3 l-1,1 v14 v11 v5 v1 l1,1 h-5 h-5 h-11 v-4 v-5 v-5 v-5 v-7 v-3 v-4 l0.22699999809265137,-2.4590001106262207 l0.12099999934434891,-0.8769999742507935 l0.09099999815225601,-0.5590000152587891 l0.1860000044107437,-0.7120000123977661 l0.15399999916553497,-0.5609999895095825 l0.2029999941587448,-0.625 l0.16599999368190765,-0.5590000152587891 l0.25,-0.7200000286102295 l0.3970000147819519,-0.9010000228881836 l0.3479999899864197,-0.7630000114440918 l0.30399999022483826,-0.7170000076293945 l0.5370000004768372,-0.7789999842643738 l0.44200000166893005,-0.7289999723434448 l0.3630000054836273,-0.36500000953674316 l0.2619999945163727,-0.4180000126361847 l0.19499999284744263,-0.2930000126361847 l0.3179999887943268,-0.382999986410141 l0.47699999809265137,-0.49000000953674316 l0.46700000762939453,-0.5329999923706055 l0.37299999594688416,-0.44200000166893005 l0.4020000100135803,-0.546999990940094 l0.6269999742507935,-0.4699999988079071 l0.5509999990463257,-0.44200000166893005 l0.5249999761581421,-0.5080000162124634 l0.41999998688697815,-0.37700000405311584 l0.6779999732971191,-0.4959999918937683 l0.9279999732971191,-0.5070000290870667 l0.7730000019073486,-0.4729999899864197 l0.7850000262260437,-0.3790000081062317 l1.2480000257492065,-0.5429999828338623 l1.1490000486373901,-0.5550000071525574 l1.059999942779541,-0.3709999918937683 l0.9670000076293945,-0.20900000631809235 l0.8970000147819519,-0.11900000274181366 l0.6949999928474426,-0.18000000715255737 l1.3630000352859497,0.017999999225139618 L187.0816879272461,160.99999809265137 h5 h5 h5 h5 h5 h5 h3.9690001010894775 h1.031000018119812 l1.0119999647140503,0.017999999225139618 l0.984000027179718,0.017000000923871994 l1.2269999980926514,0.3109999895095825 l0.7829999923706055,0.40400001406669617 l0.9819999933242798,0.382999986410141 l0.699999988079071,0.3319999873638153 l0.7829999923706055,0.29499998688697815 l0.550000011920929,0.3100000023841858 l0.6269999742507935,0.257999986410141 l0.4300000071525574,0.3089999854564667 l0.5740000009536743,0.27300000190734863 l0.4259999990463257,0.31299999356269836 l0.5220000147819519,0.3610000014305115 l0.460999995470047,0.4390000104904175 l0.5149999856948853,0.4180000126361847 l0.46299999952316284,0.34599998593330383 l0.41200000047683716,0.24199999868869781 l0.38100001215934753,0.41200000047683716 l0.32600000500679016,0.32899999618530273 l0.36000001430511475,0.4490000009536743 l0.4699999988079071,0.3449999988079071 l0.4320000112056732,0.5809999704360962 l0.5210000276565552,0.5870000123977661 l0.460999995470047,0.625 l0.4650000035762787,0.7089999914169312 l0.6000000238418579,1.0360000133514404 l0.875,1.9249999523162842 l0.4740000069141388,0.9089999794960022 l0.382999986410141,1.1579999923706055 l0.2759999930858612,1.0169999599456787 l0.3199999928474426,1.9240000247955322 l0.09600000083446503,0.7829999923706055 L240.0816879272461,179.99999809265137 v2 v5 l0.007000000216066837,10.600190162658691 L240.0816879272461,215.99999809265137 v-1 v0 v1 l-0.20499999821186066,0.9789999723434448 l-0.19900000095367432,0.8980000019073486 l-0.1720000058412552,1.1269999742507935 l-0.17399999499320984,0.9490000009536743 l-0.18199999630451202,0.48500001430511475 l-0.10300000011920929,0.4659999907016754 l-0.31700000166893005,0.7369999885559082 l-0.2750000059604645,0.4699999988079071 l-0.36500000953674316,0.8730000257492065 l-0.20100000500679016,0.4950000047683716 l-0.30300000309944153,0.7300000190734863 l-0.4410000145435333,0.6190000176429749 l-0.16300000250339508,0.27900001406669617 l-0.4180000126361847,0.5120000243186951 l-0.25699999928474426,0.45100000500679016 l-0.7889999747276306,0.9649999737739563 l-0.6700000166893005,0.777999997138977 l-0.35199999809265137,0.5230000019073486 l-0.4449999928474426,0.4779999852180481 l-0.5329999923706055,0.35600000619888306 l-0.48899999260902405,0.4729999899864197 l-0.5450000166893005,0.531000018119812 l-0.5410000085830688,0.4020000100135803 l-0.39800000190734863,0.296999990940094 l-0.5,0.29899999499320984 l-0.9179999828338623,0.546999990940094 l-0.8610000014305115,0.414000004529953 l-0.6919999718666077,0.34599998593330383 l-0.7400000095367432,0.4059999883174896 l-0.4729999899864197,0.2849999964237213 l-0.7110000252723694,0.3440000116825104 l-0.5640000104904175,0.13099999725818634 l-0.7049999833106995,0.17399999499320984 L224.0816879272461,233.99999809265137 h-2 h-2 h-3 h-15 h-12 h-4 h-1 z" id="path192" transform="translate(-18.5208, -21.4323) scale(0.264583)" sodipodi:nodetypes="cccccccccccccccccccccccccccccccccccccccccccccccccccccccccccccccccccccccccccccccccccccccccccccccccccccccccccccccccccccccccccccccccccccccccccccccccccccccccccccccccccccccccccccccccccccccccccccccc" class="" fill="#ffffff" fill-opacity="1" stroke="none"/><path style="stroke-width: 0px;" d="m187.0816879272461,320.99999809265137 h5 h10 h15 h2 l1,-1 v-3 v-4 v-3 v-5 v-5 v-11 l-1,-1 h-4 h-3 h-15 h-10 l-1,1 v3 v3 v2.896250009536743 v5.103750228881836 v7 v5 v5 l1,1 v4 v10 v6 h-4 l-0.6430000066757202,-0.07800000160932541 l-0.7089999914169312,-0.164000004529953 l-0.6240000128746033,-0.17900000512599945 l-0.7210000157356262,-0.24699999392032623 l-0.6269999742507935,-0.21799999475479126 l-0.8360000252723694,-0.3240000009536743 l-0.4869999885559082,-0.2409999966621399 l-0.6759999990463257,-0.33799999952316284 l-0.41200000047683716,-0.22100000083446503 l-0.38100001215934753,-0.12800000607967377 l-0.4880000054836273,-0.27000001072883606 l-0.4779999852180481,-0.27000001072883606 l-0.5199999809265137,-0.33399999141693115 l-0.4099999964237213,-0.3400000035762787 l-0.6800000071525574,-0.5109999775886536 l-0.5180000066757202,-0.27000001072883606 l-0.38100001215934753,-0.3919999897480011 l-0.46399998664855957,-0.45500001311302185 l-0.25099998712539673,-0.3190000057220459 l-0.3440000116825104,-0.3619999885559082 l-0.382999986410141,-0.36800000071525574 l-0.41200000047683716,-0.32499998807907104 l-0.39500001072883606,-0.49900001287460327 l-0.3700000047683716,-0.38600000739097595 l-0.3100000023841858,-0.4339999854564667 l-0.2800000011920929,-0.3720000088214874 l-0.296999990940094,-0.36800000071525574 l-0.2770000100135803,-0.2630000114440918 l-0.3479999899864197,-0.5270000100135803 l-0.17800000309944153,-0.49000000953674316 l-0.15299999713897705,-0.36000001430511475 l-0.2919999957084656,-0.5120000243186951 l-0.17900000512599945,-0.4300000071525574 l-0.27799999713897705,-0.4000000059604645 l-0.23999999463558197,-0.5090000033378601 l-0.27799999713897705,-0.7680000066757202 l-0.23199999332427979,-0.40299999713897705 l-0.11999999731779099,-0.6069999933242798 l-0.07900000363588333,-0.4339999854564667 l-0.1589999943971634,-0.4490000009536743 l-0.10400000214576721,-0.37700000405311584 l-0.1289999932050705,-0.41999998688697815 l-0.125,-0.5339999794960022 l-0.15199999511241913,-0.460999995470047 l-0.2879999876022339,-0.656000018119812 L166.0816879272461,322.99999809265137 V318.752347946167 V312.99999809265137 L166.06609344482422,308.80468559265137 L166.0816879272461,304.99999809265137 v-5 v-3 v-3.3575799465179443 V289.99999809265137 V287.99999809265137 l0.328000009059906,-2.9839999675750732 l0.15299999713897705,-0.8830000162124634 l0.1599999964237213,-0.6800000071525574 l0.25699999928474426,-0.859000027179718 l0.2809999883174896,-1.125 l0.22699999809265137,-0.8579999804496765 l0.28600001335144043,-0.8140000104904175 l0.2280000001192093,-0.5350000262260437 l0.45500001311302185,-0.6209999918937683 l0.28700000047683716,-0.46700000762939453 l0.20499999821186066,-0.44600000977516174 l0.34700000286102295,-0.42100000381469727 l0.29499998688697815,-0.5609999895095825 l0.289000004529953,-0.40299999713897705 l0.46799999475479126,-0.7490000128746033 l0.4009999930858612,-0.48899999260902405 l0.4390000104904175,-0.6169999837875366 l0.6700000166893005,-0.6700000166893005 l0.6539999842643738,-0.7300000190734863 l0.6890000104904175,-0.6669999957084656 l0.675000011920929,-0.5429999828338623 l0.39399999380111694,-0.2549999952316284 l0.5460000038146973,-0.46700000762939453 l0.5860000252723694,-0.38600000739097595 l1.1490000486373901,-0.7229999899864197 l1.093000054359436,-0.578000009059906 l1.1690000295639038,-0.5619999766349792 l1.2960000038146973,-0.4569999873638153 l1.7740000486373901,-0.4180000126361847 L184.0816879272461,267.99999809265137 h3 h5 h5 h5 h5 h5 h5 h5 l1.2719999551773071,-0.010999999940395355 l1.722000002861023,-0.014000000432133675 l1.0549999475479126,0.382999986410141 l0.9039999842643738,0.32199999690055847 l0.5910000205039978,0.35600000619888306 l0.5070000290870667,0.2329999953508377 l0.49300000071525574,0.2759999930858612 l0.4819999933242798,0.32100000977516174 l0.4970000088214874,0.21299999952316284 l0.39100000262260437,0.21199999749660492 l0.33899998664855957,0.28299999237060547 l0.4519999921321869,0.26600000262260437 l0.2240000069141388,0.16500000655651093 l0.5249999761581421,0.2280000001192093 l0.4020000100135803,0.33899998664855957 l0.43700000643730164,0.3109999895095825 l0.4259999990463257,0.3100000023841858 l0.47600001096725464,0.3310000002384186 l0.4020000100135803,0.3919999897480011 l0.3540000021457672,0.328000009059906 l0.43299999833106995,0.5230000019073486 l0.7289999723434448,0.7599999904632568 l0.5870000123977661,0.5559999942779541 l0.48500001430511475,0.6259999871253967 l0.47600001096725464,0.6970000267028809 l0.43700000643730164,0.5979999899864197 l0.29899999499320984,0.5699999928474426 l0.45500001311302185,0.6959999799728394 l0.28299999237060547,0.8330000042915344 l0.5910000205039978,1.3040000200271606 l0.2029999941587448,0.7200000286102295 l0.6179999709129333,1.8650000095367432 L240.0816879272461,284.99999809265137 v2 v5 v5 v5 v4 v3 v3 v3 v4 l0.03099999949336052,4.093999862670898 l-0.19499999284744263,1.13100004196167 l-0.20600000023841858,0.9580000042915344 l-0.17299999296665192,0.8069999814033508 l-0.17599999904632568,0.5889999866485596 l-0.2199999988079071,0.8339999914169312 l-0.24899999797344208,0.6190000176429749 l-0.8899999856948853,2.0929999351501465 l-0.328000009059906,0.781000018119812 l-0.49300000071525574,0.5849999785423279 l-0.4860000014305115,0.8080000281333923 l-0.34700000286102295,0.5220000147819519 l-0.5019999742507935,0.6320000290870667 l-0.5590000152587891,0.640999972820282 l-0.703000009059906,0.656000018119812 l-0.7710000276565552,0.8019999861717224 l-0.8479999899864197,0.7749999761581421 l-1.034000039100647,0.878000020980835 l-0.921999990940094,0.6159999966621399 l-0.9259999990463257,0.5600000023841858 l-0.9020000100135803,0.5619999766349792 l-0.7570000290870667,0.36399999260902405 l-0.6520000100135803,0.257999986410141 l-0.5440000295639038,0.20100000500679016 l-0.7319999933242798,0.3160000145435333 l-0.7200000286102295,0.2630000114440918 l-0.6549999713897705,0.20100000500679016 l-0.9779999852180481,0.2529999911785126 l-0.9739999771118164,0.13500000536441803 L222.0816879272461,340.99999809265137 h-5 h-10 h-5 h-5 h-10 z" id="path200" transform="translate(-18.5208, -21.4323) scale(0.264583)" sodipodi:nodetypes="ccccccccccccccccccccccccccccccccccccccccccccccccccccccccccccccccccccccccccccccccccccccccccccccccccccccccccccccccccccccccccccccccccccccccccccccccccccccccccccccccccccccccccccccccccccccccccccccccccccccccc" class="" fill="#ffffff" fill-opacity="1" stroke="none"/><path sodipodi:nodetypes="cccccccccccccccccccccccccccccccccccccccccc" transform="translate(-18.5208, -21.4323) scale(0.264583)" id="path167" d="m272.0816879272461,207.99999809265137 l-1.3910000324249268,-0.01600000075995922 l-0.9980000257492065,-0.12600000202655792 l-1.2829999923706055,-0.5139999985694885 l-1.284999966621399,-0.6470000147819519 l-1.1690000295639038,-0.7829999923706055 l-1.0369999408721924,-0.8510000109672546 l-0.7929999828338623,-0.9079999923706055 l-0.6320000290870667,-0.9330000281333923 l-0.6309999823570251,-1.534999966621399 l-0.7350000143051147,-1.378000020980835 l-0.1469999998807907,-2.803999900817871 l0.3269999921321869,-2.309999942779541 l0.5230000019073486,-1.6549999713897705 l1.2319999933242798,-2.2669999599456787 l2.4670000076293945,-2.1679999828338623 L269.0816879272461,187.99999809265137 h3 h5 h3 h1 h206 h2 h1 l0.9200000166893005,0.46299999952316284 l1.3769999742507935,0.6600000262260437 l0.8939999938011169,0.8769999742507935 l1.0329999923706055,1.1829999685287476 l1.0700000524520874,1.8819999694824219 l0.5640000104904175,1.1410000324249268 l0.40299999713897705,1.3229999542236328 l0.1080000028014183,1.5019999742507935 l-0.028999999165534973,2.0139999389648438 l-0.29100000858306885,1.187999963760376 l-0.45500001311302185,1.5010000467300415 l-1.0470000505447388,1.375 l-1.687999963760376,1.875 l-1.6089999675750732,1.7350000143051147 l-1.4520000219345093,0.8519999980926514 L488.0816879272461,207.99999809265137 h-1 z" style="stroke-width: 0px;" class="" fill="#ffffff" fill-opacity="1" stroke="none"/><path style="display: inline; stroke-width: 0px;" d="m53.755393981933594,33.728065490722656 l-0.368027001619339,-0.00419999985024333 l-0.2640570104122162,-0.03333999961614609 l-0.33945998549461365,-0.1359959989786148 l-0.33998700976371765,-0.17118500173091888 l-0.3093000054359436,-0.20716899633407593 l-0.27436700463294983,-0.22516000270843506 l-0.20981000363826752,-0.24024200439453125 l-0.16721700131893158,-0.24685600399971008 l-0.16695000231266022,-0.40613600611686707 l-0.19447000324726105,-0.3645949959754944 l-0.03889999911189079,-0.7418919801712036 l0.08649999648332596,-0.6111869812011719 l0.1383800059556961,-0.43788599967956543 l0.325967013835907,-0.599810004234314 l0.6527270078659058,-0.5736169815063477 l0.6752070188522339,-0.2923640012741089 h0.7937440276145935 h1.3229140043258667 h0.7937440276145935 h0.26458001136779785 h54.50413513183594 h0.5291600227355957 h0.26458999514579773 l0.24341000616550446,0.12250199913978577 l0.36434000730514526,0.1746249943971634 l0.23653000593185425,0.23203900456428528 l0.2733199894428253,0.31300199031829834 l0.2831000089645386,0.49794599413871765 l0.1492300033569336,0.30188998579978943 l0.10661999881267548,0.35004299879074097 l0.028599999845027924,0.3974049985408783 l-0.00800000037997961,0.5328710079193115 l-0.07699999958276749,0.3143250048160553 l-0.12037999927997589,0.3971390128135681 l-0.27702000737190247,0.3638019859790802 l-0.44661998748779297,0.4960939884185791 l-0.425709992647171,0.4590519964694977 l-0.3841800093650818,0.22542500495910645 l-0.47571998834609985,0.11350599676370621 h-0.26458001136779785 z" id="path167-9" sodipodi:nodetypes="cccccccccccccccccccccccccccccccccccccccccc" class="" fill="#ffffff" fill-opacity="1" stroke="none"/><path sodipodi:nodetypes="cccccccccccccccccccccccccccccccccccccccccccc" id="path360" d="m53.75531005859375,33.728050231933594 l-0.3680349886417389,-0.00419999985024333 l-0.26405400037765503,-0.03333999961614609 l-0.33946099877357483,-0.13599500060081482 l-0.3398979902267456,-0.17113900184631348 l-0.3093000054359436,-0.20716899633407593 l-0.27436700463294983,-0.22516000270843506 l-0.20981000363826752,-0.24024200439453125 l-0.16721700131893158,-0.24685600399971008 l-0.16695000231266022,-0.40613600611686707 l-0.19447000324726105,-0.3645949959754944 l-0.03889999911189079,-0.7418919801712036 l0.08649999648332596,-0.6111869812011719 l0.1383800059556961,-0.43788599967956543 l0.325967013835907,-0.599810004234314 l0.6527270078659058,-0.5736169815063477 l0.6752070188522339,-0.2923640012741089 h0.7937440276145935 h1.3229140043258667 h0.7937440276145935 h0.26458001136779785 h54.50413513183594 h0.5291600227355957 h0.26458999514579773 l0.2433999925851822,0.12242399901151657 l0.364329993724823,0.1746249943971634 l0.23654000461101532,0.23203900456428528 l0.27331000566482544,0.31300199031829834 l0.2831000089645386,0.49794599413871765 l0.1492300033569336,0.30188998579978943 l0.10662999749183655,0.35004401206970215 l0.028599999845027924,0.3974039852619171 l-0.00800000037997961,0.5328710079193115 l-0.07699999958276749,0.3143250048160553 l-0.12033999711275101,0.3971390128135681 l-0.27702000737190247,0.3638019859790802 l-0.44661998748779297,0.4960939884185791 l-0.425709992647171,0.4590519964694977 l-0.3841800093650818,0.22542500495910645 l-0.47571998834609985,0.11350599676370621 l-0.264629989862442,0 h-22.777189254760742 h-17.206119537353516 z" style="display: inline; stroke-width: 0px;" class="" fill="#ffffff" fill-opacity="1" stroke="none"/><path style="display: inline; stroke-width: 0px;" d="m53.52406311035156,62.32342529296875 l-0.36909300088882446,-0.0044999998062849045 l-0.264847993850708,-0.03438999876379967 l-0.3402549922466278,-0.13996900618076324 l-0.3407829999923706,-0.17647700011730194 l-0.3103559911251068,-0.21378299593925476 l-0.27490198612213135,-0.23204000294208527 l-0.21034400165081024,-0.24764999747276306 l-0.16774600744247437,-0.2545289993286133 l-0.16748100519180298,-0.41857099533081055 l-0.19499799609184265,-0.3759720027446747 l-0.03889000043272972,-0.7649109959602356 l0.08677999675273895,-0.6299729943275452 l0.13864099979400635,-0.4513790011405945 l0.3267579972743988,-0.6186059713363647 l0.6545789837837219,-0.5913439989089966 l0.6770690083503723,-0.30136001110076904 l0.79584801197052,0.000052999999752501026 h1.326475977897644 h0.7958840131759644 h0.26529601216316223 h54.65080642700195 l0.5306599736213684,-0.000052999999752501026 h0.26510998606681824 l0.24421000480651855,0.12647099792957306 l0.36539000272750854,0.17991699278354645 l0.2370699942111969,0.2391829937696457 l0.27410998940467834,0.3227919936180115 l0.2838900089263916,0.5132910013198853 l0.14948999881744385,0.3111500144004822 l0.1068900004029274,0.36089199781417847 l0.02879999950528145,0.409839004278183 l-0.00800000037997961,0.5492749810218811 l-0.07739999890327454,0.32411500811576843 l-0.12066999822854996,0.4093100130558014 l-0.2778100073337555,0.3751800060272217 l-0.44767001271247864,0.5114390254020691 l-0.42677998542785645,0.4730750024318695 l-0.38523000478744507,0.23256899416446686 l-0.47703999280929565,0.11694599688053131 h-0.26537999510765076 h-28.519439697265625 z" id="path167-8" sodipodi:nodetypes="ccccccccccccccccccccccccccccccccccccccccccc" class="" fill="#ffffff" fill-opacity="1" stroke="none"/><path id="path312" style="stroke-width: 0px;" d="m97.0816879272461,80.99999809265137 l-2.757810115814209,0.1543000042438507 l-1.0527399778366089,0.32030999660491943 l-1.2324199676513672,0.41405999660491943 l-1.9785100221633911,0.7578099966049194 l-1.4921900033950806,0.4961000084877014 l-2.273439884185791,1.2304699420928955 l-1.125,0.7675700187683105 l-1.0703099966049194,0.6269599795341492 l-0.8789100050926208,0.6445299983024597 l-1.214840054512024,0.8085899949073792 l-1.3632800579071045,1.3085999488830566 l-0.767579972743988,0.6660100221633911 l-1.15625,1.2617199420928955 l-1.1933599710464478,1.0839899778366089 l-1.3144500255584717,1.7207000255584717 l-1.033210039138794,1.3671900033950806 l-0.8613200187683105,1.5742100477218628 l-0.8574299812316895,1.5781300067901611 l-0.5781199932098389,1.1699199676513672 l-0.5253900289535522,1.0214899778366089 l-0.47266000509262085,1.7246099710464478 l-0.705079972743988,1.9941400289535522 l-0.6152300238609314,2.794919967651367 l-0.46288999915122986,2.4707000255584717 l-0.09369999915361404,2.044919967651367 L70.0816879272461,114.99999809265137 v620 l0.27733999490737915,2.03125 l0.5332099795341492,2.3085899353027344 l0.6269500255584717,1.8046900033950806 l0.71875,2.257810115814209 l0.7792999744415283,1.4472700357437134 l0.7792900204658508,1.3066400289535522 l0.6621099710464478,1.308590054512024 l0.6035199761390686,1.0781300067901611 l0.6210899949073792,1.058590054512024 l0.8691400289535522,1.2148499488830566 l1.0996099710464478,1 l0.794920027256012,0.9316400289535522 l1.3593800067901611,1.3632800579071045 l1.3515599966049194,1.2597600221633911 l1.3183599710464478,1.1210999488830566 l1.46875,1.0527299642562866 l1.5410200357437134,1.0957000255584717 l2.4101500511169434,1.1621099710464478 l1.9335999488830566,0.9804700016975403 l1.964840054512024,0.6035199761390686 L94.0816879272461,761.9999980926514 h79 h404 l2.365230083465576,-0.1855500042438507 l2.4667999744415283,-0.625 l1.5800800323486328,-0.625 l1.9140599966049194,-0.7910100221633911 l1.753909945487976,-0.9882799983024597 l2.052730083465576,-1.4375 l1.8671900033950806,-1.285159945487976 l2.0507800579071045,-1.6953099966049194 l1.2890599966049194,-1.3964899778366089 l1.595710039138794,-1.560539960861206 l0.6777300238609314,-0.8476600050926208 l0.6816400289535522,-1.15625 l0.798829972743988,-1.1269500255584717 l0.8144500255584717,-1.1816400289535522 l0.7480499744415283,-1.3398499488830566 l0.9941400289535522,-2.4746100902557373 l0.6855499744415283,-2.15625 l0.732420027256012,-2.3710899353027344 L602.0816879272461,104.99999809265137 l-0.13866999745368958,-0.8769500255584717 l-0.3867200016975403,-1.2128900289535522 l-0.4199199974536896,-1.3046900033950806 l-0.45313000679016113,-1.1933599710464478 l-0.4394499957561493,-1.0136699676513672 l-0.6933599710464478,-1.1777399778366089 l-0.9960899949073792,-1.9472600221633911 l-0.7148500084877014,-1.3066400289535522 l-0.6210899949073792,-1.0878900289535522 l-0.6054700016975403,-0.8066400289535522 l-0.8535199761390686,-1.0449299812316895 l-0.9472600221633911,-1.0253900289535522 l-0.9628900289535522,-1.0410100221633911 l-0.9609400033950806,-0.9218800067901611 l-1.1484400033950806,-1.0078099966049194 l-1.5703099966049194,-1.121090054512024 l-1.7207000255584717,-1.3242199420928955 l-1.503909945487976,-0.84375 l-1.2832000255584717,-0.5839899778366089 l-1.3242199420928955,-0.6953099966049194 l-1.28125,-0.5390599966049194 l-1.3945300579071045,-0.6289100050926208 l-1.8515599966049194,-0.7480400204658508 l-2.673830032348633,-0.5117200016975403 L572.0816879272461,80.99999809265137 zm5,20 h467 h3 l1.0210000276565552,0.24799999594688416 l1.0729999542236328,0.35899999737739563 l0.9330000281333923,0.3319999873638153 l0.3070000112056732,0.12399999797344208 l0.3240000009536743,0.12099999934434891 l0.3479999899864197,0.21799999475479126 l0.9549999833106995,0.5199999809265137 l0.9079999923706055,0.5529999732971191 l0.3440000116825104,0.453000009059906 l0.45100000500679016,0.37299999594688416 l0.5630000233650208,0.593999981880188 l0.3630000054836273,0.49399998784065247 l0.2240000069141388,0.2540000081062317 l0.2680000066757202,0.33399999141693115 l0.382999986410141,0.4059999883174896 l0.19300000369548798,0.414000004529953 l0.1899999976158142,0.37700000405311584 l0.26899999380111694,0.492000013589859 l0.11500000208616257,0.367000013589859 l0.20600000023841858,0.7559999823570251 l0.164000004529953,0.36500000953674316 L582.0816879272461,109.99999809265137 V730.9999980926514 V731.9843730926514 V732.9999980926514 l-0.15399999916553497,1.100000023841858 l-0.5529999732971191,1.3550000190734863 l-0.421999990940094,0.8809999823570251 l-0.2029999941587448,0.33399999141693115 l-0.4020000100135803,0.4410000145435333 l-0.4300000071525574,0.5139999985694885 l-0.5370000004768372,0.5899999737739563 l-0.335999995470047,0.4059999883174896 l-1.0959999561309814,1.0529999732971191 l-1.2990000247955322,0.9409999847412109 l-3.7890000343322754,1.375 L572.0816879272461,741.9999980926514 h-1 h-1 h-399 l-69.03099822998047,-0.12700000405311584 l-2.257999897003174,-0.2540000081062317 l-1.2130000591278076,-0.44699999690055847 l-1.125,-0.4399999976158142 l-1.4160000085830688,-0.6499999761581421 l-1.3730000257492065,-1.1970000267028809 l-0.9279999732971191,-1.062999963760376 l-0.8399999737739563,-0.9079999923706055 l-0.8820000290870667,-1.4040000438690186 l-0.6625199913978577,-1.879140019416809 l-0.6738200187683105,-1.652340054512024 L90.0816879272461,728.9999980926514 v-4 v-613 l0.03319999948143959,-0.9941400289535522 l0.15234999358654022,-0.40233999490737915 l0.1894499957561493,-0.4629000127315521 l0.49219000339508057,-0.7421799898147583 l0.34375,-0.6914100050926208 l0.41211000084877014,-0.7109400033950806 l0.46288999915122986,-0.8398399949073792 l0.37108999490737915,-0.7070299983024597 l0.43358999490737915,-0.5781300067901611 l0.5742200016975403,-0.6406199932098389 l0.5976600050926208,-0.6953099966049194 l0.6992200016975403,-0.5976600050926208 l0.8515599966049194,-0.6816400289535522 l0.548829972743988,-0.4257799983024597 l1.0742199420928955,-0.4902400076389313 l0.375,-0.1894499957561493 l0.46483999490737915,-0.23827999830245972 l0.478520005941391,-0.18358999490737915 l0.6601499915122986,-0.1875 l0.36913999915122986,-0.10547000169754028 l0.4043000042438507,-0.06840000301599503 l0.7461000084877014,-0.17969000339508057 l0.5234299898147583,-0.15038999915122986 z" transform="translate(-18.5208, -21.4323) scale(0.264583)" sodipodi:nodetypes="ccccccccccccccccccccccccccccccccccccccccccccccccccccccccccccccccccccccccccccccccccccccccccccccccccccccccccccccccccccccccccccccccccccccccccccccccccccccccccccccccccccccccccccccccc" class="" fill="#ffffff" fill-opacity="1" stroke="none"/><path style="stroke-width: 0px;" d="M145.0816879272461,636.9999980926514 V397.99999809265137 l0.12099999934434891,-0.9789999723434448 l0.5370000004768372,-1.1339999437332153 l0.7009999752044678,-1.378999948501587 l0.9480000138282776,-1.2519999742507935 l1.347000002861023,-1.4079999923706055 l1.090000033378601,-0.6859999895095825 l1.3930000066757202,-0.6620000004768372 L153.0816879272461,389.99999809265137 h4 h252 h4 l113,57 l0.4880000054836273,0.5370000004768372 l0.5630000233650208,0.8090000152587891 l0.6050000190734863,1.5130000114440918 L528.0816879272461,451.99999809265137 v12 H506.0816879272461 L492.0816879272461,460.99999809265137 L472.0816879272461,443.96874809265137 L464.83870697021484,440.13000297546387 L437.82369232177734,425.81200981140137 L429.71968841552734,421.516996383667 L406.0816879272461,409.99999809265137 h-7 h-97 h-25 h-30 h-20 h-29 l65.68900299072266,33.84000015258789 l93.30699920654297,0.0729999989271164 L469.0816879272461,443.99999809265137 c0,0 1.5,-0.04670000076293945 3,-0.03099999949336052 c0.5002099871635437,0.004999999888241291 2,0.03099999949336052 2,0.03099999949336052 l34,20 h-71 l0.09799999743700027,81.98999786376953 l-0.1770000010728836,2.0889999866485596 l-0.6710000038146973,1.4520000219345093 l-1.093999981880188,1.718999981880188 l-1.2940000295639038,1.378999948501587 l-1.7319999933242798,0.9990000128746033 L429.0816879272461,553.9999980926514 h-67 v-20 h55 v-70 h-55 v70 v20 h-10 l-2.7920000553131104,-0.014000000432133675 l-2.318000078201294,-0.5619999766349792 l-1.4859999418258667,-0.9879999756813049 l-1.031999945640564,-1.1390000581741333 l-1.2289999723434448,-1.7740000486373901 l-0.5870000123977661,-1.687000036239624 L342.0816879272461,545.9999980926514 l0,-1 v0 v0 v-81 h-70 l-20,-4 c0,0 -20.24588966369629,-9.884550094604492 -42.03466033935547,-20.63884925842285 c-13.121450424194336,-6.476359844207764 -26.71792984008789,-13.437150001525879 -37.02783966064453,-18.26740074157715 c-0.7814800143241882,-0.366129994392395 -5.655879974365234,-2.8125 -6.260499954223633,-3.2360000610351562 c-0.31863999366760254,-0.22316999733448029 -1.0446300506591797,0.0006600000197067857 -1.197059988975525,0.1811400055885315 c-0.3130800127983093,0.3706899881362915 -0.3415699899196625,0.6090499758720398 -0.4199399948120117,1.1711100339889526 C165.10639190673828,419.463041305542 165.0816879272461,419.99999809265137 165.0816879272461,419.99999809265137 v7 v11 v135 v3 l6.998000144958496,4.888000011444092 l20.333999633789062,14.119999885559082 l11.670000076293945,8.168999671936035 l44.981998443603516,31.485000610351562 L252.0816879272461,635.9999980926514 h20 V463.99999809265137 l-20,-4 v230 v-28 l-87,-61 v29 l87,60 v-54 h20 v10.038269996643066 L508.0816879272461,645.9999980926514 v20 H272.0816879272461 v34 H508.0816879272461 V665.9999980926514 V463.99999809265137 h20 v248 l-0.289000004529953,1.1050000190734863 l-0.3619999885559082,0.9070000052452087 l-0.29600000381469727,0.7149999737739563 l-0.5830000042915344,0.8500000238418579 l-0.5389999747276306,0.8019999861717224 l-0.48100000619888306,0.47999998927116394 l-0.3529999852180481,0.47999998927116394 l-0.46700000762939453,0.4009999930858612 l-0.34299999475479126,0.3569999933242798 l-0.5329999923706055,0.3659999966621399 l-0.5799999833106995,0.3630000054836273 l-0.5239999890327454,0.3230000138282776 l-0.5350000262260437,0.2720000147819519 l-0.9049999713897705,0.3100000023841858 l-1.1160000562667847,0.29100000858306885 L514.0816879272461,719.9999980926514 H272.0816879272461 L260.0656967163086,720.0629863739014 L146.0816879272461,639.9999980926514 L145.45868682861328,638.9790019989014 L145.0816879272461,637.9999980926514 z" id="path438" transform="translate(-18.5208, -21.4323) scale(0.264583)" sodipodi:nodetypes="cccccccccccccccccccccccccccccccccccscccccccccccccccccccccccccccccccssssscccccccccccccccccccccccccccccccccccccccccccccccccccc" class="" fill="#ffffff" fill-opacity="1" stroke="none"/></g></g></svg>