<svg width="140" height="140" xmlns="http://www.w3.org/2000/svg" xml:space="preserve" enable-background="new 0 0 140 140" version="1.1">

 <g>
  <title>Layer 1</title>
  <path id="svg_1" d="m133.363,10.104l-8.96,-5.921c-2.303,-1.523 -5.659,-0.506 -7.494,2.271l-38.661,58.497c-0.931,1.41 -1.286,3.001 -1.113,4.427l-1.285,9.286l-1.523,11.031l9.55,-5.727l8.038,-4.821c1.38,-0.399 2.705,-1.35 3.637,-2.761l38.661,-58.498c1.834,-2.776 1.454,-6.262 -0.85,-7.784zm-44.914,55.741c-1.581,2.392 -3.392,3.978 -4.047,3.544l-2.546,-1.682c-0.655,-0.434 0.094,-2.721 1.674,-5.114l33.28,-50.357c1.581,-2.392 3.393,-3.978 4.048,-3.545l2.547,1.684c0.655,0.433 -0.095,2.721 -1.675,5.112l-33.281,50.358zm7.337,4.85c-1.581,2.391 -3.393,3.978 -4.046,3.544l-2.548,-1.684c-0.656,-0.432 0.094,-2.721 1.675,-5.113l33.281,-50.357c1.58,-2.391 3.392,-3.978 4.047,-3.545l2.546,1.684c0.655,0.432 -0.095,2.721 -1.674,5.112l-33.281,50.359z" fill="#ffffff"/>
  <g id="svg_2">
   <path id="svg_3" d="m119.08,52.545l0,62.421c0,2.273 -1.841,4.114 -4.114,4.114l-89.932,0c-2.271,0 -4.114,-1.841 -4.114,-4.114l0,-89.932c0,-2.271 1.843,-4.114 4.114,-4.114l75.504,0l6.983,-10.566l-92.167,0c-2.761,0 -5,2.239 -5,5l0,109.293c0,2.762 2.239,5 5,5l109.292,0c2.762,0 5,-2.238 5,-5l0,-88.088l-10.566,15.986z" fill="#ffffff"/>
  </g>
  <path id="svg_4" d="m90.257,36.498c0,2.761 -2.238,5 -5,5l-52.54,0c-2.761,0 -5,-2.239 -5,-5l0,-2.862c0,-2.761 2.239,-5 5,-5l52.54,0c2.762,0 5,2.239 5,5l0,2.862z" fill="#ffffff"/>
  <path id="svg_5" d="m77.234,56.533c0,2.761 -1.772,5 -3.959,5l-41.599,0c-2.187,0 -3.959,-2.239 -3.959,-5l0,-2.862c0,-2.761 1.772,-5 3.959,-5l41.599,0c2.187,0 3.959,2.239 3.959,5l0,2.862z" fill="#ffffff"/>
  <path id="svg_6" d="m70,76.111c0,2.762 -1.513,5 -3.38,5l-35.522,0c-1.867,0 -3.38,-2.238 -3.38,-5l0,-2.861c0,-2.761 1.514,-5 3.38,-5l35.521,0c1.867,0 3.38,2.239 3.38,5l0,2.861l0.001,0z" fill="#ffffff"/>
  <path id="svg_7" d="m70,96.144c0,2.762 -1.514,5 -3.381,5l-35.521,0c-1.867,0 -3.38,-2.238 -3.38,-5l0,-2.861c0,-2.761 1.514,-5 3.38,-5l35.521,0c1.867,0 3.381,2.239 3.381,5l0,2.861z" fill="#ffffff"/>
 </g>
</svg>