<svg xmlns="http://www.w3.org/2000/svg" xmlns:xlink="http://www.w3.org/1999/xlink" version="1.1" enable-background="new 0 0 140 140" xml:space="preserve" width="140" height="140" style=""><rect id="backgroundrect" width="100%" height="100%" x="0" y="0" fill="none" stroke="none"/><g class="currentLayer" style=""><title>Layer 1</title><path fill="#2f5496" d="M133.363,10.104l-8.96-5.921c-2.303-1.523-5.659-0.506-7.494,2.271L78.248,64.951  c-0.931,1.41-1.286,3.001-1.113,4.427l-1.285,9.286l-1.523,11.031l9.55-5.727l8.038-4.821c1.38-0.399,2.705-1.35,3.637-2.761  l38.661-58.498C136.047,15.112,135.667,11.626,133.363,10.104z M88.449,65.845c-1.581,2.392-3.392,3.978-4.047,3.544l-2.546-1.682  c-0.655-0.434,0.094-2.721,1.674-5.114l33.28-50.357c1.581-2.392,3.393-3.978,4.048-3.545l2.547,1.684  c0.655,0.433-0.095,2.721-1.675,5.112L88.449,65.845z M95.786,70.695c-1.581,2.391-3.393,3.978-4.046,3.544l-2.548-1.684  c-0.656-0.432,0.094-2.721,1.675-5.113l33.281-50.357c1.58-2.391,3.392-3.978,4.047-3.545l2.546,1.684  c0.655,0.432-0.095,2.721-1.674,5.112L95.786,70.695z" id="svg_1" class="" fill-opacity="1"/><path fill="#2f5496" d="M133.36300659179688,10.104000091552734 l-8.960000038146973,-5.921000003814697 c-2.302999973297119,-1.5230000019073486 -5.658999919891357,-0.5059999823570251 -7.49399995803833,2.2709999084472656 L78.24800109863281,64.95099639892578 c-0.9309999942779541,1.409999966621399 -1.2860000133514404,3.000999927520752 -1.1130000352859497,4.427000045776367 l-1.284999966621399,9.28600025177002 l-1.5230000019073486,11.031000137329102 l9.550000190734863,-5.7270002365112305 l8.038000106811523,-4.821000099182129 c1.3799999952316284,-0.39899998903274536 2.7049999237060547,-1.350000023841858 3.63700008392334,-2.760999917984009 l38.6609992980957,-58.49800109863281 C136.0469970703125,15.112000465393066 135.66700744628906,11.62600040435791 133.36300659179688,10.104000091552734 zM88.4489974975586,65.84500122070312 c-1.5809999704360962,2.3919999599456787 -3.3919999599456787,3.9779999256134033 -4.046999931335449,3.5439999103546143 l-2.5460000038146973,-1.6820000410079956 c-0.6549999713897705,-0.4339999854564667 0.09399999678134918,-2.7209999561309814 1.6740000247955322,-5.113999843597412 l33.279998779296875,-50.356998443603516 c1.5809999704360962,-2.3919999599456787 3.3929998874664307,-3.9779999256134033 4.047999858856201,-3.5450000762939453 l2.546999931335449,1.684000015258789 c0.6549999713897705,0.43299999833106995 -0.0949999988079071,2.7209999561309814 -1.6749999523162842,5.111999988555908 L88.4489974975586,65.84500122070312 zM95.78600311279297,70.69499969482422 c-1.5809999704360962,2.3910000324249268 -3.3929998874664307,3.9779999256134033 -4.046000003814697,3.5439999103546143 l-2.5480000972747803,-1.684000015258789 c-0.656000018119812,-0.4320000112056732 0.09399999678134918,-2.7209999561309814 1.6749999523162842,-5.11299991607666 l33.28099822998047,-50.356998443603516 c1.5800000429153442,-2.3910000324249268 3.3919999599456787,-3.9779999256134033 4.046999931335449,-3.5450000762939453 l2.5460000038146973,1.684000015258789 c0.6549999713897705,0.4320000112056732 -0.0949999988079071,2.7209999561309814 -1.6740000247955322,5.111999988555908 L95.78600311279297,70.69499969482422 z" class="" fill-opacity="1" id="svg_8"/><g id="svg_2" class="" opacity="1" fill-opacity="1" fill="#2f5496"><path fill="#2f5496" d="M119.08,52.545v62.421c0,2.273-1.841,4.114-4.114,4.114H25.034c-2.271,0-4.114-1.841-4.114-4.114V25.034   c0-2.271,1.843-4.114,4.114-4.114h75.504l6.983-10.566H15.354c-2.761,0-5,2.239-5,5v109.293c0,2.762,2.239,5,5,5h109.292   c2.762,0,5-2.238,5-5V36.559L119.08,52.545z" id="svg_3" opacity="1"/></g><path fill="#000000" d="M90.257,36.498c0,2.761-2.238,5-5,5h-52.54c-2.761,0-5-2.239-5-5v-2.862c0-2.761,2.239-5,5-5h52.54  c2.762,0,5,2.239,5,5V36.498z" id="svg_4" class=""/><path fill="#2f5496" d="M90.25700378417969,36.49800109863281 c0,2.760999917984009 -2.23799991607666,5 -5,5 h-52.540000915527344 c-2.760999917984009,0 -5,-2.239000082015991 -5,-5 v-2.861999988555908 c0,-2.760999917984009 2.239000082015991,-5 5,-5 h52.540000915527344 c2.76200008392334,0 5,2.239000082015991 5,5 V36.49800109863281 z" class="selected" id="svg_9" fill-opacity="1"/><path fill="#000000" d="M77.234,56.533c0,2.761-1.772,5-3.959,5H31.676c-2.187,0-3.959-2.239-3.959-5v-2.862  c0-2.761,1.772-5,3.959-5h41.599c2.187,0,3.959,2.239,3.959,5V56.533z" id="svg_5" class=""/><path fill="#2f5496" d="M77.23400115966797,56.53300094604492 c0,2.760999917984009 -1.7719999551773071,5 -3.9590001106262207,5 H31.676000595092773 c-2.187000036239624,0 -3.9590001106262207,-2.239000082015991 -3.9590001106262207,-5 v-2.861999988555908 c0,-2.760999917984009 1.7719999551773071,-5 3.9590001106262207,-5 h41.5989990234375 c2.187000036239624,0 3.9590001106262207,2.239000082015991 3.9590001106262207,5 V56.53300094604492 z" class="selected" id="svg_10" fill-opacity="1"/><path fill="#000000" d="M70,76.111c0,2.762-1.513,5-3.38,5H31.098c-1.867,0-3.38-2.238-3.38-5V73.25c0-2.761,1.514-5,3.38-5h35.521  c1.867,0,3.38,2.239,3.38,5V76.111z" id="svg_6" class=""/><path fill="#2f5496" d="M70,76.11100006103516 c0,2.76200008392334 -1.5130000114440918,5 -3.380000114440918,5 H31.097999572753906 c-1.8669999837875366,0 -3.380000114440918,-2.23799991607666 -3.380000114440918,-5 V73.25 c0,-2.760999917984009 1.5140000581741333,-5 3.380000114440918,-5 h35.520999908447266 c1.8669999837875366,0 3.380000114440918,2.239000082015991 3.380000114440918,5 V76.11100006103516 z" class="selected" id="svg_11" fill-opacity="1"/><path fill="#2f5496" d="M69.30069929361343,96.84329789876938 c0,2.76200008392334 -1.5140000581741333,5 -3.38100004196167,5 H30.39869886636734 c-1.8669999837875366,0 -3.380000114440918,-2.23799991607666 -3.380000114440918,-5 v-2.8610000610351562 c0,-2.760999917984009 1.5140000581741333,-5 3.380000114440918,-5 h35.520999908447266 c1.8669999837875366,0 3.38100004196167,2.239000082015991 3.38100004196167,5 V96.84329789876938 z" id="svg_7" class="selected" fill-opacity="1"/></g></svg>