<?xml version="1.0" encoding="UTF-8" standalone="no"?>
<svg
   xmlns:dc="http://purl.org/dc/elements/1.1/"
   xmlns:cc="http://creativecommons.org/ns#"
   xmlns:rdf="http://www.w3.org/1999/02/22-rdf-syntax-ns#"
   xmlns:svg="http://www.w3.org/2000/svg"
   xmlns="http://www.w3.org/2000/svg"
   xmlns:sodipodi="http://sodipodi.sourceforge.net/DTD/sodipodi-0.dtd"
   xmlns:inkscape="http://www.inkscape.org/namespaces/inkscape"
   inkscape:version="1.0 (4035a4fb49, 2020-05-01)"
   sodipodi:docname="lupa.svg"
   viewBox="0 0 1280 1280"
   height="1280"
   width="1280"
   id="svg10"
   version="1.1">
  <metadata
     id="metadata16">
    <rdf:RDF>
      <cc:Work
         rdf:about="">
        <dc:format>image/svg+xml</dc:format>
        <dc:type
           rdf:resource="http://purl.org/dc/dcmitype/StillImage" />
        <dc:title></dc:title>
      </cc:Work>
    </rdf:RDF>
  </metadata>
  <defs
     id="defs14" />
  <sodipodi:namedview
     inkscape:current-layer="g18"
     inkscape:window-maximized="1"
     inkscape:window-y="-11"
     inkscape:window-x="-11"
     inkscape:cy="590.26706"
     inkscape:cx="633.67381"
     inkscape:zoom="1"
     showgrid="false"
     id="namedview12"
     inkscape:window-height="986"
     inkscape:window-width="1920"
     inkscape:pageshadow="2"
     inkscape:pageopacity="0"
     guidetolerance="10"
     gridtolerance="10"
     objecttolerance="10"
     borderopacity="1"
     bordercolor="#666666"
     pagecolor="#ffffff" />
  <g
     id="g18"
     inkscape:label="Image"
     inkscape:groupmode="layer">
    <g
       transform="translate(1.6710192)"
       id="g22">
      <path
         sodipodi:nodetypes="ssssscccssssssssssssscccssssssssssssssssssss"
         id="path24"
         d="m 359.5,957.61919 c -3.87952,-1.80768 -37.04248,-35.38852 -37.97759,-38.45613 -1.96741,-6.45409 -5.2293,-2.9684 119.23687,-127.41817 C 556.83068,675.68878 559.60599,673 563.32565,673 c 4.60357,0 7.06804,1.18034 11.70307,5.60511 l 3.52872,3.36864 11.83594,-11.86685 11.83593,-11.86685 -2.86465,-3.20032 c -5.47082,-6.11185 -16.9167,-21.9277 -21.86323,-30.21046 C 536.81818,556.70673 533.3092,474.99999 567.99621,403.5 c 22.16427,-45.68701 61.1449,-84.18954 107.27239,-105.95672 22.26819,-10.50817 41.95959,-16.39133 69.2314,-20.68412 12.22064,-1.92363 49.51491,-1.64544 62.95808,0.46961 76.65937,12.06103 139.31374,57.3466 173.33887,125.28652 16.25185,32.45101 23.51595,63.94891 23.61215,102.38471 0.056,22.42341 -0.8031,31.11587 -4.948,50.06134 -12.66045,57.86782 -47.75782,109.17501 -97.05577,141.88125 -34.41874,22.83478 -69.93822,34.84695 -113.03255,38.22597 -38.30429,3.00344 -81.1426,-5.55174 -116.87278,-23.34051 -17.42569,-8.67562 -29.69359,-16.56493 -44.02322,-28.31069 l -6.84946,-5.61439 -11.80054,11.76979 -11.80053,11.7698 3.36864,3.52872 c 4.42498,4.63526 5.60511,7.0995 5.60511,11.70413 0,3.7211 -2.67707,6.48425 -118.77232,122.59167 C 359.32138,968.18689 367.00962,961.11833 359.5,957.61919 Z M 807.90925,674.05464 C 873.01799,660.474 924.19434,612.17669 940.94828,548.5 c 6.43998,-24.4764 6.86072,-55.83149 1.10033,-82 -5.5436,-25.18366 -20.59425,-54.19627 -38.88424,-74.95577 C 883.71628,369.47026 855.86371,351.15973 828,342.1305 c -18.73928,-6.07246 -31.98991,-8.09088 -53.26077,-8.11304 -29.00267,-0.0302 -49.98452,4.71809 -75.23923,17.02701 -41.46842,20.21136 -73.83514,57.14417 -88.01509,100.43171 -6.61067,20.18059 -7.9622,29.37054 -7.94506,54.02382 0.0118,16.90706 0.41721,23.96773 1.75148,30.5 5.58297,27.33294 15.69714,50.41676 31.54677,72 8.65713,11.78885 28.09488,30.45535 40.41527,38.81166 21.61978,14.66364 45.87062,24.51135 69.24663,28.11947 3.85,0.59426 8.125,1.26927 9.5,1.50003 1.375,0.23077 11.275,0.27897 22,0.10713 15.22616,-0.24397 21.78141,-0.78831 29.90925,-2.48365 z"
         style="fill:#2f5496;fill-opacity:1" />
    </g>
  </g>
</svg>
