<?xml version="1.0" encoding="UTF-8" standalone="no"?>
<svg
   xmlns:dc="http://purl.org/dc/elements/1.1/"
   xmlns:cc="http://creativecommons.org/ns#"
   xmlns:rdf="http://www.w3.org/1999/02/22-rdf-syntax-ns#"
   xmlns:svg="http://www.w3.org/2000/svg"
   xmlns="http://www.w3.org/2000/svg"
   xmlns:sodipodi="http://sodipodi.sourceforge.net/DTD/sodipodi-0.dtd"
   xmlns:inkscape="http://www.inkscape.org/namespaces/inkscape"
   sodipodi:docname="Mas B_A.svg"
   inkscape:version="1.0 (4035a4fb49, 2020-05-01)"
   id="svg2288"
   version="1.1"
   viewBox="0 0 210 239.99998"
   height="239.99998mm"
   width="210mm">
  <defs
     id="defs2282" />
  <sodipodi:namedview
     inkscape:window-maximized="1"
     inkscape:window-y="-11"
     inkscape:window-x="-11"
     inkscape:window-height="986"
     inkscape:window-width="1920"
     showgrid="true"
     inkscape:document-rotation="0"
     inkscape:current-layer="layer1"
     inkscape:document-units="mm"
     inkscape:cy="610.10527"
     inkscape:cx="-270.57592"
     inkscape:zoom="0.49497475"
     inkscape:pageshadow="2"
     inkscape:pageopacity="0.0"
     borderopacity="1.0"
     bordercolor="#666666"
     pagecolor="#ffffff"
     id="base">
    <inkscape:grid
       id="grid859"
       type="xygrid" />
  </sodipodi:namedview>
  <metadata
     id="metadata2285">
    <rdf:RDF>
      <cc:Work
         rdf:about="">
        <dc:format>image/svg+xml</dc:format>
        <dc:type
           rdf:resource="http://purl.org/dc/dcmitype/StillImage" />
        <dc:title></dc:title>
      </cc:Work>
    </rdf:RDF>
  </metadata>
  <g
     id="layer1"
     inkscape:groupmode="layer"
     inkscape:label="Capa 1">
    <path
       style="fill:#ffffff;fill-opacity:1;stroke:#ffffff;stroke-width:0;stroke-opacity:1"
       d="m 242.06597,650.02112 c -22.55941,-4.04506 -42.60456,-26.66259 -46.47879,-52.44338 -4.1861,-27.85616 10.06894,-56.27556 34.18015,-68.14287 8.62152,-4.24342 10.50005,-4.617 23.0766,-4.58913 12.49429,0.0277 14.50591,0.43148 23.01292,4.61946 30.8561,15.19041 43.56268,54.80596 28.05003,87.4521 -5.95402,12.53013 -19.36743,25.78584 -30.19008,29.83511 -8.93114,3.34157 -23.0897,4.80378 -31.65083,3.26871 z"
       id="path2923"
       transform="scale(0.26458333)" />
    <path
       style="fill:#ffffff;fill-opacity:1;stroke:#ffffff;stroke-width:0;stroke-opacity:1"
       d="m 517.78026,649.31893 c -27.23522,-7.08345 -45.40365,-31.79525 -45.32322,-61.64638 0.0712,-26.41518 13.07119,-47.57618 35.86125,-58.37379 8.47983,-4.01762 10.79651,-4.4762 22.31911,-4.418 16.08102,0.0812 25.51597,3.99375 37.73385,15.64763 38.73493,36.94686 16.76279,106.46314 -34.78242,110.04594 -4.76614,0.33129 -11.88,-0.23365 -15.80857,-1.2554 z"
       id="path2925"
       transform="scale(0.26458333)" />
    <path
       style="display:inline;fill:#ffffff;fill-opacity:1;stroke:#ffffff;stroke-width:0.264583px;stroke-linecap:butt;stroke-linejoin:miter;stroke-opacity:1"
       d="M 0,0 V 239.97691 H 210.07916 V 0 Z"
       id="path2271" />
    <g
       style="fill:#2f5496;fill-opacity:1"
       transform="matrix(0,0.26458333,-0.26458333,0,154.56465,66.03841)"
       id="g7317">
      <g
         style="fill:#2f5496;fill-opacity:1"
         id="g7258">
	<g
   style="fill:#2f5496;fill-opacity:1"
   id="g7256">
		<path
   style="fill:#2f5496;fill-opacity:1"
   d="M 228.406,292.362 H 173.59 c -7.616,0 -14.084,2.662 -19.414,7.99 -5.33,5.329 -7.994,11.797 -7.994,19.411 v 54.826 c 0,7.611 2.664,14.086 7.994,19.41 5.327,5.332 11.798,7.991 19.414,7.991 h 54.816 c 7.614,0 14.082,-2.663 19.41,-7.991 5.328,-5.328 7.994,-11.799 7.994,-19.41 v -54.826 c 0,-7.614 -2.666,-14.082 -7.994,-19.411 -5.321,-5.328 -11.796,-7.99 -19.41,-7.99 z"
   id="path7250" />

		<path
   style="fill:#2f5496;fill-opacity:1"
   d="M 228.406,146.181 H 173.59 c -7.616,0 -14.084,2.664 -19.414,7.994 -5.33,5.33 -7.994,11.798 -7.994,19.414 v 54.819 c 0,7.618 2.664,14.086 7.994,19.411 5.327,5.332 11.798,7.994 19.414,7.994 h 54.816 c 7.614,0 14.082,-2.662 19.41,-7.994 5.328,-5.325 7.994,-11.793 7.994,-19.411 v -54.819 c 0,-7.616 -2.666,-14.087 -7.994,-19.414 -5.321,-5.33 -11.796,-7.994 -19.41,-7.994 z"
   id="path7252" />

		<path
   style="fill:#2f5496;fill-opacity:1"
   d="M 247.816,7.993 C 242.488,2.666 236.02,0 228.406,0 H 173.59 c -7.616,0 -14.084,2.663 -19.414,7.993 -5.33,5.33 -7.994,11.803 -7.994,19.414 v 54.821 c 0,7.616 2.664,14.084 7.994,19.414 5.327,5.327 11.798,7.994 19.414,7.994 h 54.816 c 7.614,0 14.082,-2.664 19.41,-7.994 5.328,-5.327 7.994,-11.798 7.994,-19.414 V 27.406 c 0.003,-7.611 -2.659,-14.084 -7.994,-19.413 z"
   id="path7254" />

	</g>

</g>
      <g
         style="fill:#2f5496;fill-opacity:1"
         id="g7260">
</g>
      <g
         style="fill:#2f5496;fill-opacity:1"
         id="g7262">
</g>
      <g
         style="fill:#2f5496;fill-opacity:1"
         id="g7264">
</g>
      <g
         style="fill:#2f5496;fill-opacity:1"
         id="g7266">
</g>
      <g
         style="fill:#2f5496;fill-opacity:1"
         id="g7268">
</g>
      <g
         style="fill:#2f5496;fill-opacity:1"
         id="g7270">
</g>
      <g
         style="fill:#2f5496;fill-opacity:1"
         id="g7272">
</g>
      <g
         style="fill:#2f5496;fill-opacity:1"
         id="g7274">
</g>
      <g
         style="fill:#2f5496;fill-opacity:1"
         id="g7276">
</g>
      <g
         style="fill:#2f5496;fill-opacity:1"
         id="g7278">
</g>
      <g
         style="fill:#2f5496;fill-opacity:1"
         id="g7280">
</g>
      <g
         style="fill:#2f5496;fill-opacity:1"
         id="g7282">
</g>
      <g
         style="fill:#2f5496;fill-opacity:1"
         id="g7284">
</g>
      <g
         style="fill:#2f5496;fill-opacity:1"
         id="g7286">
</g>
      <g
         style="fill:#2f5496;fill-opacity:1"
         id="g7288">
</g>
    </g>
  </g>
</svg>
