<svg xmlns:dc="http://purl.org/dc/elements/1.1/" xmlns:cc="http://creativecommons.org/ns#" xmlns:rdf="http://www.w3.org/1999/02/22-rdf-syntax-ns#" xmlns:svg="http://www.w3.org/2000/svg" xmlns="http://www.w3.org/2000/svg" xmlns:sodipodi="http://sodipodi.sourceforge.net/DTD/sodipodi-0.dtd" xmlns:inkscape="http://www.inkscape.org/namespaces/inkscape" width="118" height="111" version="1.1" inkscape:version="1.0 (4035a4fb49, 2020-05-01)" sodipodi:docname="Picking B_A.svg"><rect id="backgroundrect" width="100%" height="100%" x="0" y="0" fill="none" stroke="none" style="" class=""/>
  <defs id="defs2"/>
  <sodipodi:namedview id="base" pagecolor="#ffffff" bordercolor="#666666" borderopacity="1.0" inkscape:pageopacity="0.0" inkscape:pageshadow="2" inkscape:zoom="0.7" inkscape:cx="-304.28571" inkscape:cy="445.71429" inkscape:document-units="mm" inkscape:current-layer="layer1" inkscape:document-rotation="0" showgrid="false" inkscape:window-width="1920" inkscape:window-height="986" inkscape:window-x="-11" inkscape:window-y="-11" inkscape:window-maximized="1"/>
  <metadata id="metadata5">
    <rdf:RDF>
      <cc:Work rdf:about="">
        <dc:format>image/svg+xml</dc:format>
        <dc:type rdf:resource="http://purl.org/dc/dcmitype/StillImage"/>
        <dc:title/>
      </cc:Work>
    </rdf:RDF>
  </metadata>
  
<g class="currentLayer" style=""><title>Layer 1</title><g inkscape:label="Capa 1" inkscape:groupmode="layer" id="layer1" class="">
    <g style="fill:#2f5496;fill-opacity:1;stroke:#2f5496;stroke-opacity:1" id="g1182">
      <path style="fill:#2f5496;fill-opacity:1;stroke:#2f5496;stroke-opacity:1" d="m117.49835205078125,21.157958984375 c-0.7138457894325256,-0.9786936640739441 -1.8536707162857056,-1.5578665733337402 -3.0649330615997314,-1.5578665733337402 H29.082550048828125 c-0.1653645783662796,0 -0.33046454191207886,0.010054165497422218 -0.4894791543483734,0.031485415995121 L25.080459594726562,9.505973815917969 c-0.3640666604042053,-1.0472207069396973 -1.1657541990280151,-1.8819811344146729 -2.1960415840148926,-2.2875874042510986 L5.181678771972656,0.26407623291015625 c-1.9510374069213867,-0.763852059841156 -4.152635097503662,0.19446873664855957 -4.918868541717529,2.143125057220459 c-0.7649103999137878,1.9497144222259521 0.19314582645893097,4.152635097503662 2.143125057220459,4.918868541717529 l16.07819938659668,6.31613302230835 l19.67997169494629,56.72639846801758 c-0.8686270117759705,0.3026833236217499 -1.604697823524475,0.9691687226295471 -1.9399248361587524,1.9015603065490723 l-5.690128803253174,15.80594253540039 c-0.34872081875801086,0.9691687226295471 -0.20505206286907196,2.046022653579712 0.3884083330631256,2.8881916999816895 c0.5926666259765625,0.8421687483787537 1.5565435886383057,1.343554139137268 2.585772752761841,1.343554139137268 h2.92205810546875 c-1.8108081817626953,2.015066623687744 -2.92205810546875,4.668837070465088 -2.92205810546875,7.586926460266113 c0,6.275387287139893 5.105928897857666,11.380257606506348 11.380257606506348,11.380257606506348 c6.27432918548584,0 11.380257606506348,-5.104870796203613 11.380257606506348,-11.380257606506348 c0,-2.9180893898010254 -1.1112499237060547,-5.571860313415527 -2.92205810546875,-7.586926460266113 h24.811565399169922 c-1.811601996421814,2.015066623687744 -2.923116683959961,4.668837070465088 -2.923116683959961,7.586926460266113 c0,6.275387287139893 5.104870796203613,11.380257606506348 11.380522727966309,11.380257606506348 c6.275387287139893,0 11.380257606506348,-5.104870796203613 11.380257606506348,-11.380257606506348 c0,-2.9180893898010254 -1.1112499237060547,-5.571860313415527 -2.9217936992645264,-7.586926460266113 h3.554147720336914 c1.7459852695465088,0 3.1609768867492676,-1.415256142616272 3.1609768867492676,-3.1612415313720703 c0,-1.7459852695465088 -1.415256142616272,-3.1609768867492676 -3.1609768867492676,-3.1609768867492676 H38.00614929199219 l3.5239853858947754,-9.78852367401123 c0.45508331060409546,0.19155831634998322 0.9466791152954102,0.30479997396469116 1.4612935781478882,0.30479997396469116 h55.636051177978516 c1.6494125127792358,0 3.109118700027466,-1.0654770135879517 3.6115622520446777,-2.6349852085113525 l15.80594253540039,-49.31488800048828 c0.3706812262535095,-1.1546415090560913 0.16721665859222412,-2.4153809547424316 -0.5466291308403015,-3.3940749168395996 zM44.88848876953125,104.95256042480469 c-2.789501905441284,0 -5.057774543762207,-2.268272876739502 -5.057774543762207,-5.057774543762207 c0,-2.789501905441284 2.268272876739502,-5.058039665222168 5.057774543762207,-5.058039665222168 c2.789501905441284,0 5.057774543762207,2.2685375213623047 5.057774543762207,5.058039665222168 c0,2.789501905441284 -2.268272876739502,5.057774543762207 -5.057774543762207,5.057774543762207 zm41.726905822753906,0 c-2.789501905441284,0 -5.058039665222168,-2.268272876739502 -5.058039665222168,-5.057774543762207 c0,-2.789501905441284 2.2685375213623047,-5.058039665222168 5.058039665222168,-5.058039665222168 c2.7892372608184814,0 5.057774543762207,2.2685375213623047 5.057774543762207,5.058039665222168 c0,2.789501905441284 -2.2685375213623047,5.057774543762207 -5.057774543762207,5.057774543762207 zM106.49961853027344,35.72221374511719 H87.1424560546875 V27.18701934814453 h22.092443466186523 zm-5.573976516723633,17.38629913330078 h-13.783204078674316 v-9.799636840820312 h16.92460060119629 zm-38.86252975463867,0 v-9.799636840820312 h17.49239730834961 v9.799636840820312 zm17.49239730834961,7.587455749511719 v8.219016075134277 H62.06312561035156 V60.695960998535156 zM36.80706024169922,43.308868408203125 h17.669931411743164 v9.799636840820312 h-14.269771575927734 zm25.256065368652344,-7.5866618156433105 V27.18701934814453 h17.49239730834961 v8.53519344329834 zM54.476722717285156,27.18701934814453 v8.53519344329834 H34.17418670654297 L31.213233947753906,27.18701934814453 zm-11.636902809143066,33.508949279785156 h11.636902809143066 v8.219016075134277 h-8.785754203796387 zm44.3026237487793,8.219281196594238 v-8.219016075134277 h11.353005409240723 l-2.6339268684387207,8.219016075134277 z" id="path1180" stroke-width="0"/>
    </g>
  </g></g></svg>