<svg xmlns:dc="http://purl.org/dc/elements/1.1/" xmlns:cc="http://creativecommons.org/ns#" xmlns:rdf="http://www.w3.org/1999/02/22-rdf-syntax-ns#" xmlns:svg="http://www.w3.org/2000/svg" xmlns="http://www.w3.org/2000/svg" xmlns:sodipodi="http://sodipodi.sourceforge.net/DTD/sodipodi-0.dtd" xmlns:inkscape="http://www.inkscape.org/namespaces/inkscape" sodipodi:docname="Ubicacion A_B.svg" inkscape:version="1.0 (4035a4fb49, 2020-05-01)" version="1.1" height="120" width="115" style=""><rect id="backgroundrect" width="100%" height="100%" x="0" y="0" fill="none" stroke="none" style="" class=""/>
  <defs id="defs2"/>
  <sodipodi:namedview inkscape:window-maximized="1" inkscape:window-y="-11" inkscape:window-x="-11" inkscape:window-height="986" inkscape:window-width="1920" showgrid="false" inkscape:document-rotation="0" inkscape:current-layer="layer1" inkscape:document-units="mm" inkscape:cy="445.71429" inkscape:cx="37.142857" inkscape:zoom="0.7" inkscape:pageshadow="2" inkscape:pageopacity="0.0" borderopacity="1.0" bordercolor="#666666" pagecolor="#ffffff" id="base"/>
  <metadata id="metadata5">
    <rdf:RDF>
      <cc:Work rdf:about="">
        <dc:format>image/svg+xml</dc:format>
        <dc:type rdf:resource="http://purl.org/dc/dcmitype/StillImage"/>
        <dc:title/>
      </cc:Work>
    </rdf:RDF>
  </metadata>
  
<g class="currentLayer" style=""><title>Layer 1</title>
    
    <path id="path24" d="M28.61426544189453,108.75721740722656 L-0.0018768310546875,97.20062255859375 V60.267822265625 V23.335044860839844 l28.687660217285156,-11.668417930603027 l28.687650680541992,-11.668416976928711 l28.601720809936523,11.495217323303223 l28.601720809936523,11.495218276977539 l0.05779999867081642,37.108646392822266 l0.05779999867081642,37.10865020751953 l-28.38835906982422,11.439680099487305 c-15.613590240478516,6.291820049285889 -28.542570114135742,11.491100311279297 -28.731060028076172,11.553939819335938 c-0.18849000334739685,0.06279999762773514 -13.219969749450684,-5.086209774017334 -28.958839416503906,-11.442339897155762 zM55.28837585449219,82.6514892578125 V50.13459777832031 L43.898712158203125,45.51130676269531 c-6.264317035675049,-2.542809009552002 -11.456350326538086,-4.623291969299316 -11.537839889526367,-4.623291969299316 c-0.08150000125169754,0 -0.14819000661373138,3.6714019775390625 -0.14819000661373138,8.15866470336914 v8.158670425415039 l-1.0036300420761108,-1.0134199857711792 c-0.8948400020599365,-0.9035699963569641 -1.0829999446868896,-0.9954699873924255 -1.7359600067138672,-0.8479200005531311 c-0.6278799772262573,0.14188000559806824 -0.8408100008964539,0.05730000138282776 -1.492799997329712,-0.5928400158882141 c-0.6593400239944458,-0.6575000286102295 -0.8663399815559387,-0.7379099726676941 -1.5566500425338745,-0.6046599745750427 c-0.7101500034332275,0.1370600014925003 -0.8512799739837646,0.07400000095367432 -1.3059899806976318,-0.5829399824142456 c-0.46250998973846436,-0.6682699918746948 -0.5915700197219849,-0.7231600284576416 -1.391070008277893,-0.5916299819946289 l-0.8812500238418579,0.14497999846935272 V45.043792724609375 V36.97064971923828 L14.220512390136719,33.48028564453125 C9.476860046386719,31.560592651367188 5.2615509033203125,29.848983764648438 4.853153228759766,29.676734924316406 l-0.7425299882888794,-0.31318700313568115 l0.0005300000193528831,32.50080871582031 l0.0005200000014156103,32.50082015991211 l9.995140075683594,4.050509929656982 c5.497310161590576,2.2277801036834717 12.30840015411377,4.9444098472595215 15.135740280151367,6.036960124969482 c2.8273398876190186,1.0925400257110596 9.818591117858887,3.9411799907684326 15.536104202270508,6.330319881439209 c5.717512130737305,2.3891398906707764 10.421175956726074,4.353229999542236 10.452595710754395,4.364649772644043 c0.03139999881386757,0.01140000019222498 0.057100001722574234,-14.61184024810791 0.057100001722574234,-32.496131896972656 zm32.72863006591797,20.87179946899414 l22.561609268188477,-9.152799606323242 v-32.514190673828125 c0,-17.882802963256836 -0.0771000012755394,-32.471309661865234 -0.17135000228881836,-32.418907165527344 c-0.09430000185966492,0.052390001714229584 -11.60923957824707,4.731037139892578 -25.588869094848633,10.396957397460938 l-25.41752052307129,10.301682472229004 v32.49536895751953 v32.49536895751953 l3.027250051498413,-1.225350022315979 c1.664989948272705,-0.6739299893379211 13.179980278015137,-5.344089984893799 25.58888053894043,-10.378129959106445 zm-4.740799903869629,-67.5673828125 c14.073880195617676,-5.712753772735596 25.662429809570312,-10.458847045898438 25.752330780029297,-10.546874046325684 c0.08990000188350677,-0.08803000301122665 -2.840250015258789,-1.4170730113983154 -6.511459827423096,-2.9534289836883545 c-3.6712000370025635,-1.536355972290039 -8.428250312805176,-3.5261240005493164 -10.571209907531738,-4.4217047691345215 l-3.8963000774383545,-1.6283279657363892 l-25.462360382080078,10.619603157043457 c-14.004300117492676,5.840785026550293 -25.60310173034668,10.699455261230469 -25.77510643005371,10.797052383422852 c-0.19576899707317352,0.11107099801301956 2.239880084991455,1.2131760120391846 6.511449813842773,2.946352958679199 c3.7533140182495117,1.5228990316390991 8.417795181274414,3.4323880672454834 10.365516662597656,4.2433180809021 c1.9477299451828003,0.810920000076294 3.644129991531372,1.4421000480651855 3.769789934158325,1.4026199579238892 c0.12567000091075897,-0.039500001817941666 11.743470191955566,-4.745858192443848 25.817350387573242,-10.458609580993652 zM50.147743225097656,22.31970977783203 C64.47295379638672,16.60083770751953 76.27376556396484,11.845939636230469 76.3718032836914,11.753280639648438 c0.09799999743700027,-0.09266000241041183 -4.15084981918335,-1.7616289854049683 -9.441969871520996,-3.7088189125061035 L57.309600830078125,4.504119873046875 L31.639442443847656,14.993995666503906 C17.520851135253906,20.763427734375 6.0180206298828125,25.534042358398438 6.077613830566406,25.5953369140625 c0.23309999704360962,0.23983900249004364 17.58112907409668,7.2441630363464355 17.79585075378418,7.185140132904053 c0.1256600022315979,-0.03457000106573105 11.94908332824707,-4.741882801055908 26.27428436279297,-10.460766792297363 z" style="fill:#ffffff;fill-opacity:1;stroke-width:0.231745" class=""/>
  </g></svg>