<svg xmlns:dc="http://purl.org/dc/elements/1.1/" xmlns:cc="http://creativecommons.org/ns#" xmlns:rdf="http://www.w3.org/1999/02/22-rdf-syntax-ns#" xmlns:svg="http://www.w3.org/2000/svg" xmlns="http://www.w3.org/2000/svg" xmlns:sodipodi="http://sodipodi.sourceforge.net/DTD/sodipodi-0.dtd" xmlns:inkscape="http://www.inkscape.org/namespaces/inkscape" width="115" height="120" version="1.1" inkscape:version="1.0 (4035a4fb49, 2020-05-01)" sodipodi:docname="Recepcion A_B.svg"><rect id="backgroundrect" width="100%" height="100%" x="0" y="0" fill="none" stroke="none" style="" class=""/>
  <defs id="defs2282"/>
  <sodipodi:namedview id="base" pagecolor="#ffffff" bordercolor="#666666" borderopacity="1.0" inkscape:pageopacity="0.0" inkscape:pageshadow="2" inkscape:zoom="0.98994949" inkscape:cx="277.14286" inkscape:cy="444.0032" inkscape:document-units="mm" inkscape:current-layer="layer1" inkscape:document-rotation="0" showgrid="false" inkscape:window-width="1920" inkscape:window-height="986" inkscape:window-x="-11" inkscape:window-y="-11" inkscape:window-maximized="1"/>
  <metadata id="metadata2285">
    <rdf:RDF>
      <cc:Work rdf:about="">
        <dc:format>image/svg+xml</dc:format>
        <dc:type rdf:resource="http://purl.org/dc/dcmitype/StillImage"/>
        <dc:title/>
      </cc:Work>
    </rdf:RDF>
  </metadata>
  
<g class="currentLayer" style=""><title>Layer 1</title>
    
    
  <path sodipodi:nodetypes="cssssccssccsssscsccccssscscscssssccscscccccssscscsccccsssscccccccccsscssccsccscsscssssscssssscsccssccccssccscc" id="path1331" d="m56.17816925048828,119.8544921875 c-0.24007999897003174,-0.09709999710321426 -5.215950965881348,-2.4308700561523438 -11.057519912719727,-5.186230182647705 c-5.841561794281006,-2.7553799152374268 -15.138595581054688,-7.133689880371094 -20.660083770751953,-9.72959041595459 c-5.521481037139893,-2.5958800315856934 -10.2354736328125,-4.919119834899902 -10.475537300109863,-5.162710189819336 c-0.3765929937362671,-0.38214999437332153 -0.45644399523735046,-3.2674899101257324 -0.581974983215332,-21.028919219970703 l-0.1454939991235733,-20.586000442504883 l-6.098536014556885,-2.5761098861694336 c-3.354196071624756,-1.416849970817566 -6.333180904388428,-2.7985000610351562 -6.619956970214844,-3.0703299045562744 c-1.229259967803955,-1.1651599407196045 -0.8722000122070312,-1.6795300245285034 6.653205871582031,-9.584527015686035 l7.174633979797363,-7.536530017852783 l10.50284194946289,-4.485568046569824 c5.776556015014648,-2.467087984085083 11.623968124389648,-4.95888614654541 12.994245529174805,-5.537351131439209 c2.3797171115875244,-1.0045779943466187 2.486056089401245,-1.0899889469146729 2.37185001373291,-1.9049880504608154 c-0.08151999861001968,-0.5816940069198608 0.07485999912023544,-1.0568749904632568 0.49119600653648376,-1.4929749965667725 c0.5552269816398621,-0.5815340280532837 0.941586971282959,-0.6397110223770142 4.2481231689453125,-0.6397110223770142 h3.6373391151428223 V11.17031478881836 c0,-5.700658798217773 0.01334999967366457,-8.234004020690918 0.13245299458503723,-9.44994068145752 c0.07851999998092651,-0.8014979958534241 0.20290400087833405,-1.0305910110473633 0.3996799886226654,-1.2170929908752441 c0.17476999759674072,-0.16565999388694763 0.4255940020084381,-0.27795499563217163 1.0259380340576172,-0.3536379933357239 c0.27048200368881226,-0.03407999873161316 0.6119930148124695,-0.06078999862074852 1.0494240522384644,-0.08156999945640564 C52.405906677246094,0.011791229248046875 54.297218322753906,-0.001117706298828125 57.39264678955078,-0.001117706298828125 c7.105500221252441,0 7.754000186920166,0.044119998812675476 8.197489738464355,0.557362973690033 c0.427729994058609,0.49503999948501587 0.4815700054168701,1.6875430345535278 0.4815700054168701,10.667014122009277 v10.10969066619873 h3.637350082397461 c3.289340019226074,0 3.6949100494384766,0.06040000170469284 4.239170074462891,0.6303300261497498 c0.4073899984359741,0.42671099305152893 0.5718899965286255,0.9315320253372192 0.5092200040817261,1.5626850128173828 l-0.09260000288486481,0.9323480129241943 l11.20298957824707,4.6269989013671875 c6.161660194396973,2.5448310375213623 12.358360290527344,5.098869800567627 13.7704496383667,5.6756391525268555 c2.8286499977111816,1.1553399562835693 2.3986101150512695,0.7550770044326782 9.970499992370605,9.279622077941895 c5.79863977432251,6.528189182281494 5.743720054626465,6.444738864898682 5.08735990524292,7.729249000549316 c-0.15657000243663788,0.306410014629364 -2.6682000160217285,1.54367995262146 -5.9652299880981445,2.9385499954223633 l-5.694809913635254,2.409329891204834 v21.3759708404541 c0,19.972810745239258 -0.033399999141693115,21.407339096069336 -0.5092399716377258,21.853919982910156 c-0.41286998987197876,0.3875199854373932 -20.7545108795166,9.296219825744629 -41.303279876708984,18.088939666748047 c-3.9648399353027344,1.6965299844741821 -4.017509937286377,1.7122700214385986 -4.745429992675781,1.4179600477218628 zm34.40488815307617,-18.150480270385742 l8.652560234069824,-3.7209300994873047 l0.004000000189989805,-19.72956085205078 l0.004000000189989805,-19.729570388793945 l-1.3821899890899658,0.572950005531311 c-0.760200023651123,0.31512999534606934 -6.685420036315918,2.801609992980957 -13.167169570922852,5.525529861450195 c-6.481729984283447,2.7239298820495605 -12.059430122375488,5.013279914855957 -12.394869804382324,5.087460041046143 c-0.4563399851322174,0.10090000182390213 -2.230220079421997,-1.252869963645935 -7.046289920806885,-5.377600193023682 c-3.5400800704956055,-3.031860113143921 -6.506470203399658,-5.51246976852417 -6.592090129852295,-5.51246976852417 c-0.2016800045967102,0 -0.2044299989938736,56.23017883300781 -0.003000000026077032,56.44142150878906 c0.08420000225305557,0.08810000121593475 5.354589939117432,-2.0890700817108154 11.712240219116211,-4.838089942932129 c6.357639789581299,-2.7490200996398926 15.45300006866455,-6.6726298332214355 20.21190071105957,-8.71914005279541 zm-35.49906921386719,-14.835749626159668 l-0.07569999992847443,-28.334489822387695 l-7.3042731285095215,5.62893009185791 c-4.017341136932373,3.0959200859069824 -7.454256057739258,5.628940105438232 -7.637578964233398,5.628940105438232 c-0.1833209991455078,0 -5.1772871017456055,-2.1393699645996094 -11.097699165344238,-4.7541399002075195 c-5.920403957366943,-2.61476993560791 -11.058998107910156,-4.874300003051758 -11.419100761413574,-5.021200180053711 l-0.6547229886054993,-0.26704999804496765 v18.814729690551758 v18.814739227294922 l18.841419219970703,8.89268970489502 c10.362775802612305,4.890960216522217 18.972354888916016,8.901390075683594 19.132394790649414,8.912019729614258 c0.19256000220775604,0.012799999676644802 0.265390008687973,-9.566289901733398 0.21525999903678894,-28.315170288085938 zm-8.610067367553711,-26.27928924560547 c4.3043317794799805,-3.312459945678711 6.6732378005981445,-5.317699909210205 6.438412189483643,-5.450069904327393 c-0.7216809988021851,-0.40678998827934265 -36.86552429199219,-15.82443904876709 -37.09746551513672,-15.82443904876709 c-0.3088279962539673,0 -11.008597373962402,11.22084903717041 -10.836846351623535,11.364599227905273 c0.07255999743938446,0.06069999933242798 2.3579490184783936,1.0470800399780273 5.078680038452148,2.191930055618286 c5.6136579513549805,2.3621299266815186 17.102176666259766,7.382530212402344 24.44292640686035,10.681400299072266 c2.7207229137420654,1.2226899862289429 4.995729923248291,2.2352499961853027 5.0555548667907715,2.250109910964966 c0.05984000116586685,0.01489999983459711 3.173258066177368,-2.3311800956726074 6.9187397956848145,-5.21353006362915 zm44.99966812133789,-2.7298200130462646 c10.049989700317383,-4.203179836273193 18.233999252319336,-7.750979900360107 18.18670082092285,-7.88401985168457 c-0.22864000499248505,-0.6432099938392639 -9.106579780578613,-10.36450481414795 -9.377300262451172,-10.268110275268555 c-3.8872599601745605,1.3840010166168213 -39.71574020385742,15.669280052185059 -39.66564178466797,15.815199851989746 c0.2096100002527237,0.6108400225639343 11.769579887390137,10.241479873657227 12.147069931030273,10.119770050048828 c0.24007999897003174,-0.07739999890327454 8.659199714660645,-3.5796899795532227 18.709169387817383,-7.782839775085449 zM75.12909698486328,45.6860466003418 c9.822409629821777,-3.871074914932251 18.565900802612305,-7.317249774932861 19.42997932434082,-7.6581621170043945 l1.5710899829864502,-0.6198409795761108 l-0.9135500192642212,-0.4023120105266571 c-0.7484300136566162,-0.32960399985313416 -21.144649505615234,-8.766913414001465 -22.79570960998535,-9.429919242858887 c-0.5128099918365479,-0.20593099296092987 -1.3896000385284424,0.8853939771652222 -10.12261962890625,12.599203109741211 c-3.9149599075317383,5.251222133636475 -4.634960174560547,5.91486120223999 -5.729310035705566,5.280630111694336 c-0.294979989528656,-0.17094700038433075 -3.4825620651245117,-4.288541793823242 -7.083530902862549,-9.150202751159668 c-3.600965976715088,-4.861653804779053 -6.717029094696045,-8.84784984588623 -6.924572944641113,-8.858208656311035 c-0.2075520008802414,-0.010370000265538692 -2.5645480155944824,0.9211540222167969 -5.23776388168335,2.070004940032959 c-2.6732239723205566,1.1488490104675293 -7.544765949249268,3.2284419536590576 -10.825640678405762,4.621293067932129 c-3.2808849811553955,1.3928519487380981 -6.070652008056641,2.6273460388183594 -6.199489116668701,2.7433080673217773 c-0.1288370043039322,0.11597199738025665 1.900799036026001,1.125573992729187 4.510303020477295,2.2435760498046875 c2.6095049381256104,1.11798894405365 10.767977714538574,4.625986099243164 18.129955291748047,7.795528888702393 c7.361971855163574,3.1695539951324463 13.598369598388672,5.771974086761475 13.858659744262695,5.783143997192383 c0.26030001044273376,0.011500000022351742 8.509779930114746,-3.146939992904663 18.332199096679688,-7.018042087554932 zM63.220542907714844,33.04830551147461 c3.088550090789795,-4.116869926452637 5.659200191497803,-7.614140033721924 5.712540149688721,-7.771667957305908 c0.05590000003576279,-0.16484199464321136 -1.0012500286102295,-0.28641098737716675 -2.4905200004577637,-0.28641098737716675 c-1.6144200563430786,0 -2.7719600200653076,-0.14327000081539154 -3.078010082244873,-0.38095998764038086 c-0.44032999873161316,-0.34198999404907227 -0.49810999631881714,-1.425462007522583 -0.5648400187492371,-10.59084415435791 l-0.07440000027418137,-10.209874153137207 h-5.383279800415039 h-5.383245944976807 L51.81330108642578,14.105998992919922 c-0.12304099649190903,8.707124710083008 -0.21291899681091309,10.342045783996582 -0.5819900035858154,10.586174011230469 c-0.24006399512290955,0.1587900072336197 -1.593140959739685,0.290816992521286 -3.006859064102173,0.2933819890022278 c-1.4499160051345825,0.0027000000700354576 -2.528110980987549,0.1276489943265915 -2.473396062850952,0.28678399324417114 c0.20463599264621735,0.5952290296554565 11.345325469970703,15.261198043823242 11.592824935913086,15.261198043823242 c0.14358000457286835,0 2.788029909133911,-3.368349075317383 5.876589775085449,-7.485238075256348 z" style="display:inline;fill:#ffffff;fill-opacity:1;stroke-width:0.297799" class=""/></g></svg>