<svg xmlns:dc="http://purl.org/dc/elements/1.1/" xmlns:cc="http://creativecommons.org/ns#" xmlns:rdf="http://www.w3.org/1999/02/22-rdf-syntax-ns#" xmlns:svg="http://www.w3.org/2000/svg" xmlns="http://www.w3.org/2000/svg" xmlns:sodipodi="http://sodipodi.sourceforge.net/DTD/sodipodi-0.dtd" xmlns:inkscape="http://www.inkscape.org/namespaces/inkscape" width="86.2203369140625" height="117" version="1.1" sodipodi:docname="Reposicion4 B_A.svg" inkscape:version="1.0 (4035a4fb49, 2020-05-01)"><rect id="backgroundrect" width="100%" height="100%" x="0" y="0" fill="none" stroke="none" class="" style=""/>
  <defs id="defs953"/>
  <sodipodi:namedview id="base" pagecolor="#ffffff" bordercolor="#666666" borderopacity="1.0" inkscape:pageopacity="0.0" inkscape:pageshadow="2" inkscape:zoom="1.41" inkscape:cx="105.48478" inkscape:cy="545.68731" inkscape:document-units="mm" inkscape:current-layer="layer1" inkscape:document-rotation="0" showgrid="false" inkscape:window-width="1920" inkscape:window-height="986" inkscape:window-x="-11" inkscape:window-y="-11" inkscape:window-maximized="1"/>
  <metadata id="metadata956">
    <rdf:RDF>
      <cc:Work rdf:about="">
        <dc:format>image/svg+xml</dc:format>
        <dc:type rdf:resource="http://purl.org/dc/dcmitype/StillImage"/>
        <dc:title/>
      </cc:Work>
    </rdf:RDF>
  </metadata>
  
<g class="currentLayer" style=""><title>Layer 1</title><g inkscape:label="Capa 1" inkscape:groupmode="layer" id="layer1" class="selected" fill="#ffffff" fill-opacity="1">
    <g id="g924" style="" fill="#ffffff" fill-opacity="1">
      <path id="path934" d="m52.357291306052275,82.56107760727204 c-51.15793218842924,-117.5896228799798 -25.57896590563807,-58.7948114399899 0,0 zM19.244863340232854,99.88914184624105 c-29.082980324362225,-129.1416658258705 -14.541490143323458,-64.5708327330682 0,0 zM28.008287673955525,29.295527854465433 c0.5808157799730569,-0.021102002306000005 1.53124160174715,-0.021102002306000005 2.112057381720207,0 c0.5808157799730569,0.021102002306000005 0.10560286908601035,0.03836780016960002 -1.0560286908601035,0.03836780016960002 c-1.1616315599461138,0 -1.6368444708331606,-0.017263639459000005 -1.0560286908601035,-0.03836780016960002 zm10.620631782374717,0 c0.5808157799730569,-0.021102002306000005 1.53124160174715,-0.021102002306000005 2.112057381720207,0 c0.5808157799730569,0.021102002306000005 0.10560286908601035,0.03836780016960002 -1.0560286908601035,0.03836780016960002 c-1.1616315599461138,0 -1.6368444708331606,-0.017263639459000005 -1.0560286908601035,-0.03836780016960002 zM85.91836246318138,24.594399606603233 c0.005808157799730571,-0.13410311673440004 0.034396363073729126,-0.1613795951328001 0.07291500957285137,-0.06954883248940004 c0.03484894679838342,0.08309785763180004 0.030587116724555156,0.18238446923180004 -0.009504258217740934,0.22063715448940013 c-0.040102689535412454,0.038251606055300015 -0.06862677878175166,-0.029739218047000016 -0.06338812216887772,-0.15108832200000008 zm7.24133959446928,0 c0.005808157799730571,-0.13410311673440004 0.034396363073729126,-0.1613795951328001 0.07291500957285137,-0.06954883248940004 c0.03484894679838342,0.08309785763180004 0.030587116724555156,0.18238446923180004 -0.009504258217740934,0.22063715448940013 c-0.040102689535412454,0.038251606055300015 -0.06862677878175166,-0.029739218047000016 -0.06338812216887772,-0.15108832200000008 z" style="stroke-width: 0.32;" sodipodi:nodetypes="ccccssssssssssssssssss" stroke-width="0" fill="#ffffff" fill-opacity="1"/>
      <path id="path932" d="m17.254751776757168,116.21648337646604 c-0.5583325444484792,-0.7757557946270003 -0.6017339432624693,-1.126992975185 -0.3827840374348265,-2.21139343293 c0.12546790022040055,-0.631527601914 0.5341238862750914,-1.126827497499 1.2162304684668939,-1.456513008126 l0.5888401648417994,-0.2846072305559999 H33.04471328391727 H47.41238830834944 l-0.03184303656047095,-3.7124559120000002 l-0.03195241096059573,-3.7128696062150004 c0,0 -23.092863161615213,0.014317417180000003 -25.148928393533605,0 c-2.0560653073490096,-0.014317417180000003 -2.06175481278226,-0.013418081930000002 -3.9770674115006015,0 c-1.0193260365561567,-0.5661998893540002 -1.1598104384687253,-0.8216542684460003 -1.416657838491058,-1.476467458653 c-0.11879189049945911,-0.700107310738 -0.049119111527879525,-0.8092434419960001 0.022635220682378564,-1.3256669239330003 c0.02503293382497644,-0.2573106070480002 0.08358826515065715,-0.45531545037000015 0.08358826515065715,-0.45531545037000015 c0.2421940100239854,-0.3502694958290002 0.9471295564476289,-1.241978382909 1.4482280688969005,-1.388552041954 c0.23439857971848388,-0.06856172211900007 6.121190274681947,-0.006259373340000003 12.11188225647458,0 c5.990691981792634,0.006259373340000003 10.548222912267269,-0.10751013312600002 14.37790115369073,-0.1572973325660002 l2.5592233020373207,-0.03115297306000003 l0.002262918623271652,-15.885857856 l-0.004601267867319025,-15.885692378314 l-14.448095380772207,-0.05799992894300006 c-7.376656470844367,-0.05748550918000001 -7.404084930323938,-0.06539965938000003 -14.968138105052747,0 c-0.8208294528173958,-0.41822686466000025 -1.2325920489887352,-1.12665122779 -1.410068638100036,-1.6972218864590007 c-0.16466625204333282,-0.5293847015600001 -0.030345173008417027,-1.3696264309530002 0.09710943775962973,-1.5904564029200001 c0.1374227786181515,-0.23810080610800005 0.6686851100058405,-0.7072228512359999 1.017667253089271,-0.9326646143650001 c0.7964016988629035,-0.5144773204559998 0.2993048939917145,-0.4982461178640002 15.364502558306102,-0.5018758349330003 l14.347022874769984,-0.0037772080500000035 v-14.616000080341 c0,-8.039057074202 -0.016572107384426063,-14.802513937306701 0,-14.8499988385067 c-5.671459034382871,-0.032645869575000035 -5.636811487341959,-0.06967761729720004 -16.128465959864684,0.001510883220000001 c-10.491654472522724,0.07117662929190006 -4.241249206102722,-0.00043168092000000043 -8.037577307162618,-0.003021766440000003 C19.44468640915327,33.978550325340535 18.212941860904255,34.05205947053683 17.67469863299798,33.78981295190273 C17.10184561107649,33.510703897331126 16.568179679186255,32.68930683876664 16.448767488748373,32.31064353042464 C16.289313081503764,31.80500343786923 16.275382950469663,31.204762989834535 16.542779236062266,30.678112986902732 C16.926444020282922,29.922467047933935 16.900994660401363,29.589992159095544 18.601227807818468,29.274643491289936 H47.40705762637922 l0.03106610116648101,-12.2162070642931 c0.009338310852034347,-3.6716692597419995 0.010254792894459366,-6.413955759313301 0.0006411602765936347,-8.3676126600209 c-0.008946071624000594,-1.8188936718997 0.019438470973903478,-3.1665277586492 0,-3.7321794132348014 c-0.026585522292403112,-0.7736240103504004 -0.00014972978223980763,-0.5150000141033002 -0.00014972978223980763,-0.5150000141033002 c-1.8943906337256413,0.016396680278000005 -8.390290135603683,-0.0016907502700000009 -14.55745695769147,0 C17.053899155293788,4.447941363462334 18.166220888701982,4.692453710434634 17.393305343354427,3.907642329308331 C17.19306412478775,3.7043191770519286 16.939825476524568,3.266005012061811 16.82947606396715,2.933610703661799 C16.641943505763162,2.3687255345230795 16.641650472887573,2.290382930012356 16.832448799818053,1.7339921621769179 C17.11000490361049,0.9246054021154892 17.7500987420876,0.33164561253067865 18.601227807818468,0.09564337285249283 C19.194730414761032,-0.06892385851648444 20.90519090964122,0.042643370178680605 34.65907792114685,0.042643370178680605 c11.249237009293335,0 15.484653165491471,-0.09594382924118307 15.731340336217079,0 c0.9260044039917457,0.3601503447297691 1.128209006186599,0.4734830980249592 1.3675232108844848,0.7636330036735295 c0.5755431795808339,0.6978036814818303 0.5997156763146217,0.8805699005405503 0.5997156763146217,4.60100424722422 c0,0 -0.0020743420713323483,2.3402455110067 -0.00036432989834673585,3.5103662879725 c0.00021837164714571435,0.15044080062000006 0.00036432989834673585,0.45099648276539994 0.00036432989834673585,0.45099648276539994 c0.0077316386295114775,2.3092256395637 0.0034698085556832,2.4398454510078 0,2.9720001051377998 c0.010631945998337973,1.2670853049503 0.007007504670064546,0.6640878547732002 0,1.7409997277585 c-0.0026023564167623994,0.3985206306620002 -0.0040770250529277565,0.45116843566520015 0,0.7010001707742001 c0.005774214020381497,0.3538297842167001 0.0000882538263075944,0.6678013898875 0,1.0339999116645 c-0.00007279054904857151,0.30114564606940014 0,0.4763289580874002 0,20.0007256424217 c0.05999600715259351,21.531175879322998 -0.22307663211659998,66.354580743132 -0.00033642056865971907,78.61525417979199 c-0.010137875432256999,1.4289249999970006 -0.09354792442673841,1.7132120672039999 -1.5487909128237258,2.333602301382 c-0.5043955094527578,0.20991204203200012 -1.0798470408293492,0.21717867085200004 -16.232670345241512,0.2084191455170002 c-8.640353958068319,-0.005000303990000002 -15.791200492821655,0.03093713260000002 -15.89076891224561,0 c-0.6526233926023004,-0.14645854413300005 -1.1046349382827356,-0.41631307924800026 -1.430338776926365,-0.7581611997959997 z" style="stroke-width: 0.32;" sodipodi:nodetypes="ccsccccczcccsszccccccsssccsczzsssccssssssssssssssccssscccscc" stroke-width="0" fill="#ffffff" fill-opacity="1"/>
    </g>
    <path sodipodi:nodetypes="ccsssscscccccc" transform="translate(-25.458412170410156,-93.82335662841797) scale(0.2645833194255829) " id="path1497" d="m168.57873439931583,688.84233 v-42.33444 l-3.305506123548746,-0.37600000000000006 c-2.5482110657036303,-0.28985000000000005 -3.7521599853247407,-0.8804700000000001 -5.255106877774001,-2.5779900000000002 c-2.19082852152586,-2.47444 -2.3897344109863043,-3.9905 -0.9726005511045456,-7.41328 c2.035156149512529,-4.91549 -0.5275916042715311,-4.66589 47.908078350403905,-4.66589 h43.66850826739669 c0,0 2.1084341374844313,0.17579000000000003 2.775843511909246,0.9206900000000001 c0.5439912080705166,0.60716 0.6638619072586299,2.55056 0.6638619072586299,2.55056 v48.1154 v48.1154 h-42.74153924227059 h-42.74153924227059 z" style="opacity: 0.997; stroke: rgb(255, 0, 0); stroke-width: 0; stroke-linejoin: bevel;" fill="#ffffff" fill-opacity="1"/>
    <path transform="translate(-25.458412170410156,-93.82335662841797) scale(0.2645833194255829) " id="path1501" d="m158.76919495472026,448.84496 c0,-17.65919 0.15126281087100507,-18.28237 4.750256718045473,-19.57135 c1.43379110096097,-0.40185000000000004 5.208177256268263,-0.7324200000000001 8.387510476389528,-0.7345900000000001 l5.780617565551401,-0.004000000000000001 v-17.53625 c0,-12.69649 0.23206182560026647,-17.77043 0.8408190822690725,-18.38477 c0.6253649521172048,-0.6311000000000001 7.877685935327411,-0.84853 28.30261460056007,-0.84853 c24.395198426520825,0 27.509289959987996,0.12490000000000001 27.887105122312903,1.11849 c0.2339247413188219,0.6151700000000001 0.4253096040219069,8.88832 0.4253096040219069,18.38478 v17.26628 h5.978294723367691 c6.600964393168688,0 10.012428802773357,1.04626 11.797498426195979,3.61818 c0.9714213650912046,1.39962 1.1425916104227305,3.95315 1.1425916104227305,17.04525 v15.39902 h-9.108845315390825 h-9.108855224516988 v-9.19239 v-9.19239 h-10.159876600071788 h-10.159876600071788 v9.19239 v9.19239 h-9.143943440258504 h-9.143943440258504 l0.17329079833030703,-3.00521 c0.09532579368352893,-1.65286 0.1111110316604376,-5.78944 0.035078306615352634,-9.19239 l-0.1382124917149544,-6.18718 H187.14678200382602 H176.98690540375424 v9.19239 v9.19239 h-9.108855224516988 h-9.108855224516988 zm58.15652272011638,-29.85582 v-9.54594 h-10.159866690945625 h-10.159876600071788 v9.54594 v9.54594 h10.159876600071788 h10.159866690945625 z" style="opacity: 0.997; stroke: rgb(255, 0, 0); stroke-width: 0; stroke-linejoin: bevel;" fill="#ffffff" fill-opacity="1"/>
    <path style="opacity: 0.997; stroke: rgb(255, 0, 0); stroke-width: 0; stroke-linejoin: bevel;" d="m58.010772854832425,93.96883337158204 c0,0 -0.13846021986901766,-0.10168 -0.26174164028227326,-0.29223 c-0.021572167655825623,-0.03340000000000001 -0.04011214270591736,-0.07120000000000003 -0.06017812318503859,-0.10991000000000002 c-0.008521848499774937,-0.016500000000000008 -0.014487142449617388,-0.03430000000000002 -0.022523443767428406,-0.05180000000000002 c-0.010265854704380038,-0.022300000000000014 -0.015369054678082472,-0.039300000000000015 -0.025258362588286412,-0.06980000000000003 c-0.003567285418510439,-0.010400000000000003 -0.006143658220767978,-0.021100000000000008 -0.010067672181129457,-0.03220000000000001 c-0.003270011633634569,-0.008000000000000004 -0.004161832988262178,-0.019100000000000006 -0.007035479575395588,-0.027400000000000015 c-0.0058463844358921085,-0.017000000000000008 -0.005450019389390948,-0.0374 -0.010791038390994075,-0.05490000000000002 c-0.003567285418510439,-0.012400000000000003 -0.003071829110383989,-0.02670000000000001 -0.006440932005643849,-0.03940000000000001 c-0.0043600155115127584,-0.016700000000000007 -0.00038447409510612506,-0.03310000000000002 -0.004161832988262178,-0.05010000000000002 c-0.0027745553255081193,-0.012600000000000004 -0.0018827339708805096,-0.021200000000000007 -0.0018827339708805096,-0.038300000000000015 c-0.00030222834795713433,-0.009000000000000006 -0.000884884966313839,-0.011400000000000004 -0.0009205578204989432,-0.027900000000000015 c-0.0005341019001603124,-0.021700000000000007 0.00006837297052145007,-0.012600000000000004 0.00002080916494131089,-0.030900000000000014 c0.00002576372802257539,-0.010600000000000004 -0.00011098221302032473,-0.021400000000000013 -0.0014863689243793496,-0.03220000000000001 c-0.0016845514476299297,-0.012800000000000004 0.003071829110383989,-0.024100000000000007 0.0019818252325057993,-0.03700000000000001 c-0.0023781902790069595,-0.02380000000000001 0.0028736465871334093,-0.04670000000000002 0.006440932005643849,-0.0703 c0.0007431844621896743,-0.005000000000000002 0.0019818252325057993,-0.010000000000000004 0.0028736465871334093,-0.014400000000000003 c0.0006758024042844774,-0.004000000000000002 0.0018827339708805096,-0.008000000000000004 0.0018827339708805096,-0.011800000000000007 c-0.0015854601860046391,-0.04280000000000002 0.0103550368398428,-0.08540000000000003 0.01942188727855683,-0.12863 c0.004954563081264498,-0.021400000000000013 0.002675464063882829,-0.022800000000000008 0.006936388313770298,-0.04280000000000002 c0.005152745604515077,-0.02550000000000001 0.008224574714899067,-0.03910000000000002 0.017083333504199986,-0.07640000000000002 c0.005053654342889788,-0.021800000000000007 0.008521848499774937,-0.03310000000000002 0.01598342050015927,-0.06600000000000003 c0.008026392191648486,-0.031200000000000012 0.01581496535539628,-0.05480000000000003 0.02748791597485543,-0.09450000000000006 c0.007134570837020877,-0.024600000000000007 0.013436775076389318,-0.04890000000000001 0.021245166492462164,-0.07420000000000003 c0.005251836866140367,-0.016500000000000008 0.01201977003514767,-0.03360000000000002 0.017083333504199986,-0.05030000000000002 c0.02059116416573525,-0.07750000000000003 0.05466864903867247,-0.1614600000000001 0.08209711025655271,-0.24798000000000006 c0.3108165876021982,-0.98291 1.2691826789742708,-3.3862 1.9944147772952914,-5.47514 c0.022890081435441984,-0.06530000000000002 0.04086523629426957,-0.13177 0.06508314063549045,-0.19518000000000005 c0.020373163390159616,-0.05350000000000002 0.03680249456763269,-0.10876000000000004 0.057433295238018045,-0.16155000000000005 c0.01626087603271008,-0.04230000000000002 0.02830046432018281,-0.08650000000000004 0.0444226125866175,-0.1283 c0.016340149042010317,-0.04260000000000002 0.028647283735871325,-0.09090000000000004 0.045324343067407624,-0.13295 c0.016627513700723656,-0.04330000000000002 0.030321926057338727,-0.08780000000000003 0.04660262034237386,-0.13054000000000004 c0.012693590614199642,-0.032300000000000016 0.021046983969211584,-0.06640000000000003 0.033681119826436054,-0.09850000000000006 c0.015933874869346627,-0.041200000000000014 0.02771582587659361,-0.08480000000000003 0.04356051861047746,-0.12527 c0.014219596043229107,-0.03550000000000001 0.025684455013275157,-0.07260000000000003 0.03823931786119939,-0.10802000000000003 c0.027636552867293367,-0.07540000000000002 0.030034561398625387,-0.09220000000000006 0.0450766149133444,-0.12772 c0.055481197383999835,-0.13699000000000006 0.08898395293951038,-0.2799500000000001 0.13354529329240322,-0.4111800000000001 c0.07891628075838092,-0.23109000000000005 0.16155641112864025,-0.4420700000000002 0.23708773438990122,-0.63726 c0.24500413528114562,-0.6331900000000003 0.44784890239119535,-1.06285 0.5077495700436828,-1.17295 c0.03794204407632352,-0.06970000000000005 0.07175198254287243,-0.13942000000000004 0.10937198001891378,-0.20435 c0.06783787770867351,-0.11720000000000005 0.14019828059792525,-0.22331000000000006 0.21657287049561744,-0.31729 c0.05733420397639276,-0.07050000000000002 0.12323385660767558,-0.13008 0.1874558941796422,-0.18545000000000006 c0.045007251030206696,-0.038800000000000015 0.09908135249912747,-0.06510000000000003 0.14765192529737955,-0.09670000000000008 c0.06752078567147259,-0.04380000000000002 0.14954952295750384,-0.0703 0.22323576692730196,-0.10096000000000002 c0.10763689202785497,-0.04480000000000002 0.2274580455851556,-0.06630000000000003 0.34876655897945175,-0.08450000000000003 c0.33853736804187307,-0.05100000000000002 0.7205470634713771,-0.005000000000000002 1.0635296655097604,0.11608000000000003 c0.08657603528201584,0.031300000000000015 0.171049353992343,0.06600000000000003 0.2515015493059159,0.10581 c0.08601121509075167,0.04250000000000002 0.16244327792018662,0.09450000000000006 0.23868706735253334,0.14600000000000005 c0.05588747155666353,0.03800000000000001 0.08699221858084208,0.07270000000000003 0.14096029239982372,0.12478000000000003 c0.07049352352023126,0.06780000000000003 0.12311593800634149,0.13448000000000004 0.1836765534612537,0.20687 c0.04311460793316367,0.051400000000000015 0.0734761704951525,0.10502000000000003 0.10762202833861115,0.15997000000000006 c0.016429331177473076,0.02670000000000001 0.02493136142492295,0.05450000000000003 0.03927977610826494,0.08190000000000003 c0.015131235650181778,0.028700000000000007 0.01598342050015927,0.04600000000000002 0.030064288777112973,0.08640000000000003 c0.014031322646141053,0.04060000000000002 0.016082511761784556,0.06420000000000003 0.026962732288241396,0.11908000000000003 c0.042668697255849854,0.21556000000000006 0.052478732156753555,0.40549 -0.27419741186857227,1.4733 c-0.022979263570904743,0.07360000000000003 -0.05005099624693396,0.15065 -0.07555708698928358,0.2331 c-0.0245052689999342,0.07890000000000003 -0.05403446496427062,0.16103000000000006 -0.08148274443447595,0.24849000000000007 c-0.03242266080379488,0.10314000000000002 -0.07331762447655203,0.21108000000000005 -0.11082663973957303,0.3266700000000001 c-0.03173893109858038,0.09710000000000006 -0.06989897595047952,0.19759000000000007 -0.104757299965024,0.30424 c-0.024584542009234434,0.07560000000000003 -0.056432473495602625,0.15204000000000006 -0.08285020384490493,0.23263 c-0.021037074843049054,0.06310000000000003 -0.04529461568892005,0.12664999999999998 -0.06742169440984729,0.19288000000000005 c-0.03128311129510404,0.09550000000000006 -0.07015661323070527,0.19162 -0.10396952443510298,0.2938600000000001 c-0.02619972957372666,0.08130000000000003 -0.05889984591007234,0.16220000000000007 -0.0872498558610678,0.24773000000000006 c-0.024614269387722015,0.07570000000000003 -0.05732429485023024,0.15049000000000007 -0.08344475141465667,0.22966000000000006 c-0.6335201629489662,1.91546 -0.9750372052279115,2.81698 -1.0952448147055507,3.20369 c-0.015299690794944767,0.050200000000000015 -0.02504036181271077,0.09170000000000006 -0.03454321380257608,0.12511999999999998 c-0.006738205790519718,0.023400000000000015 -0.010285672956705098,0.043400000000000015 -0.013952049636840824,0.059900000000000016 c-0.0009909126162528997,0.005000000000000002 -0.003369102895259859,0.010000000000000004 -0.0038645592033863087,0.013800000000000007 c-0.0012881864011287697,0.011800000000000007 0.002675464063882829,0.016000000000000007 0.009413669854402548,0.017800000000000007 c0.022335170370340354,-0.010000000000000004 0.0832465688914061,-0.023000000000000013 0.12364409443080428,-0.017400000000000013 c0.07562645087242129,0.010700000000000006 -0.04673143898248674,0.012800000000000004 -0.003270011633634569,-0.003000000000000002 c0.3090131266406179,-0.11221000000000003 0.7700352213522792,-0.28313 1.0723289695420861,-0.4108200000000002 c0.32186328144818566,-0.13598000000000005 0.5918820148140193,-0.26118 0.8848136206054691,-0.3966000000000001 c0.9677510247606039,-0.4473900000000001 1.8938648922988772,-0.91715 2.7046236494413023,-1.33857 c5.443591339249313,-2.92763 9.364544370539189,-6.7964 11.604135701910854,-11.53978 c0.6401790957301857,-1.35582 1.4957925033599138,-4.1258 1.7239996788829566,-5.58775 c0.7264875846058132,-4.6503 -0.10095417734384536,-9.18346 -2.442441053044796,-13.66018 c-0.7191845586240294,-1.37499 -2.9117075407236817,-4.44526 -4.075733581948579,-5.73565 c-2.968219287228584,-3.2904 -6.6730770679038764,-6.09663 -10.748688767600656,-8.088940000000001 c-1.9402138390114905,-0.94846 -3.2980564424997567,-1.48533 -5.664583680013418,-2.26653 c-0.0672928757697344,-0.021600000000000008 -0.13158724996268753,-0.040200000000000014 -0.1949323298692704,-0.06060000000000003 c-0.09672298047244554,-0.03010000000000001 -0.1896468019741774,-0.06220000000000002 -0.2771711406299472,-0.09130000000000003 c-0.7222712514236573,-0.23902 -1.1554368106672168,-0.3939000000000002 -1.422929707774222,-0.55583 c-0.20481866504162555,-0.12402000000000003 -0.3001077949583532,-0.2660200000000001 -0.39016787899911415,-0.4200600000000001 c-0.1750952502045036,-0.2995400000000001 -0.25547709072232255,-0.6199700000000002 -0.2261847228732706,-0.9092 c0.007729118406772617,-0.0763 0.02603127442896367,-0.14868 0.04872317334115507,-0.21998000000000006 c0.010364945966005326,-0.032500000000000015 0.023801721042394645,-0.06810000000000004 0.03917077572047712,-0.09850000000000006 c0.010464037227630618,-0.020500000000000008 0.022374806874990476,-0.036100000000000014 0.032779389345645914,-0.05660000000000002 c0.030282289552688614,-0.05960000000000003 0.07854964309036735,-0.10657000000000003 0.11979142617881301,-0.16072000000000006 c0.05156709254980089,-0.06770000000000004 0.1178522101888061,-0.12529 0.18581097923666245,-0.18303000000000005 c0.09147114360630515,-0.07770000000000003 0.20229183787018065,-0.14147 0.3219821909621359,-0.19755000000000006 c0.27466908627390874,-0.12869 0.5158710898464918,-0.19766000000000006 0.855714480716586,-0.17978000000000005 c0.46746005397945645,0.024600000000000007 1.120899542340338,0.20805 2.2988102511441713,0.5764400000000002 c0.6619018821036818,0.20697000000000004 1.3086041555866599,0.4238000000000001 1.9437355424496532,0.6588000000000004 c0.3865530297750236,0.14295000000000005 0.7691751092013719,0.28943 1.1472350269424916,0.4433900000000001 c0.3571219341596961,0.14545000000000005 0.7128585724818707,0.2932 1.0633443648505212,0.44879 c0.259761796875,0.11528000000000004 0.5186109632304308,0.23081000000000004 0.7751304940250516,0.3518400000000001 c0.16766439649522313,0.07910000000000003 0.33648716983884586,0.15643000000000007 0.5029069800880549,0.23802 c0.13610482058018447,0.06680000000000003 0.2716755392602086,0.13184 0.40697078423291444,0.20035 c0.12210917078822854,0.06180000000000003 0.24480991640836006,0.11990000000000003 0.3663205759763719,0.18307 c0.15211400480836637,0.07910000000000003 0.30822237837284805,0.15490000000000007 0.45948221650600435,0.23626000000000005 c0.12146904123812917,0.06530000000000002 0.24210076131552458,0.12889 0.363025791527331,0.19575000000000006 c0.12236284441798928,0.06770000000000004 0.24586920199513437,0.13008 0.3677088445517422,0.19938000000000006 c0.12783961844801908,0.07260000000000003 0.25925345870286226,0.14083 0.38661644818246377,0.21517 c0.12371345831394195,0.07220000000000003 0.25052153672844174,0.14037 0.3737890843650699,0.21435 c0.12598363911777735,0.07570000000000003 0.26240951538562785,0.14902 0.3879274255737664,0.22651000000000007 c0.12254814507722858,0.07560000000000003 0.2477885997328162,0.14417 0.3698680431425572,0.22166000000000005 c0.1043242711517215,0.06620000000000004 0.21123482423186302,0.12713 0.31523407604545367,0.19469000000000006 c0.023623356771469123,0.015200000000000007 0.04893126499056818,0.02900000000000001 0.07307980544865134,0.04370000000000002 c0.0876164935290814,0.05370000000000002 0.17664008297324185,0.10650000000000003 0.26186154070883993,0.16322000000000006 c0.10973366312384608,0.07310000000000003 0.22351322245985275,0.14005 0.33276728387743254,0.21487 c0.10051817579269409,0.06880000000000003 0.21196611774265772,0.13347 0.31211765586733836,0.20373000000000005 c0.021700986295938505,0.014600000000000004 0.04508652403950693,0.028100000000000007 0.06758024042844776,0.042900000000000015 c0.08987577429413801,0.058900000000000015 0.1839133815765381,0.11724000000000004 0.26974623239636425,0.17924000000000007 c0.060643852114677446,0.04380000000000002 0.14020422607362276,0.09640000000000006 0.20055080440342427,0.13798000000000005 c0.07253480350971225,0.05010000000000002 0.1545823681354523,0.09960000000000008 0.224540798842907,0.15231000000000006 c0.05707656669616701,0.04310000000000002 0.12589544789493085,0.08280000000000003 0.18241710352599627,0.12627 c0.04568107160925868,0.0352 0.10128117850720884,0.06810000000000004 0.14655597594380385,0.10362000000000003 c0.04459106773138048,0.034900000000000014 0.09701034513115889,0.06490000000000003 0.14109604742825035,0.10005 c0.010503673732280734,0.008000000000000004 0.024079176574945464,0.015300000000000006 0.03557376292347908,0.023000000000000013 c0.034681941568851474,0.024100000000000007 0.07025570449233055,0.04840000000000001 0.1008550860822201,0.0734 c0.032601025074720395,0.026500000000000013 0.07045388701558115,0.04710000000000002 0.10271800180077556,0.07370000000000003 c0.0306191998422146,0.025300000000000013 0.0750120850503445,0.051900000000000016 0.1056709213972092,0.07720000000000003 c0.004954563081264498,0.003000000000000002 0.013773685365915304,0.009000000000000006 0.01932279601693154,0.011800000000000007 c0.03299739012122156,0.024100000000000007 0.06758024042844776,0.04350000000000002 0.09661398008465773,0.06860000000000004 c0.029132830917835247,0.025200000000000007 0.07124661710858346,0.050700000000000016 0.09979480958282949,0.07610000000000003 c0.005945475697517398,0.005000000000000002 0,0 0.022890081435441984,0.016000000000000007 c0.027547370731830605,0.0198 0.05469837641716005,0.040000000000000015 0.08075937822461131,0.05980000000000002 c0.04330288133025171,0.03280000000000002 0.09245214709639553,0.06620000000000004 0.1372612156033516,0.10186 c0.028340100824832924,0.022600000000000012 0.06658932781219486,0.04660000000000003 0.09393851602077488,0.0703 c0.006936388313770298,0.006000000000000004 0.015755510598421105,0.010800000000000004 0.020710073679685602,0.015300000000000006 c0.023980085313320167,0.0188 0.03151102119684221,0.019500000000000007 0.04597834539413454,0.03410000000000002 c0.005945475697517398,0.006000000000000004 -0.0009909126162528997,-0.0010000000000000005 0.02140371251106263,0.014500000000000004 c0.02249371638894082,0.015900000000000008 0.039438322126865405,0.031300000000000015 0.055392015248537076,0.04360000000000003 c0.03388921147584917,0.026000000000000013 0.04815835314989092,0.033500000000000016 0.06797660547494892,0.049900000000000014 c0.04895108324289323,0.04040000000000001 0.04201469492912294,0.03310000000000002 0.1256080832362175,0.09610000000000006 c0.08046210443973545,0.06080000000000003 0.10008217424154282,0.07700000000000003 0.16304476187825212,0.12545 c3.0532098623245956,2.3495 5.347817653063238,4.70163 7.403564966741502,7.58064 c1.1845864870995284,1.65897 1.826638407674432,2.7744400000000002 2.6214196897923947,4.44442 c0.4924934794038535,1.03488 0.9135817956805229,2.08354 1.256903289833665,3.13922 c0.2162072237402201,0.6648300000000003 0.40550126082301147,1.33274 0.5626104561299088,2.00249 c0.1214660685002804,0.51873 0.22771171921491629,1.03906 0.31392111682891866,1.55939 c0.06460750257968906,0.3900900000000001 0.12181288791596892,0.7811 0.1665327742874623,1.17151 c0.08620939761400226,0.7521100000000002 0.13863858413994318,1.50549 0.15104481009542947,2.25604 c0.012287316441535953,0.7407200000000004 -0.008918213546276098,1.47964 -0.06876933556795123,2.21537 c-0.04835653567314149,0.5971700000000002 -0.11833478463292127,1.19265 -0.21391821559667593,1.78454 c-0.09859580531716353,0.6102400000000002 -0.21899168819189077,1.21803 -0.3676682171344758,1.82068 c-0.2448346892237664,0.9926400000000002 -0.5563181610167027,1.97461 -0.9361547850787642,2.93954 c-0.2127786660879851,0.53985 -0.4448999464452269,1.07476 -0.6998914899855853,1.60351 c-0.10968411749303345,0.22732000000000005 -0.22578934873938566,0.45293 -0.34263776444792765,0.6782700000000004 c-0.11660068755447868,0.22478000000000006 -0.23556965626180176,0.45178 -0.36325865599215035,0.6761600000000002 c-0.10309454859495165,0.18127000000000001 -0.2061593698114157,0.3632100000000001 -0.31616057934165015,0.54381 c-0.08303847724199298,0.13625 -0.16374830983579164,0.2749800000000001 -0.24866952104866505,0.4120200000000001 c-0.09879398784041413,0.15928000000000006 -0.20225517410337926,0.3168900000000001 -0.3054884504646063,0.4756200000000001 c-0.19704297374188906,0.3029700000000002 -0.4038662550061942,0.6034400000000002 -0.6166052845895291,0.90254 c-0.14568397284150125,0.20489000000000004 -0.2991466097205878,0.4054700000000001 -0.4518066073805094,0.6077700000000003 c-0.14704152312576776,0.19478000000000006 -0.30009788583219066,0.3867800000000001 -0.45314433941245086,0.57857 c-0.20237408361732964,0.2536 -0.41190255632400524,0.50249 -0.6242947664916518,0.7496900000000004 c-0.11849333065152172,0.13793000000000005 -0.24265468146800998,0.27124 -0.36403156783282775,0.4069000000000001 c-0.6355812611907721,0.7103200000000002 -1.314465403711796,1.38572 -2.0155063523322347,2.01524 c-2.1983604483219983,1.97412 -4.333678045085371,3.43413 -7.25402832564801,4.92708 c-0.2047651557603479,0.10470000000000003 -0.42062258734703084,0.20733000000000001 -0.6333259440761807,0.3125600000000001 c-0.17534595109641557,0.08680000000000003 -0.36173066873788845,0.16912000000000005 -0.5427624764263632,0.2564800000000001 c-0.3949757870131732,0.19061000000000006 -0.7900476925501227,0.3693500000000001 -1.1170062466710806,0.52059 c-0.1630516982665659,0.07540000000000002 -0.29342607118695974,0.15300000000000005 -0.4201370401650668,0.20641000000000007 c-0.0204028907686472,0.009000000000000006 -0.03550439904034139,0.019400000000000008 -0.05281564244627955,0.02840000000000001 c-0.028597738105058678,0.015000000000000006 -0.05726484009325506,0.028500000000000008 -0.08243402054607873,0.04160000000000002 c-0.1072385451561213,0.05590000000000001 -0.1759741896951199,0.09800000000000006 -0.21642720634102833,0.11156000000000003 l-0.17558178829908375,0.11133000000000003 l-0.003071829110383989,0.007000000000000004 l0.02957874159514905,0.012700000000000006 l0.1441837311404944,0.04260000000000002 l3.331053832620978,0.7899 c0.18009836800396448,0.04280000000000002 0.3511893403261901,0.07850000000000003 0.514174647447467,0.11748000000000003 c0.4666207509934903,0.11161000000000003 0.8643631660312416,0.20317 1.2050686508774757,0.2881100000000001 c0.8148175352185967,0.20319 1.3028419987231492,0.3354600000000002 1.6066062612354755,0.4396500000000001 c0.3977126876592637,0.13640000000000005 0.4727346818357707,0.22783000000000006 0.5859464482426645,0.3316000000000001 c0.06203112977743152,0.05680000000000002 0.1054727388739586,0.09400000000000006 0.14425705867409708,0.14269 c0.06351749870181086,0.07970000000000003 0.12716381604373456,0.16098000000000007 0.17015951446294786,0.24038 c0.08511939373612407,0.15728000000000006 0.13856922025680546,0.3156500000000001 0.14552542682290082,0.4681700000000001 c0.0019818252325057993,0.05250000000000002 0.010900038778781897,0.10828000000000003 0.003963650465011599,0.15975000000000006 c-0.005945475697517398,0.04280000000000002 -0.0019818252325057993,0.06220000000000002 -0.015755510598421105,0.13074000000000005 c-0.018034609615802766,0.08880000000000003 -0.0306191998422146,0.14890000000000006 -0.05975203076004984,0.21735000000000004 c-0.023187355220317854,0.05270000000000002 -0.036366493016481406,0.09170000000000006 -0.06282385987043383,0.13561 c-0.003963650465011599,0.007000000000000004 -0.007927300930023197,0.014100000000000003 -0.011296403825283054,0.021700000000000007 c-0.005945475697517398,0.009000000000000006 -0.010206399947404864,0.017800000000000007 -0.01605278438329697,0.027400000000000015 c-0.01605278438329697,0.027500000000000014 -0.03398830273747446,0.05460000000000004 -0.052022912353277224,0.08040000000000003 c-0.05172563856840135,0.07390000000000002 -0.10487819130420685,0.21437 -0.18239728527367116,0.28215 c-0.490273835143447,0.42869 -0.9648813418239355,0.4325900000000001 -2.2292759310364723,0.21283000000000005 c-1.0349289546668528,-0.17987 -5.3002915021625165,-1.13937 -9.885672251814903,-2.21939 c-0.16547943417638553,-0.038600000000000016 -0.3167769269889595,-0.07110000000000002 -0.4602363010069728,-0.10342000000000003 c-0.1615782112061978,-0.0364 -0.3123138565653564,-0.0723 -0.447878629769683,-0.10400000000000002 c-0.25920787672251466,-0.06070000000000002 -0.4726118086713553,-0.11627000000000005 -0.6506203419676423,-0.16251000000000007 c-0.17593356227785356,-0.04570000000000002 -0.31555612264573585,-0.09050000000000004 -0.4296131375142932,-0.12753 c-0.2638958843100072,-0.08580000000000003 -0.3869166947051884,-0.15959000000000007 -0.47738404383122923,-0.23802 c-0.027180733063817037,-0.023500000000000014 -0.041984967550635355,-0.02490000000000001 -0.08850831488370899,-0.07390000000000002 z" id="path2295" sodipodi:nodetypes="cssssssssssssssssssssssssssssssssssssssssssssssssssssssssssssssssssscsssscssssssssssssssssssssssssssssssssssssssssssssssssssssssssssssssssssssssssssssssssssssssssssssssccccssssssssssssssssssssssscc" fill="#ffffff" fill-opacity="1"/>
    <path id="path930" d="m16.633349683823596,114.56629093904115 c-27.341971825312307,-138.92642948395044 -13.670985724079594,-69.46321384264 0,0 z" style="stroke-width: 0.32;" sodipodi:nodetypes="cc" fill="#ffffff" fill-opacity="1"/>
    <path transform="translate(-25.458412170410156,-93.82335662841797) scale(0.2645833194255829) " id="path1499" d="m236.54478665490163,556.52141 v-36.76956 l-35.209216081085806,-0.003000000000000001 c-33.89743605056405,-0.003000000000000001 -35.29430574744344,-0.05500000000000001 -37.49284356912375,-1.40778 c-2.6615318324983126,-1.6376400000000002 -5.067160481849313,-5.28968 -5.070916040664911,-7.69826 c-0.001981825232505799,-1.04785 1.1536997408509255,-2.85095 3.0582536075413227,-4.77297 l3.0608696168482306,-3.08894 l40.556527377802134,0.004000000000000001 c25.634879655084013,0.0020000000000000005 41.51152932084203,0.27161 43.152203157824275,0.73146 c1.427627624487877,0.40014 3.2406409836888317,1.55497 4.0289119699180125,2.56629 c1.407908463424444,1.80627 1.4332361898958683,2.59307 1.4332361898958683,44.52337 v42.6846 h-8.758508159914612 h-8.758518069040775 z" style="opacity: 0.997; stroke: rgb(255, 0, 0); stroke-width: 0; stroke-linejoin: bevel;" fill="#ffffff" fill-opacity="1"/>
  </g></g></svg>