<svg xmlns:dc="http://purl.org/dc/elements/1.1/" xmlns:cc="http://creativecommons.org/ns#" xmlns:rdf="http://www.w3.org/1999/02/22-rdf-syntax-ns#" xmlns:svg="http://www.w3.org/2000/svg" xmlns="http://www.w3.org/2000/svg" xmlns:sodipodi="http://sodipodi.sourceforge.net/DTD/sodipodi-0.dtd" xmlns:inkscape="http://www.inkscape.org/namespaces/inkscape" width="93" height="117" version="1.1" sodipodi:docname="Reposicion4 B_A.svg" inkscape:version="1.0 (4035a4fb49, 2020-05-01)" style=""><rect id="backgroundrect" width="100%" height="100%" x="0" y="0" fill="none" stroke="none"/>
  <defs id="defs953"/>
  <sodipodi:namedview id="base" pagecolor="#ffffff" bordercolor="#666666" borderopacity="1.0" inkscape:pageopacity="0.0" inkscape:pageshadow="2" inkscape:zoom="1.41" inkscape:cx="105.48478" inkscape:cy="545.68731" inkscape:document-units="mm" inkscape:current-layer="layer1" inkscape:document-rotation="0" showgrid="false" inkscape:window-width="1920" inkscape:window-height="986" inkscape:window-x="-11" inkscape:window-y="-11" inkscape:window-maximized="1"/>
  <metadata id="metadata956">
    <rdf:RDF>
      <cc:Work rdf:about="">
        <dc:format>image/svg+xml</dc:format>
        <dc:type rdf:resource="http://purl.org/dc/dcmitype/StillImage"/>
        <dc:title/>
      </cc:Work>
    </rdf:RDF>
  </metadata>
  
<g class="currentLayer" style=""><title>Layer 1</title><g inkscape:label="Capa 1" inkscape:groupmode="layer" id="layer1" class="">
    <g id="g924" style="fill:#a3a3a3;fill-opacity:1">
      <path id="path934" d="m51.98221877537797,82.56107760727204 c-51.62708734285889,-117.5896228799798 -25.813543481123514,-58.7948114399899 0,0 zM18.566125950732257,99.88914184624105 c-29.349692240611972,-129.1416658258705 -14.674846101275394,-64.5708327330682 0,0 zM27.409917209401712,29.295527854465433 c0.5861422798,-0.021102002306000005 1.5452841922,-0.021102002306000005 2.1314264720000002,0 c0.5861422798,0.021102002306000005 0.10657132360000002,0.038367800169600015 -1.0657132360000001,0.038367800169600015 c-1.1722845596,0 -1.6518555158000003,-0.017263639459000005 -1.0657132360000001,-0.038367800169600015 zm10.718030639811872,0 c0.5861422798,-0.021102002306000005 1.5452841922,-0.021102002306000005 2.1314264720000002,0 c0.5861422798,0.021102002306000005 0.10657132360000002,0.038367800169600015 -1.0657132360000001,0.038367800169600015 c-1.1722845596,0 -1.6518555158000003,-0.017263639459000005 -1.0657132360000001,-0.038367800169600015 zM85.85106917314474,24.594399606603233 c0.005861422798000002,-0.13410311673440004 0.034711802544000026,-0.16137959513280006 0.07358369282710002,-0.06954883248940003 c0.03516853678800001,0.08309785763180003 0.030867622657000014,0.18238446923180004 -0.009591419124000003,0.22063715448940008 c-0.04047046013710002,0.03825160605530001 -0.06925613586520005,-0.029739218047000013 -0.06396943699090002,-0.15108832200000005 zm7.307747904,0 c0.005861422798000002,-0.13410311673440004 0.034711802544000026,-0.16137959513280006 0.07358369282710002,-0.06954883248940003 c0.03516853678800001,0.08309785763180003 0.030867622657000014,0.18238446923180004 -0.009591419124000003,0.22063715448940008 c-0.04047046013710002,0.03825160605530001 -0.06925613586520005,-0.029739218047000013 -0.06396943699090002,-0.15108832200000005 z" style="fill:#a3a3a3;fill-opacity:1;stroke-width:0.32" sodipodi:nodetypes="ccccssssssssssssssssss" stroke-width="0"/>
      <path id="path932" d="m16.557763628127844,116.21648337646604 c-0.5634528567814525,-0.7757557946270002 -0.6072522777416084,-1.126992975185 -0.38629444328028706,-2.21139343293 c0.12661853140477003,-0.631527601914 0.5390221877433169,-1.126827497499 1.227384179511233,-1.456513008126 l0.5942402540684942,-0.28460723055599996 H32.49253047656023 H46.99196744887675 l-0.03213506018410003,-3.7124559120000002 l-0.032245437626400024,-3.7128696062150004 c0,0 -23.30464138093231,0.014317417180000003 -25.379562214712113,0 c-2.074920909902174,-0.014317417180000003 -2.080662592205872,-0.013418081930000002 -4.013539989570161,0 c-1.0286739918709502,-0.5661998893540001 -1.170446737124518,-0.8216542684460002 -1.429649613149643,-1.476467458653 c-0.11988129785718785,-0.700107310738 -0.04956956922561112,-0.8092434419960001 0.022842801989920006,-1.3256669239330003 c0.025262503892258013,-0.2573106070480001 0.0843548298605211,-0.4553154503700001 0.0843548298605211,-0.4553154503700001 c0.2444151038664069,-0.3502694958290001 0.955815417941862,-1.241978382909 1.4615093653498161,-1.388552041954 c0.23654818383971507,-0.06856172211900004 6.1773260066351865,-0.006259373340000003 12.222956956865916,0 c6.045630950230731,0.006259373340000003 10.64495772811431,-0.10751013312600002 14.509756882559689,-0.1572973325660001 l2.58269322648745,-0.03115297306000002 l0.0022836712200000014,-15.885857856 l-0.004643464814000002,-15.885692378314 l-14.580594841356612,-0.05799992894300004 c-7.44430573377795,-0.05748550918000001 -7.4719857320236995,-0.06539965938000002 -15.10540673268873,0 c-0.8283570512214621,-0.41822686466000014 -1.2438958075331992,-1.12665122779 -1.4229999850361785,-1.6972218864590003 c-0.166176360399984,-0.5293847015600001 -0.03062346014239501,-1.3696264309530002 0.09800000137938054,-1.5904564029200001 c0.13868304466423167,-0.23810080610800005 0.6748174349968913,-0.7072228512359999 1.0269999961626723,-0.932664614365 c0.8037052771358063,-0.5144773204559999 0.30204973585211303,-0.4982461178640001 15.505406134000415,-0.5018758349330001 l14.47859542753905,-0.003777208050000002 v-14.616000080341 c0,-8.039057074202 -0.016724085567800008,-14.802513937306701 0,-14.8499988385067 c-5.72347040633037,-0.03264586957500002 -5.68850511628095,-0.06967761729720003 -16.276375631237702,0.0015108832200000006 c-10.58787051495675,0.07117662929190004 -4.28014452186597,-0.00043168092000000027 -8.11128769109473,-0.0030217664400000017 C18.767781541389724,33.978550325340535 17.524741006789597,34.05205947053683 16.981561700079766,33.78981295190273 C16.4034552025687,33.510703897331126 15.864895168982414,32.68930683876664 15.744387882588754,32.31064353042464 C15.583471163365232,31.80500343786923 15.56941328297738,31.204762989834535 15.839261785465673,30.678112986902732 C16.226445052615375,29.922467047933935 16.200762303739097,29.589992159095544 17.91658781602945,29.274643491289936 H46.98658788070617 l0.03135099973190002,-12.2162070642931 c0.009423949901200004,-3.6716692597419995 0.010348836745300004,-6.413955759313301 0.0006470401790000004,-8.3676126600209 c-0.009028113556400003,-1.8188936718997 0.019616735779800006,-3.1665277586492 0,-3.732179413234801 c-0.026829330716300007,-0.7736240103504002 -0.00015110291239000005,-0.5150000141033001 -0.00015110291239000005,-0.5150000141033001 c-1.9117635628550298,0.016396680278000005 -8.46723515069499,-0.0016907502700000006 -14.69095934285303,0 C16.355069043187655,4.447941363462334 17.477591569557738,4.692453710434634 16.697587830912944,3.907642329308331 C16.495510255875217,3.7043191770519286 16.239949226466997,3.266005012061811 16.128587830166786,2.933610703661799 C15.939335463078017,2.3687255345230795 15.939039742879501,2.290382930012356 16.131587828150607,1.7339921621769179 C16.411689321703093,0.924605402115489 17.057653282579487,0.3316456125306786 17.91658781602945,0.0956433728524928 C18.515533270157256,-0.06892385851648442 20.24167992206712,0.042643370178680584 34.121700002460756,0.042643370178680584 c11.352400630271442,0 15.62665860895599,-0.09594382924118303 15.87560807904998,0 c0.9344965325937602,0.36015034472976903 1.1385554969043399,0.4734830980249591 1.3800643855517,0.7636330036735292 c0.5808213258574,0.6978036814818301 0.6052155018294401,0.8805699005405502 0.6052155018294401,4.60100424722422 c0,0 -0.0020933652850000017,2.3402455110067 -0.0003676710664200001,3.5103662879725 c0.00022037427273000006,0.15044080062000004 0.0003676710664200001,0.45099648276539994 0.0003676710664200001,0.45099648276539994 c0.007802543335000004,2.3092256395637 0.0035016292040000022,2.4398454510078 0,2.9720001051377998 c0.010729448615300003,1.2670853049503 0.007071768544600002,0.6640878547732001 0,1.7409997277585 c-0.0026262219030000014,0.3985206306620001 -0.004114414314700001,0.4511684356652001 0,0.7010001707742001 c0.005827167729700002,0.3538297842167 0.00008906317758000002,0.6678013898875 0,1.0339999116645 c-0.00007345809091000006,0.3011456460694001 0,0.4763289580874001 0,20.0007256424217 c0.06054621383212001,21.531175879322998 -0.22512240580825008,66.354580743132 -0.0003395057880400002,78.61525417979199 c-0.010230847065600004,1.4289249999970004 -0.09440582639919003,1.7132120672039999 -1.5629944431229705,2.333602301382 c-0.50902118025312,0.20991204203200006 -1.08975001742611,0.21717867085200004 -16.381535646023742,0.2084191455170001 c-8.719592238861091,-0.0050003039900000015 -15.936017196486526,0.030937132600000014 -16.036498730166528,0 c-0.6586084200544063,-0.14645854413300002 -1.114765237786429,-0.41631307924800015 -1.4434560156627534,-0.7581611997959998 z" style="fill:#2f5496;fill-opacity:1;stroke-width:0.32" sodipodi:nodetypes="ccsccccczcccsszccccccsssccsczzsssccssssssssssssssccssscccscc" stroke-width="0"/>
    </g>
    <path sodipodi:nodetypes="ccsssscscccccc" transform="translate(-25.458412170410156,-93.82335662841797) scale(0.2645833194255829) " id="path1497" d="m 166.89237,688.84233 v -42.33444 l -3.33582,-0.376 c -2.57158,-0.28985 -3.78657,-0.88047 -5.3033,-2.57799 -2.21092,-2.47444 -2.41165,-3.9905 -0.98152,-7.41328 2.05382,-4.91549 -0.53243,-4.66589 48.34743,-4.66589 h 44.06898 c 0,0 2.12777,0.17579 2.8013,0.92069 0.54898,0.60716 0.66995,2.55056 0.66995,2.55056 v 48.1154 48.1154 h -43.13351 -43.13351 z" style="opacity:0.997;fill:#2f5496;fill-opacity:1;stroke:#ff0000;stroke-width:0;stroke-linejoin:bevel"/>
    <path transform="translate(-25.458412170410156,-93.82335662841797) scale(0.2645833194255829) " id="path1501" d="m 156.99287,448.84496 c 0,-17.65919 0.15265,-18.28237 4.79382,-19.57135 1.44694,-0.40185 5.25594,-0.73242 8.46443,-0.73459 l 5.83363,-0.004 v -17.53625 c 0,-12.69649 0.23419,-17.77043 0.84853,-18.38477 0.6311,-0.6311 7.94993,-0.84853 28.56217,-0.84853 24.61892,0 27.76157,0.1249 28.14285,1.11849 0.23607,0.61517 0.42921,8.88832 0.42921,18.38478 v 17.26628 h 6.03312 c 6.6615,0 10.10425,1.04626 11.90569,3.61818 0.98033,1.39962 1.15307,3.95315 1.15307,17.04525 v 15.39902 h -9.19238 -9.19239 v -9.19239 -9.19239 h -10.25305 -10.25305 v 9.19239 9.19239 h -9.2278 -9.2278 l 0.17488,-3.00521 c 0.0962,-1.65286 0.11213,-5.78944 0.0354,-9.19239 l -0.13948,-6.18718 H 185.6307 175.37765 v 9.19239 9.19239 h -9.19239 -9.19239 z m 58.68986,-29.85582 v -9.54594 h -10.25304 -10.25305 v 9.54594 9.54594 h 10.25305 10.25304 z" style="opacity:0.997;fill:#2f5496;fill-opacity:1;stroke:#ff0000;stroke-width:0;stroke-linejoin:bevel"/>
    <path style="opacity:0.997;fill:#2f5496;fill-opacity:1;stroke:#ff0000;stroke-width:0;stroke-linejoin:bevel" d="m57.68754682958985,93.96883337158204 c0,0 -0.13973000000000002,-0.10168 -0.264142,-0.29223 c-0.021770000000000005,-0.033400000000000006 -0.04048,-0.07120000000000001 -0.06073000000000001,-0.10991000000000001 c-0.008600000000000002,-0.016500000000000004 -0.014620000000000001,-0.03430000000000001 -0.022730000000000004,-0.05180000000000001 c-0.010360000000000001,-0.022300000000000007 -0.015510000000000003,-0.03930000000000001 -0.025490000000000006,-0.06980000000000001 c-0.003600000000000001,-0.010400000000000001 -0.0062000000000000015,-0.021100000000000004 -0.01016,-0.032200000000000006 c-0.003300000000000001,-0.008000000000000002 -0.004200000000000001,-0.019100000000000002 -0.007100000000000002,-0.027400000000000008 c-0.005900000000000002,-0.017000000000000005 -0.005500000000000001,-0.0374 -0.010890000000000002,-0.05490000000000001 c-0.003600000000000001,-0.012400000000000001 -0.0031000000000000008,-0.026700000000000005 -0.006500000000000002,-0.039400000000000004 c-0.004400000000000001,-0.016700000000000003 -0.00038799999999999994,-0.03310000000000001 -0.004200000000000001,-0.05010000000000001 c-0.002800000000000001,-0.012600000000000002 -0.0019000000000000006,-0.021200000000000004 -0.0019000000000000006,-0.03830000000000001 c-0.00030499999999999993,-0.009000000000000003 -0.0008929999999999999,-0.011400000000000002 -0.0009289999999999998,-0.027900000000000008 c-0.0005389999999999999,-0.021700000000000004 0.000069,-0.012600000000000002 0.000021,-0.030900000000000007 c0.000026,-0.010600000000000002 -0.000112,-0.021400000000000006 -0.0015000000000000005,-0.032200000000000006 c-0.0017000000000000006,-0.012800000000000002 0.0031000000000000008,-0.024100000000000003 0.0020000000000000005,-0.037000000000000005 c-0.0024000000000000007,-0.023800000000000005 0.0029000000000000007,-0.04670000000000001 0.006500000000000002,-0.0703 c0.0007499999999999999,-0.005000000000000001 0.0020000000000000005,-0.010000000000000002 0.0029000000000000007,-0.014400000000000001 c0.000682,-0.004000000000000001 0.0019000000000000006,-0.008000000000000002 0.0019000000000000006,-0.011800000000000003 c-0.0016000000000000003,-0.04280000000000001 0.010450000000000001,-0.08540000000000002 0.019600000000000003,-0.12863 c0.005000000000000001,-0.021400000000000006 0.0027000000000000006,-0.022800000000000004 0.007000000000000002,-0.04280000000000001 c0.005200000000000001,-0.025500000000000005 0.008300000000000002,-0.03910000000000001 0.017240000000000002,-0.07640000000000001 c0.005100000000000001,-0.021800000000000003 0.008600000000000002,-0.03310000000000001 0.016130000000000002,-0.06600000000000002 c0.008100000000000001,-0.031200000000000006 0.015960000000000005,-0.054800000000000015 0.027740000000000004,-0.09450000000000003 c0.0072000000000000015,-0.024600000000000004 0.013560000000000003,-0.048900000000000006 0.021440000000000004,-0.07420000000000002 c0.005300000000000001,-0.016500000000000004 0.012130000000000002,-0.03360000000000001 0.017240000000000002,-0.05030000000000001 c0.020780000000000003,-0.07750000000000001 0.05517000000000001,-0.16146000000000005 0.08285000000000001,-0.24798000000000003 c0.31366700000000003,-0.98291 1.2808220000000001,-3.3862 2.012705,-5.47514 c0.023100000000000006,-0.06530000000000001 0.041240000000000006,-0.13177 0.06568000000000002,-0.19518000000000002 c0.020560000000000005,-0.05350000000000001 0.037140000000000006,-0.10876000000000002 0.057960000000000005,-0.16155000000000003 c0.016410000000000004,-0.04230000000000001 0.028560000000000006,-0.08650000000000002 0.044830000000000016,-0.1283 c0.016490000000000005,-0.04260000000000001 0.028910000000000005,-0.09090000000000002 0.04574000000000001,-0.13295 c0.016780000000000003,-0.04330000000000001 0.030600000000000006,-0.08780000000000002 0.04703000000000001,-0.13054000000000002 c0.012810000000000002,-0.03230000000000001 0.021240000000000002,-0.06640000000000001 0.033990000000000006,-0.09850000000000003 c0.016080000000000004,-0.04120000000000001 0.02797000000000001,-0.08480000000000001 0.043960000000000006,-0.12527 c0.014350000000000002,-0.035500000000000004 0.025920000000000006,-0.07260000000000001 0.038590000000000006,-0.10802000000000002 c0.027890000000000005,-0.07540000000000001 0.030310000000000007,-0.09220000000000003 0.04549000000000001,-0.12772 c0.055990000000000005,-0.13699000000000003 0.08980000000000002,-0.27995000000000003 0.13477,-0.41118000000000005 c0.07964000000000002,-0.23109000000000002 0.16303800000000004,-0.4420700000000001 0.23926200000000003,-0.63726 c0.24725100000000003,-0.6331900000000001 0.451956,-1.06285 0.5124059999999999,-1.17295 c0.038290000000000005,-0.06970000000000003 0.07241,-0.13942000000000002 0.11037500000000001,-0.20435 c0.06846000000000002,-0.11720000000000003 0.14148400000000003,-0.22331000000000004 0.21855900000000003,-0.31729 c0.05786000000000001,-0.07050000000000001 0.12436400000000002,-0.13008 0.189175,-0.18545000000000003 c0.04542000000000001,-0.03880000000000001 0.09999000000000004,-0.06510000000000002 0.14900600000000003,-0.09670000000000004 c0.06814000000000002,-0.04380000000000001 0.15092100000000003,-0.0703 0.22528300000000004,-0.10096000000000001 c0.10862400000000003,-0.04480000000000001 0.22954400000000005,-0.06630000000000001 0.35196500000000003,-0.08450000000000002 c0.34164200000000006,-0.05100000000000001 0.7271550000000001,-0.005000000000000001 1.073283,0.11608000000000002 c0.08737000000000002,0.03130000000000001 0.17261800000000002,0.06600000000000002 0.25380800000000003,0.10581 c0.08680000000000002,0.04250000000000001 0.16393300000000005,0.09450000000000003 0.240876,0.14600000000000002 c0.056400000000000006,0.038000000000000006 0.08779000000000003,0.07270000000000001 0.14225300000000002,0.12478000000000002 c0.07114000000000001,0.06780000000000001 0.12424500000000002,0.13448000000000002 0.18536100000000003,0.20687 c0.043510000000000014,0.05140000000000001 0.07415000000000001,0.10502000000000002 0.10860900000000001,0.15997000000000003 c0.016580000000000004,0.026700000000000005 0.025160000000000005,0.054500000000000014 0.03964000000000001,0.08190000000000001 c0.015270000000000004,0.028700000000000003 0.016130000000000002,0.04600000000000001 0.030340000000000006,0.08640000000000002 c0.01416,0.04060000000000001 0.01623,0.06420000000000002 0.027210000000000005,0.11908000000000002 c0.04306000000000001,0.21556000000000003 0.05296000000000001,0.40549 -0.276712,1.4733 c-0.023190000000000006,0.07360000000000001 -0.05051000000000001,0.15065 -0.07625000000000001,0.2331 c-0.024730000000000002,0.07890000000000001 -0.054530000000000016,0.16103000000000003 -0.08223000000000003,0.24849000000000004 c-0.032720000000000006,0.10314000000000001 -0.07399000000000001,0.21108000000000002 -0.11184300000000001,0.32667000000000007 c-0.03203000000000001,0.09710000000000003 -0.07054,0.19759000000000004 -0.105718,0.30424 c-0.024810000000000002,0.07560000000000001 -0.05695000000000001,0.15204000000000004 -0.08361000000000002,0.23263 c-0.021230000000000002,0.06310000000000002 -0.045710000000000015,0.12664999999999998 -0.06804000000000002,0.19288000000000002 c-0.03157000000000001,0.09550000000000003 -0.0708,0.19162 -0.10492300000000002,0.29386000000000007 c-0.026440000000000005,0.08130000000000001 -0.05944000000000001,0.16220000000000004 -0.08805000000000002,0.24773000000000003 c-0.02484,0.07570000000000002 -0.05785000000000001,0.15049000000000004 -0.08421000000000002,0.22966000000000003 c-0.6393300000000001,1.91546 -0.983979,2.81698 -1.105289,3.20369 c-0.015440000000000002,0.05020000000000001 -0.025270000000000004,0.09170000000000003 -0.03486000000000001,0.12511999999999998 c-0.006800000000000002,0.023400000000000008 -0.010380000000000002,0.04340000000000001 -0.014080000000000002,0.05990000000000001 c-0.0010000000000000002,0.005000000000000001 -0.003400000000000001,0.010000000000000002 -0.003900000000000001,0.013800000000000003 c-0.0013000000000000004,0.011800000000000003 0.0027000000000000006,0.016000000000000004 0.009500000000000003,0.017800000000000003 c0.022540000000000004,-0.010000000000000002 0.08401000000000002,-0.023000000000000007 0.12477800000000001,-0.017400000000000006 c0.07632000000000001,0.010700000000000003 -0.04716000000000001,0.012800000000000002 -0.003300000000000001,-0.003000000000000001 c0.31184700000000004,-0.11221000000000002 0.777097,-0.28313 1.082163,-0.4108200000000001 c0.3248150000000001,-0.13598000000000002 0.59731,-0.26118 0.8929280000000002,-0.39660000000000006 c0.976626,-0.44739000000000007 1.911233,-0.91715 2.7294270000000003,-1.33857 c5.493513,-2.92763 9.450424,-6.7964 11.710554,-11.53978 c0.6460500000000001,-1.35582 1.50951,-4.1258 1.73981,-5.58775 c0.7331500000000001,-4.6503 -0.10188,-9.18346 -2.46484,-13.66018 c-0.7257800000000001,-1.37499 -2.93841,-4.44526 -4.113111,-5.73565 c-2.99544,-3.2904 -6.734274,-6.09663 -10.847262,-8.088940000000001 c-1.958007,-0.94846 -3.328302,-1.48533 -5.716532,-2.26653 c-0.06791000000000001,-0.021600000000000005 -0.13279400000000002,-0.04020000000000001 -0.19672000000000003,-0.060600000000000015 c-0.09761000000000003,-0.030100000000000005 -0.19138600000000003,-0.06220000000000001 -0.279713,-0.09130000000000002 c-0.7288950000000002,-0.23902 -1.166033,-0.3939000000000001 -1.4359790000000001,-0.55583 c-0.20669700000000002,-0.12402000000000002 -0.3028600000000001,-0.26602000000000003 -0.39374600000000004,-0.42006000000000004 c-0.17670100000000002,-0.29954000000000003 -0.25782000000000005,-0.6199700000000001 -0.22825900000000005,-0.9092 c0.007800000000000002,-0.0763 0.026270000000000005,-0.14868 0.04917000000000001,-0.21998000000000004 c0.01046,-0.03250000000000001 0.024020000000000003,-0.06810000000000002 0.03953000000000001,-0.09850000000000003 c0.010560000000000002,-0.020500000000000004 0.022580000000000006,-0.03610000000000001 0.033080000000000005,-0.05660000000000001 c0.030560000000000007,-0.059600000000000014 0.07927000000000002,-0.10657000000000001 0.12089000000000001,-0.16072000000000003 c0.05204000000000001,-0.06770000000000002 0.11893300000000002,-0.12529 0.18751500000000004,-0.18303000000000003 c0.09231000000000002,-0.07770000000000002 0.20414700000000002,-0.14147 0.32493500000000003,-0.19755000000000003 c0.27718800000000005,-0.12869 0.520602,-0.19766000000000003 0.8635619999999999,-0.17978000000000002 c0.47174699999999997,0.024600000000000004 1.131179,0.20805 2.3198920000000003,0.5764400000000001 c0.6679720000000001,0.20697000000000002 1.320605,0.42380000000000007 1.961561,0.6588000000000002 c0.39009800000000006,0.14295000000000002 0.7762290000000001,0.28943 1.157756,0.44339000000000006 c0.360397,0.14545000000000002 0.719396,0.2932 1.073096,0.44879 c0.262144,0.11528000000000002 0.5233669999999999,0.23081000000000002 0.782239,0.35184000000000004 c0.16920200000000005,0.07910000000000002 0.33957300000000007,0.15643000000000004 0.5075189999999999,0.23802 c0.137353,0.06680000000000001 0.274167,0.13184 0.410703,0.20035 c0.12322900000000002,0.061800000000000015 0.24705500000000002,0.11990000000000002 0.36968000000000006,0.18307 c0.15350900000000003,0.07910000000000002 0.311049,0.15490000000000004 0.463696,0.23626000000000003 c0.12258300000000001,0.06530000000000001 0.244321,0.12889 0.36635500000000004,0.19575000000000004 c0.12348500000000001,0.06770000000000002 0.248124,0.13008 0.37108100000000005,0.19938000000000003 c0.12901200000000002,0.07260000000000001 0.26163099999999995,0.14083 0.39016200000000006,0.21517 c0.124848,0.07220000000000001 0.252819,0.14037 0.377217,0.21435 c0.127139,0.07570000000000002 0.26481600000000005,0.14902 0.3914850000000001,0.22651000000000004 c0.12367200000000002,0.07560000000000001 0.250061,0.14417 0.37326000000000004,0.22166000000000002 c0.10528100000000001,0.06620000000000002 0.213172,0.12713 0.31812500000000005,0.19469000000000003 c0.023840000000000004,0.015200000000000003 0.04938000000000001,0.029000000000000005 0.07375000000000001,0.04370000000000001 c0.08842000000000003,0.05370000000000001 0.17826000000000003,0.10650000000000001 0.26426299999999997,0.16322000000000003 c0.11074000000000002,0.07310000000000001 0.22556300000000004,0.14005 0.3358190000000001,0.21487 c0.10144,0.06880000000000001 0.21391000000000004,0.13347 0.3149800000000001,0.20373000000000002 c0.021900000000000006,0.014600000000000002 0.04550000000000001,0.028100000000000003 0.06820000000000002,0.04290000000000001 c0.09070000000000003,0.05890000000000001 0.18560000000000001,0.11724000000000002 0.27222,0.17924000000000004 c0.06120000000000001,0.04380000000000001 0.14149000000000003,0.09640000000000003 0.20239000000000001,0.13798000000000002 c0.07320000000000002,0.05010000000000001 0.15600000000000003,0.09960000000000004 0.22660000000000002,0.15231000000000003 c0.05760000000000001,0.04310000000000001 0.12705,0.08280000000000001 0.18409000000000003,0.12627 c0.046100000000000016,0.0352 0.10221000000000001,0.06810000000000002 0.14790000000000003,0.10362000000000002 c0.04500000000000001,0.03490000000000001 0.09790000000000003,0.06490000000000001 0.14239000000000002,0.10005 c0.010600000000000002,0.008000000000000002 0.024300000000000006,0.015300000000000003 0.0359,0.023000000000000007 c0.035,0.024100000000000003 0.0709,0.048400000000000006 0.10178000000000001,0.0734 c0.032900000000000006,0.026500000000000006 0.07110000000000001,0.04710000000000001 0.10366000000000002,0.07370000000000002 c0.030900000000000007,0.025300000000000007 0.07570000000000002,0.05190000000000001 0.10664000000000001,0.07720000000000002 c0.005000000000000001,0.003000000000000001 0.013900000000000003,0.009000000000000003 0.019500000000000003,0.011800000000000003 c0.03330000000000001,0.024100000000000003 0.06820000000000002,0.04350000000000001 0.09750000000000003,0.06860000000000002 c0.029400000000000006,0.025200000000000004 0.0719,0.05070000000000001 0.10071000000000001,0.07610000000000001 c0.006000000000000002,0.005000000000000001 0,0 0.023100000000000006,0.016000000000000004 c0.027800000000000005,0.0198 0.055200000000000006,0.04000000000000001 0.08150000000000002,0.05980000000000001 c0.04370000000000001,0.03280000000000001 0.09330000000000002,0.06620000000000002 0.13852,0.10186 c0.028600000000000004,0.022600000000000006 0.06720000000000002,0.046600000000000016 0.09480000000000002,0.0703 c0.007000000000000002,0.006000000000000002 0.015900000000000004,0.010800000000000002 0.020900000000000005,0.015300000000000003 c0.024200000000000003,0.0188 0.03180000000000001,0.019500000000000003 0.04640000000000001,0.03410000000000001 c0.006000000000000002,0.006000000000000002 -0.0010000000000000002,-0.0010000000000000002 0.021600000000000005,0.014500000000000002 c0.022700000000000005,0.015900000000000004 0.03980000000000001,0.03130000000000001 0.055900000000000005,0.043600000000000014 c0.03420000000000001,0.026000000000000006 0.04860000000000001,0.03350000000000001 0.06860000000000002,0.04990000000000001 c0.049400000000000006,0.040400000000000005 0.04240000000000001,0.03310000000000001 0.12676,0.09610000000000003 c0.08120000000000002,0.060800000000000014 0.101,0.07700000000000001 0.16454000000000005,0.12545 c3.08121,2.3495 5.396861,4.70163 7.471461,7.58064 c1.1954500000000001,1.65897 1.84339,2.7744400000000002 2.64546,4.44442 c0.49701000000000006,1.03488 0.92196,2.08354 1.26843,3.13922 c0.21819000000000002,0.6648300000000001 0.40922000000000003,1.33274 0.5677700000000001,2.00249 c0.12258000000000001,0.51873 0.22980000000000003,1.03906 0.3168000000000001,1.55939 c0.06520000000000002,0.39009000000000005 0.12293000000000001,0.7811 0.16806000000000004,1.17151 c0.08700000000000002,0.7521100000000001 0.13991000000000003,1.50549 0.15243000000000004,2.25604 c0.012400000000000001,0.7407200000000002 -0.009000000000000003,1.47964 -0.06940000000000002,2.21537 c-0.04880000000000001,0.5971700000000001 -0.11942000000000003,1.19265 -0.21588000000000002,1.78454 c-0.09950000000000003,0.6102400000000001 -0.22100000000000003,1.21803 -0.37104000000000004,1.82068 c-0.24708000000000002,0.9926400000000001 -0.56142,1.97461 -0.9447400000000001,2.93954 c-0.21473000000000003,0.53985 -0.4489800000000001,1.07476 -0.70631,1.60351 c-0.11069000000000002,0.22732000000000002 -0.22786000000000003,0.45293 -0.3457800000000001,0.6782700000000002 c-0.11767000000000002,0.22478000000000004 -0.23773000000000002,0.45178 -0.36659,0.6761600000000001 c-0.10404000000000001,0.18127000000000001 -0.20805,0.36321000000000003 -0.31906000000000007,0.54381 c-0.08380000000000001,0.13625 -0.16525000000000004,0.27498000000000006 -0.25095,0.41202000000000005 c-0.09970000000000004,0.15928000000000003 -0.20411,0.31689000000000006 -0.30829,0.47562000000000004 c-0.19885000000000003,0.3029700000000001 -0.40757000000000004,0.6034400000000001 -0.62226,0.90254 c-0.14702,0.20489000000000002 -0.30189000000000005,0.40547000000000005 -0.45595,0.6077700000000001 c-0.14839000000000002,0.19478000000000004 -0.30285000000000006,0.38678000000000007 -0.45730000000000004,0.57857 c-0.20423000000000002,0.2536 -0.41568000000000005,0.50249 -0.6300200000000001,0.7496900000000002 c-0.11958000000000002,0.13793000000000002 -0.24488000000000001,0.27124 -0.3673700000000001,0.40690000000000004 c-0.64141,0.7103200000000001 -1.3265200000000001,1.38572 -2.03399,2.01524 c-2.218521,1.97412 -4.3734210000000004,3.43413 -7.320553,4.92708 c-0.20664300000000002,0.10470000000000002 -0.4244800000000001,0.20733000000000001 -0.6391340000000001,0.31256000000000006 c-0.17695400000000003,0.08680000000000002 -0.36504800000000004,0.16912000000000002 -0.5477400000000001,0.25648000000000004 c-0.39859800000000006,0.19061000000000003 -0.797293,0.36935000000000007 -1.12725,0.52059 c-0.16454700000000005,0.07540000000000001 -0.296117,0.15300000000000002 -0.42399000000000003,0.20641000000000004 c-0.020590000000000004,0.009000000000000003 -0.03583000000000001,0.019400000000000004 -0.053300000000000014,0.028400000000000005 c-0.028860000000000004,0.015000000000000003 -0.05779000000000001,0.028500000000000004 -0.08319000000000003,0.04160000000000001 c-0.10822200000000003,0.055900000000000005 -0.17758800000000002,0.09800000000000003 -0.21841200000000005,0.11156000000000002 l-0.17719200000000002,0.11133000000000001 l-0.0031000000000000008,0.007000000000000002 l0.029850000000000005,0.012700000000000003 l0.14550600000000002,0.04260000000000001 l3.361602,0.7899 c0.18175000000000002,0.04280000000000001 0.35441000000000006,0.07850000000000001 0.5188900000000001,0.11748000000000001 c0.47090000000000004,0.11161000000000001 0.8722900000000001,0.20317 1.21612,0.28811000000000003 c0.8222900000000001,0.20319 1.31479,0.3354600000000001 1.62134,0.43965000000000004 c0.40136000000000005,0.13640000000000002 0.47707000000000005,0.22783000000000003 0.5913200000000001,0.33160000000000006 c0.06260000000000002,0.05680000000000001 0.10644,0.09400000000000003 0.14558000000000001,0.14269 c0.06410000000000002,0.07970000000000002 0.12833,0.16098000000000004 0.17172,0.24038 c0.08590000000000002,0.15728000000000003 0.13984000000000002,0.31565000000000004 0.14686000000000002,0.46817000000000003 c0.0020000000000000005,0.05250000000000001 0.011000000000000003,0.10828000000000002 0.004000000000000001,0.15975000000000003 c-0.006000000000000002,0.04280000000000001 -0.0020000000000000005,0.06220000000000001 -0.015900000000000004,0.13074000000000002 c-0.0182,0.08880000000000002 -0.030900000000000007,0.14890000000000003 -0.06030000000000001,0.21735000000000002 c-0.023400000000000008,0.05270000000000001 -0.0367,0.09170000000000003 -0.06340000000000001,0.13561 c-0.004000000000000001,0.007000000000000002 -0.008000000000000002,0.014100000000000001 -0.011400000000000002,0.021700000000000004 c-0.006000000000000002,0.009000000000000003 -0.010300000000000002,0.017800000000000003 -0.016200000000000003,0.027400000000000008 c-0.016200000000000003,0.027500000000000007 -0.03430000000000001,0.05460000000000002 -0.05250000000000001,0.08040000000000001 c-0.05220000000000001,0.07390000000000001 -0.10584,0.21437 -0.18407,0.28215 c-0.49477000000000004,0.42869 -0.97373,0.43259000000000003 -2.24972,0.21283000000000002 c-1.04442,-0.17987 -5.348899,-1.13937 -9.976331,-2.21939 c-0.16699700000000006,-0.03860000000000001 -0.3196820000000001,-0.07110000000000001 -0.464457,-0.10342000000000001 c-0.16306000000000004,-0.0364 -0.31517800000000007,-0.0723 -0.45198600000000005,-0.10400000000000001 c-0.261585,-0.06070000000000001 -0.47694600000000004,-0.11627000000000003 -0.656587,-0.16251000000000004 c-0.17754700000000004,-0.04570000000000001 -0.31845000000000007,-0.09050000000000002 -0.433553,-0.12753 c-0.26631600000000005,-0.08580000000000002 -0.39046500000000006,-0.15959000000000004 -0.481762,-0.23802 c-0.027430000000000006,-0.023500000000000007 -0.04237000000000001,-0.024900000000000005 -0.08932000000000002,-0.07390000000000001 z" id="path2295" sodipodi:nodetypes="cssssssssssssssssssssssssssssssssssssssssssssssssssssssssssssssssssscsssscssssssssssssssssssssssssssssssssssssssssssssssssssssssssssssssssssssssssssssssssssssssssssssssccccssssssssssssssssssssssscc"/>
    <path id="path930" d="m15.930662829589842,114.56629093904115 c-27.592717437290283,-138.92642948395044 -13.7963585283392,-69.46321384264 0,0 z" style="fill:#a3a3a3;fill-opacity:1;stroke-width:0.32" sodipodi:nodetypes="cc"/>
    <path transform="translate(-25.458412170410156,-93.82335662841797) scale(0.2645833194255829) " id="path1499" d="m 235.48172,556.52141 v -36.76956 l -35.53211,-0.003 c -34.2083,-0.003 -35.61798,-0.055 -37.83668,-1.40778 -2.68594,-1.63764 -5.11363,-5.28968 -5.11742,-7.69826 -0.002,-1.04785 1.16428,-2.85095 3.0863,-4.77297 l 3.08894,-3.08894 40.92846,0.004 c 25.86997,0.002 41.89222,0.27161 43.54794,0.73146 1.44072,0.40014 3.27036,1.55497 4.06586,2.56629 1.42082,1.80627 1.44638,2.59307 1.44638,44.52337 v 42.6846 h -8.83883 -8.83884 z" style="opacity:0.997;fill:#2f5496;fill-opacity:1;stroke:#ff0000;stroke-width:0;stroke-linejoin:bevel"/>
  </g></g></svg>