<?xml version="1.0" encoding="UTF-8" standalone="no"?>
<svg
   xmlns:dc="http://purl.org/dc/elements/1.1/"
   xmlns:cc="http://creativecommons.org/ns#"
   xmlns:rdf="http://www.w3.org/1999/02/22-rdf-syntax-ns#"
   xmlns:svg="http://www.w3.org/2000/svg"
   xmlns="http://www.w3.org/2000/svg"
   xmlns:sodipodi="http://sodipodi.sourceforge.net/DTD/sodipodi-0.dtd"
   xmlns:inkscape="http://www.inkscape.org/namespaces/inkscape"
   sodipodi:docname="Salir B_A.svg"
   inkscape:version="1.0 (4035a4fb49, 2020-05-01)"
   id="svg8"
   version="1.1"
   viewBox="0 0 210 239.99998"
   height="239.99998mm"
   width="210mm">
  <defs
     id="defs2" />
  <sodipodi:namedview
     inkscape:window-maximized="1"
     inkscape:window-y="-11"
     inkscape:window-x="-11"
     inkscape:window-height="986"
     inkscape:window-width="1920"
     showgrid="false"
     inkscape:document-rotation="0"
     inkscape:current-layer="layer1"
     inkscape:document-units="mm"
     inkscape:cy="445.71429"
     inkscape:cx="37.142857"
     inkscape:zoom="0.7"
     inkscape:pageshadow="2"
     inkscape:pageopacity="0.0"
     borderopacity="1.0"
     bordercolor="#666666"
     pagecolor="#ffffff"
     id="base" />
  <metadata
     id="metadata5">
    <rdf:RDF>
      <cc:Work
         rdf:about="">
        <dc:format>image/svg+xml</dc:format>
        <dc:type
           rdf:resource="http://purl.org/dc/dcmitype/StillImage" />
        <dc:title></dc:title>
      </cc:Work>
    </rdf:RDF>
  </metadata>
  <g
     id="layer1"
     inkscape:groupmode="layer"
     inkscape:label="Capa 1">
    <path
       style="display:inline;fill:#ffffff;fill-opacity:1;stroke:#ffffff;stroke-width:0.264583px;stroke-linecap:butt;stroke-linejoin:miter;stroke-opacity:1"
       d="M 0.64256413,0.43476011 V 240.41169 H 210.72172 V 0.43476011 Z"
       id="path2271" />
    <path
       id="path1013"
       d="m 74.523972,173.22904 c -1.695974,-0.15957 -3.545337,-0.79014 -5.00861,-1.70776 -3.314665,-2.07863 -5.45159,-5.56483 -5.917838,-9.65443 -0.04589,-0.40251 -0.06824,-14.88876 -0.06824,-44.23111 0,-38.518491 0.0118,-43.728002 0.100655,-44.446711 0.732952,-5.92833 5.133987,-10.473975 10.772158,-11.126111 0.898672,-0.103945 57.981743,-0.104909 58.952773,-9.96e-4 5.24919,0.561728 9.60371,4.713717 10.64553,10.150401 0.26669,1.391735 0.27644,1.906944 0.25635,13.555156 l -0.0194,11.241795 -3.9971,-3.708082 -3.9971,-3.708083 -0.0333,-7.780933 -0.0333,-7.780933 -0.17848,-0.518074 c -0.25767,-0.747935 -0.55608,-1.231 -1.09899,-1.779055 -0.54861,-0.553815 -1.22168,-0.935119 -1.93256,-1.094826 -0.6904,-0.155104 -57.446122,-0.153676 -58.145433,0.0015 -1.405744,0.311858 -2.485787,1.342737 -3.050796,2.911924 l -0.146883,0.407935 -0.01827,43.440093 c -0.01663,39.52816 -0.0087,43.48624 0.08787,43.95246 0.30074,1.45165 1.358748,2.68474 2.728373,3.17987 l 0.532946,0.19266 h 28.879043 c 27.37049,0 28.90121,-0.006 29.30376,-0.12442 0.94247,-0.27609 1.86268,-0.97181 2.38145,-1.80049 0.13766,-0.21988 0.34201,-0.67136 0.45413,-1.00329 l 0.20384,-0.60352 0.0186,-7.74106 0.0186,-7.74105 3.87524,-3.59575 c 2.13138,-1.97766 3.94502,-3.65438 4.03032,-3.72605 l 0.1551,-0.1303 -0.0205,11.78496 c -0.0225,12.93554 0.002,12.12541 -0.41906,13.77587 -1.32266,5.18301 -5.58407,8.93497 -10.69268,9.41437 -0.93916,0.0881 -57.679464,0.0824 -58.618186,-0.006 z M 118.1454,145.41663 c -0.50211,-0.17517 -0.77299,-0.36078 -1.14969,-0.78778 -0.3352,-0.37996 -0.62678,-0.97188 -0.81698,-1.65853 -0.10729,-0.38732 -0.11919,-0.94202 -0.13828,-6.44394 l -0.0209,-6.02014 -12.4718,-0.0192 c -11.919181,-0.0183 -12.48805,-0.025 -12.838215,-0.14951 -1.419263,-0.50484 -2.48496,-1.65827 -2.825604,-3.05824 -0.09376,-0.38532 -0.105602,-1.46701 -0.105602,-9.6444 0,-10.13478 -0.02399,-9.5287 0.415331,-10.49308 0.319664,-0.70171 1.119905,-1.54121 1.795426,-1.88349 0.97172,-0.49237 0.112288,-0.46328 13.725244,-0.46463 l 12.3053,-0.001 0.0204,-6.127527 c 0.0202,-6.071212 0.0218,-6.132594 0.16734,-6.679454 0.3031,-1.138541 0.8918,-1.930139 1.666,-2.240204 0.32984,-0.132102 0.47965,-0.148907 1.08232,-0.121412 0.38472,0.01755 0.79656,0.07636 0.9152,0.130679 0.2114,0.0968 30.3954,27.786808 30.3954,27.883948 0,0.0272 -6.81255,6.30996 -15.13901,13.9617 l -15.13901,13.91226 -0.7328,0.0179 c -0.57004,0.0139 -0.8166,-0.0113 -1.1101,-0.11373 z"
       style="fill:#2f5496;fill-opacity:1;stroke:#2f5496;stroke-width:0.0685969;stroke-opacity:1" />
  </g>
</svg>
