<svg xmlns:dc="http://purl.org/dc/elements/1.1/" xmlns:cc="http://creativecommons.org/ns#" xmlns:rdf="http://www.w3.org/1999/02/22-rdf-syntax-ns#" xmlns:svg="http://www.w3.org/2000/svg" xmlns="http://www.w3.org/2000/svg" xmlns:sodipodi="http://sodipodi.sourceforge.net/DTD/sodipodi-0.dtd" xmlns:inkscape="http://www.inkscape.org/namespaces/inkscape" sodipodi:docname="Ubicacion B_A.svg" inkscape:version="1.0 (4035a4fb49, 2020-05-01)" version="1.1" height="120" width="115"><rect id="backgroundrect" width="100%" height="100%" x="0" y="0" fill="none" stroke="none"/>
  <defs id="defs2"/>
  <sodipodi:namedview inkscape:window-maximized="1" inkscape:window-y="-11" inkscape:window-x="-11" inkscape:window-height="986" inkscape:window-width="1920" showgrid="false" inkscape:document-rotation="0" inkscape:current-layer="layer1" inkscape:document-units="mm" inkscape:cy="445.71429" inkscape:cx="400" inkscape:zoom="0.7" inkscape:pageshadow="2" inkscape:pageopacity="0.0" borderopacity="1.0" bordercolor="#666666" pagecolor="#ffffff" id="base"/>
  <metadata id="metadata5">
    <rdf:RDF>
      <cc:Work rdf:about="">
        <dc:format>image/svg+xml</dc:format>
        <dc:type rdf:resource="http://purl.org/dc/dcmitype/StillImage"/>
        <dc:title/>
      </cc:Work>
    </rdf:RDF>
  </metadata>
  
<g class="currentLayer" style=""><title>Layer 1</title><g id="layer1" inkscape:groupmode="layer" inkscape:label="Capa 1" class="">
    <path id="path24" d="M28.614913940429688,108.760009765625 L-0.001216888427734375,97.20339965820312 V60.27061462402344 V23.33782958984375 l28.687654495239258,-11.668417930603027 l28.68764877319336,-11.668416976928711 l28.601720809936523,11.495217323303223 l28.601720809936523,11.495218276977539 l0.05779999867081642,37.108642578125 l0.05779999867081642,37.10865020751953 l-28.38835906982422,11.439680099487305 c-15.613590240478516,6.291820049285889 -28.542570114135742,11.491100311279297 -28.731060028076172,11.553939819335938 c-0.18849000334739685,0.06279999762773514 -13.219966888427734,-5.086209774017334 -28.95883560180664,-11.442339897155762 zm26.674114227294922,-26.105730056762695 v-32.51689147949219 l-11.389659881591797,-4.623290061950684 c-6.264317035675049,-2.5428099632263184 -11.456347465515137,-4.623292922973633 -11.537843704223633,-4.623292922973633 c-0.08150000125169754,0 -0.1481820046901703,3.671402931213379 -0.1481820046901703,8.158662796020508 v8.158670425415039 l-1.0036300420761108,-1.0134199857711792 c-0.8948460221290588,-0.9035699963569641 -1.0830069780349731,-0.9954699873924255 -1.735967993736267,-0.8479200005531311 c-0.6278749704360962,0.14188000559806824 -0.8408079743385315,0.05730000138282776 -1.4927979707717896,-0.5928400158882141 c-0.6593359708786011,-0.6575000286102295 -0.8663340210914612,-0.7379099726676941 -1.5566459894180298,-0.6046599745750427 c-0.7101560235023499,0.1370600014925003 -0.8512830138206482,0.07400000095367432 -1.3059959411621094,-0.5829399824142456 c-0.4625079929828644,-0.6682699918746948 -0.5915690064430237,-0.7231600284576416 -1.3910620212554932,-0.5916299819946289 l-0.8812500238418579,0.14497999846935272 v-8.073129653930664 v-8.073135375976562 L14.221172332763672,33.48307800292969 C9.477516174316406,31.563385009765625 5.262210845947266,29.851776123046875 4.853816986083984,29.679527282714844 l-0.7425360083580017,-0.31318700313568115 l0.0005300000193528831,32.50080871582031 l0.0005230000242590904,32.50082015991211 l9.995136260986328,4.050509929656982 c5.497307777404785,2.2277801036834717 12.308399200439453,4.9444098472595215 15.1357421875,6.036960124969482 c2.8273439407348633,1.0925400257110596 9.818592071533203,3.9411799907684326 15.536105155944824,6.330319881439209 c5.717512130737305,2.3891398906707764 10.421177864074707,4.353229999542236 10.452594757080078,4.364649772644043 c0.03142999857664108,0.01140000019222498 0.057110000401735306,-14.61184024810791 0.057110000401735306,-32.496131896972656 zm32.7286262512207,20.87179946899414 l22.561609268188477,-9.152799606323242 v-32.514190673828125 c0,-17.88279914855957 -0.0771000012755394,-32.471309661865234 -0.17135000228881836,-32.418907165527344 c-0.09430000185966492,0.052390001714229584 -11.60923957824707,4.731037139892578 -25.588869094848633,10.396957397460938 l-25.41752052307129,10.301679611206055 v32.49536895751953 v32.49536895751953 l3.027250051498413,-1.225350022315979 c1.664989948272705,-0.6739299893379211 13.179980278015137,-5.344089984893799 25.58888053894043,-10.378129959106445 zm-4.740799903869629,-67.5673828125 c14.073880195617676,-5.712753772735596 25.662429809570312,-10.458847045898438 25.752330780029297,-10.546874046325684 c0.08990000188350677,-0.08803000301122665 -2.840250015258789,-1.4170730113983154 -6.511459827423096,-2.9534289836883545 c-3.6712000370025635,-1.536355972290039 -8.428250312805176,-3.5261240005493164 -10.571209907531738,-4.4217047691345215 l-3.8963000774383545,-1.6283279657363892 l-25.462360382080078,10.619603157043457 c-14.004297256469727,5.840785026550293 -25.603099822998047,10.699455261230469 -25.775104522705078,10.797052383422852 c-0.19576899707317352,0.11107099801301956 2.239880084991455,1.2131760120391846 6.511449813842773,2.946352958679199 c3.7533140182495117,1.5228990316390991 8.417795181274414,3.4323890209198 10.365521430969238,4.243319034576416 c1.9477230310440063,0.810920000076294 3.644123077392578,1.4421000480651855 3.7697830200195312,1.4026199579238892 c0.12567000091075897,-0.039500001817941666 11.743470191955566,-4.745859146118164 25.817350387573242,-10.458610534667969 zM50.148406982421875,22.32250213623047 c14.325202941894531,-5.718875885009766 26.126022338867188,-10.473771095275879 26.22405242919922,-10.566431999206543 c0.09799999743700027,-0.09266000241041183 -4.15084981918335,-1.7616289854049683 -9.441969871520996,-3.7088189125061035 l-9.620229721069336,-3.5403449535369873 l-25.6701602935791,10.489882469177246 c-14.11859130859375,5.76943302154541 -25.62141227722168,10.540043830871582 -25.56182861328125,10.601341247558594 c0.23310500383377075,0.23983900249004364 17.581127166748047,7.2441630363464355 17.795852661132812,7.185140132904053 c0.12565700709819794,-0.03457000106573105 11.94908332824707,-4.741882801055908 26.27428436279297,-10.460766792297363 z" style="fill:#2f5496;fill-opacity:1;stroke-width:0.231745"/>
  </g></g></svg>