<svg version="1.0" xmlns="http://www.w3.org/2000/svg" width="624.000000" height="158.000000" preserveAspectRatio="xMidYMid meet" style=""><rect id="backgroundrect" width="100%" height="100%" x="0" y="0" fill="none" stroke="none"/>
<metadata>
Created by potrace 1.16, written by Peter Selinger 2001-2019
</metadata>

<g class="currentLayer" style=""><title>Layer 1</title><g transform="translate(0, 158) scale(0.1, -0.1)" fill="#1070b4" stroke="none" id="svg_1" class="selected" fill-opacity="1" opacity="1">
<path d="M3440 1511 c0 -6 5 -11 10 -11 6 0 10 -9 10 -20 0 -11 7 -23 15 -26 8 -4 15 -13 15 -20 0 -8 -7 -17 -15 -20 -8 -4 -15 -16 -16 -28 0 -11 -9 -34 -20 -51 -21 -34 -41 -77 -37 -80 24 -19 200 -125 207 -125 13 0 26 24 46 84 19 55 16 106 -5 116 -146 72 -150 74 -150 82 0 17 34 8 90 -24 8 -4 22 -11 30 -14 8 -3 23 -10 33 -15 13 -7 17 -5 17 10 0 11 -4 22 -9 25 -17 11 -20 46 -4 46 8 0 17 -9 20 -19 3 -11 11 -22 19 -25 8 -3 14 -18 14 -33 0 -24 11 -34 68 -68 37 -22 74 -43 82 -46 8 -4 24 -16 34 -28 24 -27 36 -27 36 0 0 30 24 18 28 -15 4 -28 17 -49 64 -98 23 -24 24 -28 8 -28 -10 0 -20 6 -23 13 -11 28 -38 -21 -44 -79 -3 -32 -9 -63 -13 -69 -22 -29 -13 -62 34 -120 26 -33 50 -67 54 -75 6 -16 22 -30 35 -30 4 0 7 16 7 35 0 24 5 35 15 35 20 0 20 -59 1 -66 -9 -3 -14 -19 -14 -37 1 -48 -5 -107 -10 -107 -3 0 -11 8 -18 18 -12 16 -13 15 -14 -6 0 -12 -7 -25 -15 -28 -8 -4 -15 -14 -15 -23 0 -9 -21 -41 -47 -70 -44 -51 -47 -58 -49 -115 -1 -34 0 -55 3 -48 3 6 9 12 14 12 12 0 57 52 78 89 39 70 71 137 71 149 0 6 4 12 8 12 4 0 16 46 26 103 16 88 16 107 5 125 -11 17 -11 24 -1 34 16 16 15 58 -3 101 -8 20 -15 53 -15 72 0 32 -2 36 -21 30 -19 -6 -20 -4 -15 22 13 59 -93 220 -188 286 -14 10 -26 24 -26 32 0 8 -8 15 -17 15 -10 0 -34 10 -53 22 -64 40 -84 50 -160 74 -91 29 -180 42 -180 25z" id="svg_2" fill="#1070b4" fill-opacity="1" opacity="1"/>
<path d="M86 1442 c-3 -5 6 -40 19 -78 14 -38 25 -76 25 -85 0 -9 7 -30 15 -45 8 -16 15 -40 15 -54 0 -15 4 -30 8 -35 4 -6 16 -37 26 -70 10 -33 22 -69 26 -80 5 -11 16 -45 26 -75 9 -30 20 -64 25 -75 4 -11 10 -31 12 -45 5 -23 17 -62 38 -115 4 -11 10 -29 12 -40 5 -21 24 -76 38 -110 76 -190 109 -240 170 -252 16 -3 32 -10 35 -14 7 -12 220 -11 242 0 9 5 24 12 32 16 34 13 60 33 77 56 31 41 53 86 53 106 0 10 4 23 8 28 5 6 17 37 27 70 10 33 21 69 25 80 4 11 13 38 20 60 7 22 18 54 25 70 20 44 45 123 45 140 0 9 4 23 9 33 5 9 17 44 26 77 10 33 21 64 26 69 5 6 9 19 9 29 0 11 7 40 15 66 8 25 31 94 51 154 19 59 32 112 29 117 -10 15 -270 13 -283 -2 -5 -7 -26 -62 -47 -123 -20 -60 -40 -119 -44 -130 -5 -11 -21 -60 -36 -110 -15 -49 -34 -104 -41 -122 -8 -17 -14 -36 -14 -42 0 -6 -4 -19 -9 -29 -5 -9 -16 -42 -26 -72 -9 -30 -20 -64 -25 -75 -4 -11 -16 -47 -26 -80 -10 -33 -22 -64 -26 -70 -4 -5 -8 -17 -8 -27 0 -23 -29 -24 -36 0 -3 9 -9 26 -14 37 -4 11 -15 45 -24 75 -10 30 -21 64 -25 75 -5 11 -16 45 -25 75 -10 30 -21 64 -25 75 -5 11 -16 45 -25 75 -10 30 -21 64 -25 75 -5 11 -16 45 -25 75 -10 30 -21 64 -26 75 -4 11 -16 47 -26 80 -10 33 -22 64 -26 69 -4 6 -8 18 -8 28 0 11 -7 32 -15 48 l-16 30 -139 0 c-76 0 -141 -4 -144 -8z" id="svg_3" fill="#1070b4" fill-opacity="1" opacity="1"/>
<path d="M1530 1410 c-107 -23 -168 -85 -215 -219 -32 -92 -8 -253 48 -326 37 -48 59 -68 100 -90 47 -25 51 -25 272 -25 123 0 235 -4 248 -9 47 -18 67 -50 67 -108 0 -46 -4 -59 -30 -86 l-30 -32 -317 0 -318 0 -3 -113 -3 -114 373 4 c370 3 373 3 413 26 61 36 99 77 131 140 26 53 28 66 28 173 1 108 -1 120 -28 173 -30 58 -83 117 -128 140 -47 25 -154 36 -340 36 -208 0 -221 4 -246 72 -16 46 5 101 51 128 30 19 52 20 459 20 412 0 428 -1 438 -19 6 -13 10 -174 10 -456 l0 -436 117 3 118 3 0 440 c0 242 4 446 8 453 6 8 43 12 128 12 l120 0 -3 108 -3 107 -715 1 c-393 1 -731 -2 -750 -6z" id="svg_4" fill="#1070b4" fill-opacity="1" opacity="1"/>
<path d="M4500 1413 c-101 -16 -202 -102 -259 -220 -44 -91 -49 -103 -55 -138 -2 -16 -10 -52 -16 -78 -15 -60 -8 -240 13 -324 23 -98 74 -190 144 -260 34 -34 74 -65 90 -69 15 -4 34 -12 42 -18 10 -8 116 -11 340 -11 l326 0 3 112 3 113 -257 0 c-275 0 -317 6 -359 48 -22 22 -34 42 -78 139 -16 36 -14 261 2 313 26 78 88 160 122 160 10 0 21 5 24 10 4 6 107 10 276 10 l269 0 0 110 0 110 -302 -1 c-167 -1 -314 -4 -328 -6z" id="svg_5" fill="#1070b4" fill-opacity="1" opacity="1"/>
<path d="M5220 855 l0 -565 115 0 c85 0 115 3 115 13 1 6 2 61 4 121 3 59 8 112 14 118 5 5 20 3 38 -6 16 -8 40 -19 54 -24 14 -5 45 -17 70 -27 98 -38 151 -60 182 -76 10 -5 23 -9 29 -9 6 0 27 -7 47 -16 21 -9 48 -20 62 -26 14 -5 38 -16 53 -24 16 -8 35 -14 43 -14 14 0 22 -3 82 -33 19 -9 38 -17 43 -17 5 0 9 58 9 130 0 85 -4 130 -11 130 -5 0 -36 12 -67 26 -31 14 -73 33 -92 41 -19 8 -57 26 -83 39 -27 13 -53 24 -58 24 -9 0 -93 37 -172 76 -27 13 -53 24 -57 24 -5 0 -38 14 -74 30 -55 26 -66 35 -66 55 0 26 33 55 62 55 10 0 18 5 18 10 0 6 5 10 11 10 6 0 26 7 45 15 30 13 70 30 129 55 11 4 46 20 78 34 32 14 61 26 65 26 4 0 29 11 57 24 27 13 68 32 90 41 79 32 90 37 105 45 12 6 16 33 18 134 3 137 2 139 -52 111 -15 -8 -33 -15 -40 -15 -6 0 -33 -11 -61 -25 -27 -13 -57 -25 -66 -25 -8 0 -19 -4 -25 -8 -5 -5 -31 -17 -59 -26 -27 -10 -66 -25 -85 -33 -47 -19 -67 -27 -120 -48 -25 -10 -69 -28 -98 -41 -29 -13 -58 -24 -65 -24 -7 0 -18 -5 -25 -12 -19 -19 -29 28 -26 127 2 50 0 102 -2 118 l-6 27 -114 0 -114 0 0 -565z" id="svg_6" fill="#1070b4" fill-opacity="1" opacity="1"/>
<path d="M3720 1271 c-5 -11 -10 -35 -10 -55 0 -19 -4 -38 -10 -41 -5 -3 -10 -15 -10 -25 0 -52 -64 -106 -90 -75 -6 7 -25 20 -43 29 -38 19 -70 39 -77 47 -3 3 -21 13 -40 22 -19 10 -42 23 -51 29 -13 9 -20 8 -30 -3 -16 -17 -36 -48 -46 -69 -3 -8 -17 -25 -30 -37 -27 -25 -30 -58 -8 -80 13 -12 18 -13 31 -3 18 16 32 4 16 -12 -16 -16 -15 -68 1 -68 8 0 24 -11 37 -25 13 -14 28 -25 33 -25 5 0 16 -8 23 -17 12 -17 15 -16 39 11 14 16 25 33 25 38 0 4 5 8 10 8 6 0 10 -11 10 -25 0 -14 -4 -25 -10 -25 -5 0 -10 -8 -10 -18 0 -10 -6 -24 -12 -31 -11 -10 -7 -18 18 -39 48 -42 106 -87 118 -91 6 -2 18 -9 26 -16 27 -23 90 -55 108 -55 16 0 65 -51 127 -134 l29 -38 38 43 c21 24 41 51 44 61 3 10 10 18 15 18 5 0 9 9 9 20 0 11 7 23 15 26 10 4 15 20 15 49 0 26 -6 47 -15 55 -8 7 -15 17 -15 23 0 6 -23 35 -51 63 -48 49 -51 55 -51 103 0 28 5 57 10 64 16 19 31 158 20 180 -5 9 -28 29 -51 44 -23 14 -44 29 -47 32 -7 8 -88 61 -94 61 -3 0 -10 -9 -16 -19z" id="svg_7" fill="#1070b4" fill-opacity="1" opacity="1"/>
<path d="M3460 725 c0 -14 6 -25 13 -25 16 -1 57 -35 57 -48 0 -6 -6 -12 -12 -14 -9 -3 -8 -10 5 -23 14 -13 21 -15 30 -6 15 15 27 14 27 -4 0 -8 -4 -15 -10 -15 -6 0 -10 -27 -10 -60 0 -46 3 -60 14 -60 8 0 18 5 21 10 3 6 1 10 -4 10 -6 0 -11 7 -11 15 0 18 12 19 29 3 10 -11 14 -10 22 4 5 9 15 23 22 30 18 18 26 43 19 54 -12 16 -80 64 -91 64 -6 0 -11 5 -11 10 0 6 -7 10 -15 10 -9 0 -18 7 -21 15 -4 8 -12 15 -20 15 -8 0 -14 3 -14 8 0 4 -9 13 -20 20 -18 11 -20 10 -20 -13z" id="svg_8" fill="#1070b4" fill-opacity="1" opacity="1"/>
<path d="M3706 503 c-20 -21 -39 -46 -42 -55 -3 -10 -9 -18 -14 -18 -15 0 -24 -70 -11 -83 8 -8 11 -6 11 9 1 25 36 67 50 59 8 -5 6 -13 -6 -26 -10 -11 -14 -25 -10 -36 7 -17 8 -17 17 0 12 21 29 22 29 2 0 -8 -4 -15 -10 -15 -5 0 -10 -11 -10 -25 0 -14 5 -25 10 -25 16 0 130 112 130 127 0 8 -6 21 -12 29 -24 28 -89 94 -93 94 -2 0 -20 -17 -39 -37z" id="svg_9" fill="#1070b4" fill-opacity="1" opacity="1"/>
</g></g></svg>